<svg width="54" height="65" viewBox="0 0 54 65" fill="none" xmlns="http://www.w3.org/2000/svg">
<path fill-rule="evenodd" clip-rule="evenodd" d="M22.1351 4.34067C22.3566 1.90672 24.403 0 26.8947 0C29.3863 0 31.4327 1.90672 31.6542 4.34068C41.5082 6.51547 48.8799 15.3016 48.8799 25.8094V37.017C48.9625 38.6138 49.6244 40.0579 50.6599 41.143V41.1632C52.5658 42.7412 53.78 45.1252 53.78 47.7929C53.78 52.5441 49.9283 56.3958 45.1771 56.3958H34.5417V57.3529C34.5417 61.5763 31.118 65 26.8947 65C22.6713 65 19.2476 61.5763 19.2476 57.3529V56.3958H8.60294C3.85166 56.3958 0 52.5441 0 47.7929C0 45.1206 1.21837 42.7329 3.12993 41.155V41.142C4.17028 40.0508 4.83323 38.5966 4.90936 36.9888V25.8094C4.90936 15.3016 12.2811 6.51547 22.1351 4.34067ZM43.8799 37.1298V37.1499H43.8807C44.0043 40.1996 45.3189 42.9425 47.3721 44.9264H47.3601C47.3727 44.936 47.3853 44.9457 47.3978 44.9555C47.4067 44.9625 47.4155 44.9694 47.4243 44.9765L47.4728 45.0225H47.4807C48.2746 45.6834 48.78 46.6791 48.78 47.7929C48.78 49.7827 47.1669 51.3958 45.1771 51.3958H8.60294C6.61309 51.3958 5 49.7827 5 47.7929C5 46.6791 5.50537 45.6834 6.29932 45.0225H6.31624C6.34604 44.9943 6.3757 44.9661 6.4052 44.9376L6.41991 44.9264H6.41688C8.46945 42.9425 9.78366 40.1996 9.90716 37.1499H9.90936V37.0921C9.91166 37.0272 9.91343 36.9622 9.91465 36.897H9.90936V25.8094C9.90936 16.4287 17.5139 8.8241 26.8947 8.8241C36.2754 8.8241 43.8799 16.4287 43.8799 25.8094V36.897H43.8733C43.8747 36.9748 43.8769 37.0524 43.8799 37.1298ZM24.2476 57.3529V56.3958H29.5417V57.3529C29.5417 58.8149 28.3566 60 26.8947 60C25.4327 60 24.2476 58.8149 24.2476 57.3529Z" fill="#11141B"/>
</svg>
