<svg width="51" height="36" viewBox="0 0 51 36" fill="none" xmlns="http://www.w3.org/2000/svg">
<path fill-rule="evenodd" clip-rule="evenodd" d="M0.00128729 17.6283C-0.0178779 17.0928 0.176955 16.551 0.585786 16.1421L16.1421 0.585786C16.9232 -0.195262 18.1895 -0.195262 18.9706 0.585786C19.7516 1.36683 19.7516 2.63316 18.9706 3.41421L6.78478 15.6H48.1716C49.2761 15.6 50.1716 16.4954 50.1716 17.6C50.1716 18.7046 49.2761 19.6 48.1716 19.6H6.72822L18.9706 31.8423C19.7516 32.6234 19.7516 33.8897 18.9706 34.6708C18.1895 35.4518 16.9232 35.4518 16.1421 34.6708L0.585789 19.1144C0.176979 18.7056 -0.0178547 18.1639 0.00128729 17.6283Z" fill="#11141B"/>
</svg>
