<svg width="66" height="79" viewBox="0 0 66 79" fill="none" xmlns="http://www.w3.org/2000/svg">
<path d="M11.8098 61.865C12.1831 61.3234 12.7988 61 13.4566 61L52.0706 61C52.7153 61 53.3205 61.3108 53.6961 61.8348L63.7312 75.8348C64.6798 77.1582 63.734 79 62.1057 79H3.80746C2.19604 79 1.24623 77.1918 2.1607 75.865L11.8098 61.865Z" fill="#DDE1EA"/>
<path fill-rule="evenodd" clip-rule="evenodd" d="M53.4445 44.6365C57.5295 39.9054 60 33.7412 60 27C60 12.0883 47.9117 0 33 0C18.0883 0 6 12.0883 6 27C6 33.7413 8.47058 39.9056 12.5557 44.6367L30.6127 68.3632C31.8133 69.9407 34.1867 69.9407 35.3873 68.3632L53.4445 44.6365Z" fill="#5994F5"/>
<circle cx="33" cy="27" r="18" fill="white"/>
<path fill-rule="evenodd" clip-rule="evenodd" d="M21.6479 36.805C24.1911 33.2882 28.3284 31 33 31C37.6717 31 41.809 33.2882 44.3521 36.805C41.6016 39.9867 37.5359 42 33 42C28.4642 42 24.3985 39.9867 21.6479 36.805ZM39 23C39 26.3137 36.3138 29 33 29C29.6863 29 27 26.3137 27 23C27 19.6863 29.6863 17 33 17C36.3138 17 39 19.6863 39 23Z" fill="#5994F5"/>
</svg>
