<svg width="83" height="73" viewBox="0 0 83 73" fill="none" xmlns="http://www.w3.org/2000/svg">
<path fill-rule="evenodd" clip-rule="evenodd" d="M53.1884 71.5131C38.0592 71.5131 25.7945 59.9815 25.7945 45.7566C25.7945 31.5316 38.0592 20 53.1884 20C68.3177 20 80.5824 31.5316 80.5824 45.7566C80.5824 49.1609 79.8799 52.4109 78.6039 55.3856L82.4314 68.5079C83.1498 70.9707 80.6456 73.1404 78.3099 72.0788L68.0325 67.4076C63.7553 70.0053 58.6591 71.5131 53.1884 71.5131Z" fill="#F2C6CC"/>
<path fill-rule="evenodd" clip-rule="evenodd" d="M36.2946 63C54.7962 63 69.7946 48.897 69.7946 31.5C69.7946 14.103 54.7962 0 36.2946 0C17.7931 0 2.79462 14.103 2.79462 31.5C2.79462 35.6634 3.65361 39.6381 5.21404 43.276L0.125267 60.7234C-0.593091 63.1864 1.91105 65.3562 4.24668 64.2945L18.1414 57.9787C23.3721 61.1559 29.6043 63 36.2946 63Z" fill="#F18A97"/>
<path d="M32.9951 35.2979C32.9951 33.8506 33.1188 32.6816 33.3662 31.791C33.6136 30.888 33.9661 30.1706 34.4238 29.6387C34.8815 29.0944 35.5 28.5749 36.2793 28.0801C36.9225 27.6595 37.4421 27.276 37.8379 26.9297C38.2461 26.5833 38.5677 26.1999 38.8027 25.7793C39.0378 25.3464 39.1553 24.8763 39.1553 24.3691C39.1553 23.8496 39.0316 23.3857 38.7842 22.9775C38.5492 22.557 38.209 22.2354 37.7637 22.0127C37.3184 21.79 36.8298 21.6787 36.2979 21.6787C35.766 21.6787 35.265 21.8024 34.7949 22.0498C34.3372 22.2848 33.9661 22.6312 33.6816 23.0889C33.3971 23.5465 33.2425 24.0846 33.2178 24.7031H27.3359C27.3607 22.9466 27.7689 21.4746 28.5605 20.2871C29.3646 19.0996 30.4408 18.2152 31.7891 17.6338C33.1374 17.0524 34.6527 16.7617 36.335 16.7617C38.141 16.7617 39.7428 17.0462 41.1406 17.6152C42.5384 18.1842 43.627 19.0192 44.4062 20.1201C45.1855 21.221 45.5752 22.5384 45.5752 24.0723C45.5752 25.5566 45.2227 26.8184 44.5176 27.8574C43.8125 28.8965 42.7858 29.8057 41.4375 30.585C40.7324 31.0055 40.1696 31.4261 39.749 31.8467C39.3408 32.2549 39.0254 32.7373 38.8027 33.2939C38.5801 33.8506 38.4626 34.5186 38.4502 35.2979V35.8174H32.9951V35.2979ZM35.8525 44.3711C35.2464 44.3711 34.6836 44.2227 34.1641 43.9258C33.6445 43.6165 33.2301 43.2083 32.9209 42.7012C32.624 42.1816 32.4818 41.6126 32.4941 40.9941C32.4818 40.4004 32.624 39.8499 32.9209 39.3428C33.2301 38.8356 33.6445 38.4336 34.1641 38.1367C34.6836 37.8398 35.2464 37.6914 35.8525 37.6914C36.4339 37.6914 36.9782 37.8398 37.4854 38.1367C38.0049 38.4336 38.4193 38.8418 38.7285 39.3613C39.0378 39.8685 39.1986 40.4128 39.2109 40.9941C39.1986 41.6126 39.0378 42.1816 38.7285 42.7012C38.4193 43.2083 38.0049 43.6165 37.4854 43.9258C36.9782 44.2227 36.4339 44.3711 35.8525 44.3711Z" fill="white"/>
</svg>
