<svg width="102" height="102" viewBox="0 0 102 102" fill="none" xmlns="http://www.w3.org/2000/svg">
<circle cx="51" cy="51" r="51" fill="#C1D9FC"/>
<path fill-rule="evenodd" clip-rule="evenodd" d="M51 102C79.1665 102 102 79.1665 102 51C102 49.7454 101.955 48.5015 101.866 47.2696L101.5 46C98.1667 49.6667 88.8 57 78 57C71.0513 57 66.487 54.0857 62.0571 51.2572C57.8805 48.5905 53.8234 46 48 46C41.8695 46 37.4355 48.8709 33.0979 51.6794C28.9449 54.3683 24.8804 57 19.5 57C11.1819 57 3.39992 51.937 0.0388991 48.9896C0.013046 49.6565 0 50.3267 0 51C0 79.1665 22.8335 102 51 102Z" fill="#3182F6"/>
<path d="M56.1387 24.1554L31.4618 49.8899C29.894 51.5248 30.6343 54.2409 32.8149 54.8542L41.5495 57.3108C42.963 57.7083 43.881 59.0706 43.7189 60.53L41.9672 76.2956C41.6515 79.1361 45.1101 80.7672 47.1011 78.7168L71.1734 53.9259C72.7136 52.3397 72.0673 49.6891 69.9698 48.9899L60.4605 45.8202C59.0476 45.3492 58.1941 43.9129 58.4559 42.4468L61.2573 26.7591C61.7792 23.8367 58.1933 22.0127 56.1387 24.1554Z" fill="white"/>
<path fill-rule="evenodd" clip-rule="evenodd" d="M69.7024 55.4408C66.8788 54.3359 64.4484 52.7841 62.0571 51.2572C57.8805 48.5905 53.8234 46 48 46C41.8695 46 37.4355 48.8709 33.0979 51.6794C32.3498 52.1638 31.6046 52.6463 30.854 53.1119C31.1845 53.917 31.8623 54.5863 32.8149 54.8542L41.5495 57.3108C42.963 57.7083 43.881 59.0706 43.7189 60.53L41.9672 76.2956C41.6515 79.1361 45.1101 80.7672 47.1011 78.7168L69.7024 55.4408Z" fill="#77ADF9"/>
</svg>
