<svg width="52" height="42" viewBox="0 0 52 42" fill="none" xmlns="http://www.w3.org/2000/svg">
<path fill-rule="evenodd" clip-rule="evenodd" d="M0 6C0 2.68629 2.68629 0 6 0H46C49.3137 0 52 2.68629 52 6V17C49.7909 17 48 18.7909 48 21C48 23.2091 49.7909 25 52 25V36C52 39.3137 49.3137 42 46 42H6C2.68629 42 0 39.3137 0 36V25C2.20914 25 4 23.2091 4 21C4 18.7909 2.20914 17 0 17V6Z" fill="#337EFB"/>
<path fill-rule="evenodd" clip-rule="evenodd" d="M19 16.5C19.8284 16.5 20.5 15.8284 20.5 15C20.5 14.1716 19.8284 13.5 19 13.5C18.1716 13.5 17.5 14.1716 17.5 15C17.5 15.8284 18.1716 16.5 19 16.5ZM19 20C21.7614 20 24 17.7614 24 15C24 12.2386 21.7614 10 19 10C16.2386 10 14 12.2386 14 15C14 17.7614 16.2386 20 19 20ZM33 28.5C33.8284 28.5 34.5 27.8284 34.5 27C34.5 26.1716 33.8284 25.5 33 25.5C32.1716 25.5 31.5 26.1716 31.5 27C31.5 27.8284 32.1716 28.5 33 28.5ZM33 32C35.7614 32 38 29.7614 38 27C38 24.2386 35.7614 22 33 22C30.2386 22 28 24.2386 28 27C28 29.7614 30.2386 32 33 32ZM34.6777 12.4142C33.8966 11.6332 32.6303 11.6332 31.8492 12.4142L17.7071 26.5563C16.9261 27.3374 16.9261 28.6037 17.7071 29.3848C18.4882 30.1658 19.7545 30.1658 20.5355 29.3848L34.6777 15.2426C35.4587 14.4616 35.4587 13.1953 34.6777 12.4142Z" fill="white"/>
</svg>
