<svg width="66" height="64" viewBox="0 0 66 64" fill="none" xmlns="http://www.w3.org/2000/svg">
<path fill-rule="evenodd" clip-rule="evenodd" d="M47.0361 61.8431C50.5929 64.8536 55.9712 61.7909 55.1969 57.1958L52.534 41.3925C52.2408 39.6528 52.8862 37.8874 54.2321 36.7469L63.6177 28.7944C67.1729 25.782 65.0378 19.9727 60.378 19.9796L47.0959 19.9993C44.9942 20.0024 43.115 18.6909 42.3929 16.7172L37.4776 3.28209C35.8765 -1.09403 29.6873 -1.09403 28.0863 3.28209L23.171 16.7173C22.4489 18.691 20.5697 20.0025 18.468 19.9994L5.01748 19.9794C0.357682 19.9725 -1.77743 25.7818 1.77774 28.7941L12.517 37.8938C13.8629 39.0342 14.5082 40.7994 14.2152 42.5389L11.7464 57.1969C10.9725 61.792 16.351 64.8543 19.9076 61.8435L30.2407 53.0961C32.1051 51.5178 34.837 51.5177 36.7016 53.0959L47.0361 61.8431Z" fill="#FF7A00"/>
</svg>
