<svg width="76" height="76" viewBox="0 0 76 76" fill="none" xmlns="http://www.w3.org/2000/svg">
<circle cx="38" cy="38" r="38" fill="#337EFB"/>
<path fill-rule="evenodd" clip-rule="evenodd" d="M49.8632 45.1062C52.6638 42.1211 54.379 38.1056 54.379 33.6895C54.379 24.4721 46.9068 17 37.6895 17C28.4721 17 21 24.4721 21 33.6895C21 38.1056 22.7152 42.1211 25.5158 45.1062C25.6015 45.2802 25.7063 45.4502 25.8312 45.6143L35.3022 58.059C36.5028 59.6365 38.8762 59.6365 40.0768 58.059L49.5478 45.6143C49.6727 45.4502 49.7775 45.2801 49.8632 45.1062Z" fill="white"/>
<circle cx="37.5" cy="33.5" r="11.5" fill="#337EFB"/>
<path fill-rule="evenodd" clip-rule="evenodd" d="M30.6729 39.7504C32.2449 37.5769 34.8021 36.1627 37.6896 36.1627C40.5771 36.1627 43.1342 37.5769 44.7063 39.7504C43.0061 41.7169 40.4931 42.9612 37.6896 42.9612C34.886 42.9612 32.373 41.7169 30.6729 39.7504ZM41.3984 31.2176C41.3984 33.2659 39.7379 34.9263 37.6896 34.9263C35.6413 34.9263 33.9808 33.2659 33.9808 31.2176C33.9808 29.1693 35.6413 27.5088 37.6896 27.5088C39.7379 27.5088 41.3984 29.1693 41.3984 31.2176Z" fill="white"/>
</svg>
