<svg width="51" height="30" viewBox="0 0 51 30" fill="none" xmlns="http://www.w3.org/2000/svg">
<path fill-rule="evenodd" clip-rule="evenodd" d="M33.8722 3.41421C33.0912 2.63316 33.0912 1.36683 33.8722 0.585786C34.6533 -0.195262 35.9196 -0.195262 36.7006 0.585786L49.607 13.4922C50.0195 13.9047 50.2142 14.4525 50.191 14.9927C50.2138 15.5325 50.0191 16.0798 49.607 16.4919L36.7006 29.3983C35.9195 30.1793 34.6532 30.1793 33.8722 29.3983C33.0911 28.6172 33.0911 27.3509 33.8722 26.5699L43.442 17L2 17C0.895432 17 0 16.1046 0 15C0 13.8954 0.89543 13 2 13L43.458 13L33.8722 3.41421Z" fill="#575C66"/>
</svg>
