<svg width="110" height="149" viewBox="0 0 110 149" fill="none" xmlns="http://www.w3.org/2000/svg">
<ellipse cx="55" cy="145" rx="11" ry="4" fill="#1E1C1C"/>
<mask id="path-2-inside-1_115_35" fill="white">
<path fill-rule="evenodd" clip-rule="evenodd" d="M103.101 81.6904C107.496 73.7862 110 64.6855 110 55C110 24.6243 85.3757 0 55 0C24.6243 0 0 24.6243 0 55C0 64.6855 2.50355 73.7862 6.89882 81.6904C6.94473 82.2235 7.1382 82.759 7.50622 83.2426L9.22704 85.5037C10.4916 87.3976 11.8706 89.2085 13.3541 90.9266L52.6127 142.511C53.8133 144.089 56.1867 144.089 57.3873 142.511L96.6462 90.9263C98.1294 89.2084 99.5082 87.3977 100.773 85.5042L102.494 83.2426C102.862 82.759 103.055 82.2235 103.101 81.6904Z"/>
</mask>
<path fill-rule="evenodd" clip-rule="evenodd" d="M103.101 81.6904C107.496 73.7862 110 64.6855 110 55C110 24.6243 85.3757 0 55 0C24.6243 0 0 24.6243 0 55C0 64.6855 2.50355 73.7862 6.89882 81.6904C6.94473 82.2235 7.1382 82.759 7.50622 83.2426L9.22704 85.5037C10.4916 87.3976 11.8706 89.2085 13.3541 90.9266L52.6127 142.511C53.8133 144.089 56.1867 144.089 57.3873 142.511L96.6462 90.9263C98.1294 89.2084 99.5082 87.3977 100.773 85.5042L102.494 83.2426C102.862 82.759 103.055 82.2235 103.101 81.6904Z" fill="#13A606"/>
<path d="M103.101 81.6904L100.479 80.2324L100.167 80.7935L100.112 81.4331L103.101 81.6904ZM6.89882 81.6904L9.88776 81.4331L9.83269 80.7935L9.52072 80.2325L6.89882 81.6904ZM7.50622 83.2426L5.11894 85.0595L5.11895 85.0595L7.50622 83.2426ZM9.22704 85.5037L11.722 83.8378L11.6705 83.7607L11.6143 83.6869L9.22704 85.5037ZM13.3541 90.9266L15.7414 89.1098L15.6854 89.0361L15.6248 88.966L13.3541 90.9266ZM52.6127 142.511L50.2254 144.328H50.2254L52.6127 142.511ZM57.3873 142.511L55 140.695L57.3873 142.511ZM96.6462 90.9263L94.3755 88.9657L94.315 89.0358L94.2589 89.1094L96.6462 90.9263ZM100.773 85.5042L98.3854 83.6874L98.3292 83.7611L98.2778 83.8382L100.773 85.5042ZM102.494 83.2426L100.107 81.4258L102.494 83.2426ZM107 55C107 64.1623 104.633 72.7627 100.479 80.2324L105.723 83.1483C110.36 74.8097 113 65.2086 113 55H107ZM55 3C83.7188 3 107 26.2812 107 55H113C113 22.9675 87.0325 -3 55 -3V3ZM3 55C3 26.2812 26.2812 3 55 3V-3C22.9675 -3 -3 22.9675 -3 55H3ZM9.52072 80.2325C5.36705 72.7628 3 64.1623 3 55H-3C-3 65.2087 -0.359949 74.8097 4.27692 83.1484L9.52072 80.2325ZM9.8935 81.4258C9.88656 81.4167 9.88329 81.4111 9.88226 81.4092C9.88123 81.4074 9.88166 81.4079 9.88271 81.4106C9.88374 81.4133 9.8849 81.4169 9.88589 81.4212C9.88686 81.4255 9.88746 81.4295 9.88776 81.4331L3.90988 81.9478C4.00387 83.0392 4.40185 84.1172 5.11894 85.0595L9.8935 81.4258ZM11.6143 83.6869L9.8935 81.4258L5.11895 85.0595L6.83977 87.3206L11.6143 83.6869ZM15.6248 88.966C14.2218 87.3411 12.9177 85.6285 11.722 83.8378L6.73213 87.1697C8.06556 89.1666 9.51948 91.0759 11.0835 92.8873L15.6248 88.966ZM55 140.695L15.7414 89.1098L10.9669 92.7435L50.2254 144.328L55 140.695ZM55 140.695H55L50.2254 144.328C52.6266 147.483 57.3734 147.483 59.7745 144.328L55 140.695ZM94.2589 89.1094L55 140.695L59.7745 144.328L99.0334 92.7431L94.2589 89.1094ZM98.2778 83.8382C97.0822 85.6287 95.7783 87.341 94.3755 88.9657L98.9169 92.8869C100.481 91.0758 101.934 89.1668 103.268 87.1702L98.2778 83.8382ZM100.107 81.4258L98.3854 83.6874L103.16 87.321L104.881 85.0595L100.107 81.4258ZM100.112 81.4331C100.113 81.4295 100.113 81.4255 100.114 81.4213C100.115 81.417 100.116 81.4133 100.117 81.4106C100.118 81.4079 100.119 81.4074 100.118 81.4092C100.117 81.4111 100.113 81.4167 100.107 81.4258L104.881 85.0595C105.598 84.1172 105.996 83.0391 106.09 81.9477L100.112 81.4331Z" fill="white" mask="url(#path-2-inside-1_115_35)"/>
<path d="M50.4571 59.0596H24.4532V55.4297H50.4571V59.0596ZM54.2511 71.2617H20.3721V67.5088H54.2511V71.2617ZM39.4649 68.8008H34.9737V57.0703H39.4649V68.8008ZM50.1495 44.9912H29.0264V57.0908H24.4532V41.3408H50.1495V44.9912ZM68.2587 46.5908C68.2587 48.7646 67.8554 50.7949 67.0487 52.6816C66.2421 54.5547 65.0595 56.1748 63.5009 57.542C61.9423 58.9092 60.0624 59.9209 57.8612 60.5771L55.6259 57.0293C57.5263 56.4824 59.1464 55.6758 60.4862 54.6094C61.8398 53.543 62.8652 52.3193 63.5624 50.9385C64.2597 49.5439 64.6083 48.0947 64.6083 46.5908V45.1143H68.2587V46.5908ZM69.12 46.5908C69.12 47.9854 69.455 49.3252 70.1249 50.6104C70.8085 51.8955 71.8134 53.0439 73.1396 54.0557C74.4794 55.0674 76.0927 55.833 77.9794 56.3525L75.8466 59.9619C73.6454 59.333 71.7587 58.3555 70.1864 57.0293C68.6278 55.6895 67.4384 54.124 66.6181 52.333C65.8114 50.542 65.4081 48.6279 65.4081 46.5908V45.1143H69.12V46.5908ZM76.8925 46.3242H56.8359V42.7148H76.8925V46.3242ZM69.1816 44.417H64.6083V38.4697H69.1816V44.417ZM85.0546 61.2744H80.5019V38.5723H85.0546V61.2744ZM90.2431 51.7998H83.7626V47.9648H90.2431V51.7998ZM85.0546 75.6914H80.5019V66.6064H60.3427V62.915H85.0546V75.6914Z" fill="white"/>
</svg>
