<svg width="100" height="100" viewBox="0 0 100 100" fill="none" xmlns="http://www.w3.org/2000/svg">
<circle cx="50" cy="50" r="50" fill="#F9B000"/>
<path d="M76.8 50.3554L76.32 50.0454C74.68 48.4054 72.39 47.6954 69.33 47.8754C66.78 48.0254 64.76 49.0354 63.22 49.9754C63.22 49.9554 63.22 49.9254 63.22 49.9054C63.22 49.1054 63.31 48.2454 63.4 47.4054C63.49 46.5554 63.58 45.6854 63.58 44.8654C63.58 44.0454 63.49 43.2354 63.2 42.5554C63.13 42.3854 62.97 42.2754 62.76 42.2754C61.94 42.2954 60.33 42.8554 59.94 43.1954L59.73 43.6554C59.72 44.5654 59.52 47.1154 59.31 47.4254C59.31 47.4154 59.2 47.7354 59.2 47.7354C58.85 51.3654 58.85 54.5654 59.17 57.3054C59.21 57.5754 59.73 57.9854 60.14 58.1354C60.59 58.2954 61.99 57.9254 62.79 57.6254L63.09 57.5754C63.34 57.5454 63.49 57.3354 63.48 57.0454L63.5 56.2554C64.08 53.8854 66.44 51.0654 69.23 50.6354C70.81 50.3854 72.05 50.7854 73.03 51.8654C73.16 52.0554 73.45 53.7654 72.41 55.7154C71.64 57.1654 70.09 58.3854 68.06 59.1454C66.13 59.8754 64.02 60.1754 61.4 60.0854C61.29 60.0154 58.95 58.4254 58.95 58.4254C56.88 56.9654 54.3 55.1554 51.96 54.2654C51.55 54.1054 50.81 53.4954 50.37 53.1354L50.13 52.9354C48.78 51.8554 46.22 50.1454 44.16 48.7754C44.16 48.7754 43.23 48.1554 43.05 48.0354C43.05 47.9554 43.05 47.8054 43.05 47.8054C43.11 47.7454 44.41 46.9654 44.41 46.9654C46.22 45.9054 47.06 45.3854 47.24 45.1154C47.2 45.1554 47.48 44.9754 47.48 44.9754C47.5 44.9754 51.97 42.4354 51.97 42.4354C56.28 40.0654 61.17 37.3754 63.74 34.7154L63.87 34.3054L63.93 33.9454C64.1 33.3754 64.11 32.9454 63.97 32.4354C63.93 32.2954 63.8 32.1254 63.62 32.0954C61.62 31.8954 59.03 33.0954 56.68 35.3054C56.15 35.8054 55.7 36.0454 55.23 36.3054L54.87 36.5054C52.28 37.9754 46.43 41.6054 43.37 43.5654C43.57 40.2754 44.18 35.5954 44.93 31.6954L44.85 31.2254L44.53 30.6354L44.29 30.2154L44.22 30.1954C43.61 29.8854 43.11 30.0154 42.74 30.1054L42.13 30.3354L41.31 30.6354C41.15 30.6654 41.04 30.7654 40.97 30.9254C39.51 34.4554 38.29 40.2654 38 44.9154C35.08 43.0554 32.38 41.7254 31.06 41.0754L31.02 41.0554L30.86 41.0254C30.38 40.9654 29.8 40.6154 29.25 40.2754C29.19 40.2454 28.14 39.5554 28.14 39.5554L26.44 38.4654L25.99 38.3654C25.26 38.4954 23.86 39.4354 23.45 40.0754C23.4 40.1554 23.37 40.2454 23.37 40.3454C23.37 40.4854 23.41 40.6154 23.45 40.7454L23.52 41.0854L23.6 41.2954C24.41 42.1254 26.47 43.5154 28.48 44.5954L30.81 45.8354L34.38 47.7854L34.99 48.2654L35.41 48.5054C35.41 48.5054 35.46 48.5354 35.49 48.5554C34.54 49.1954 29 52.8954 29 52.8954L25.59 55.1554C25.27 55.3754 23.92 55.9754 23.62 56.0954C22.88 56.3954 22.32 56.8654 22.09 57.3654L22 57.5654L22.09 57.6954L22.35 57.8954L22.7 58.1254L23.08 58.3854L23.43 58.4454C24.03 58.4654 24.92 58.1254 26.58 57.3954C28.11 56.7254 32.25 54.2154 34.03 53.1454L34.79 52.6954C35.1 52.7154 35.44 52.4554 35.75 52.2254C36.11 51.9454 36.88 51.4654 37.35 51.2554C37.36 51.2554 37.63 51.1054 37.89 50.9654C37.89 51.0454 37.89 51.1654 37.89 51.1654C37.97 56.5854 38.28 60.5354 38.87 63.5754V63.6254L38.94 63.7454C39.23 64.1754 39.56 65.4554 39.86 66.5954L40.53 68.8554L40.72 69.0654C41.1 69.3254 42.28 69.7754 43.06 69.6854L43.25 69.6654L43.37 69.3954C43.44 69.0554 43.46 68.7254 43.46 68.3554C43.46 67.9454 43.43 67.4854 43.39 66.9254L43.34 66.1054C43.09 62.3154 42.84 56.8554 42.84 53.2154V52.9254C43.48 53.3254 46.3 55.1054 46.3 55.1054C51.09 58.2154 58.32 62.9054 62.7 64.1454C62.93 64.2154 63.17 64.1654 63.33 64.0054L64 63.5754L64.13 63.5254C64.38 63.4054 64.55 62.9854 64.58 62.5254C68.26 62.3354 73.4 60.9254 76.15 57.4654C77.21 56.1254 77.69 54.4854 77.69 53.0754C77.69 51.9254 77.37 50.9254 76.79 50.3854" fill="white"/>
</svg>
