<svg width="74" height="22" viewBox="0 0 74 22" fill="none" xmlns="http://www.w3.org/2000/svg">
<path d="M68.7501 3.76H70.6301C70.7501 3.76 70.8501 3.67 70.8501 3.55V0.21C70.8501 0.09 70.7501 0 70.6301 0H67.9801C64.9201 0 63.2901 0.92 62.3701 2.88L56.6101 16.15C56.2601 16.94 55.7601 17.32 54.7601 17.32V0.21C54.7601 0.09 54.6601 0 54.5401 0H50.3101C50.1901 0 50.0801 0.1 50.0801 0.21V20.72C50.0801 20.92 50.2601 21.09 50.4801 21.09H55.2201C58.2801 21.09 59.6801 20.17 60.6101 18.21L66.2901 5.1C66.7501 4.17 67.4001 3.76 68.7401 3.76" fill="#CA2024"/>
<path d="M17.03 10.55C18.73 9.89 20.13 8.39 20.13 5.92C20.13 2.24 16.77 0 12.72 0H0.22C0.1 0 0 0.1 0 0.21V3.56C0 3.67 0.1 3.77 0.22 3.77H11.86C13.74 3.77 15.01 4.85 15.01 6.18C15.01 7.51 13.74 8.59 11.86 8.59H4.95V6.1C4.95 5.98 4.85 5.89 4.73 5.89H0.22C0.1 5.89 0 5.98 0 6.1V20.88C0 21 0.1 21.09 0.22 21.09H12.55C17.16 21.09 20.46 19.07 20.46 14.94C20.46 12.92 19.19 11.24 17.04 10.54M12.11 17.41H4.95V12.46H12.11C14.04 12.46 15.34 13.57 15.34 14.93C15.34 16.29 14.04 17.4 12.11 17.4" fill="#CA2024"/>
<path d="M73.1199 20.8483L65.8699 12.1183C65.8699 12.1183 65.8199 12.0983 65.8099 12.1183L63.8599 16.6183C63.8599 16.6183 63.8599 16.6783 63.8699 16.6983L67.0399 20.6983C67.2599 20.9783 67.5199 21.0783 67.8999 21.0783H73.0099C73.1599 21.0783 73.2199 20.9483 73.1299 20.8383" fill="#CA2024"/>
<path d="M28.3999 5.89062H24.1599C24.0399 5.89062 23.9399 5.99063 23.9399 6.10063V20.8806C23.9399 21.0006 24.0399 21.0906 24.1599 21.0906H28.3999C28.5199 21.0906 28.6199 21.0006 28.6199 20.8806V6.10063C28.6199 5.99063 28.5199 5.89062 28.3999 5.89062Z" fill="#CA2024"/>
<path d="M45.83 0H41.6C41.48 0 41.38 0.1 41.38 0.21V17.32C40.39 17.32 39.89 16.94 39.54 16.15L33.78 2.88C32.85 0.92 31.23 0 28.17 0H24.18C24.06 0 23.96 0.1 23.96 0.21V3.56C23.96 3.67 24.06 3.77 24.18 3.77H27.41C28.75 3.77 29.4 4.18 29.86 5.11L35.54 18.22C36.47 20.17 37.87 21.1 40.93 21.1H45.68C45.9 21.1 46.07 20.93 46.07 20.73V0.21C46.07 0.09 45.97 0 45.85 0" fill="#CA2024"/>
</svg>
