<svg width="58" height="61" viewBox="0 0 58 61" fill="none" xmlns="http://www.w3.org/2000/svg">
<path d="M15.6385 41.5657L15.6381 41.5654C13.2624 38.9782 6.48292 31.5889 2.67779 23.8021C0.757416 19.8723 0.189796 16.3238 0.652173 13.1529C1.11442 9.98299 2.59981 7.2335 4.71402 4.89019L15.6385 41.5657ZM15.6385 41.5657C18.0111 44.1441 26.8432 53.4973 34.2457 57.7973C37.9815 59.9701 41.42 60.7411 44.5474 60.4361C47.6733 60.1312 50.4396 58.756 52.8408 56.7201L52.841 56.72M15.6385 41.5657L52.841 56.72M52.841 56.72C55.9364 54.0929 57.534 51.7985 57.4995 49.4204C57.4651 47.0544 55.8142 44.8174 53.0321 42.3036L53.0319 42.3034M52.841 56.72L53.0319 42.3034M53.0319 42.3034C52.7769 42.0732 52.5201 41.8396 52.2622 41.605C51.4308 40.8486 50.5883 40.0821 49.7575 39.3878C48.6694 38.4785 47.5707 37.6664 46.4966 37.1395C45.4237 36.6131 44.32 36.3442 43.2509 36.6067C42.1703 36.8721 41.233 37.6532 40.4423 38.9969L40.4421 38.9972M53.0319 42.3034L40.4421 38.9972M40.4421 38.9972C39.9711 39.7989 39.586 40.5595 39.2456 41.2317C39.1509 41.4186 39.0598 41.5987 38.9711 41.7709C38.5549 42.58 38.2039 43.198 37.8078 43.6304C37.4306 44.0424 37.0258 44.2711 36.4814 44.3162C35.9086 44.3637 35.1316 44.2119 34.0172 43.7376C31.8021 42.7939 29.6299 41.1595 27.7966 39.5315C26.2278 38.1383 24.9304 36.7712 24.0803 35.8755C23.9388 35.7264 23.8098 35.5904 23.6939 35.4695C22.0774 33.783 18.0377 29.4697 16.4208 24.8015L16.4208 24.8014M40.4421 38.9972L16.4208 24.8014M16.4208 24.8014C16.0172 23.6375 15.9086 22.8305 15.9864 22.2404C16.0607 21.677 16.3099 21.2724 16.7307 20.9098C17.1726 20.5291 17.7924 20.2038 18.603 19.8214C18.7749 19.7404 18.9545 19.6571 19.141 19.5706C19.8151 19.258 20.5785 18.904 21.3865 18.4643C22.7452 17.7255 23.5534 16.809 23.8672 15.7277C24.1772 14.6595 23.9762 13.5255 23.5204 12.403C22.7264 10.4479 21.0653 8.31979 19.4709 6.27718C19.2552 6.00092 19.0408 5.72622 18.8299 5.45372L18.8296 5.45334M16.4208 24.8014L18.8296 5.45334M18.8296 5.45334C16.5269 2.48383 14.4257 0.671834 12.1031 0.511548M18.8296 5.45334L12.1031 0.511548M12.1031 0.511548C9.76711 0.350335 7.43698 1.87102 4.71409 4.89011L12.1031 0.511548Z" fill="#0068FF" stroke="#0068FF"/>
</svg>
