<svg width="60" height="60" viewBox="0 0 60 60" fill="none" xmlns="http://www.w3.org/2000/svg">
<path fill-rule="evenodd" clip-rule="evenodd" d="M16.5 0C15.1193 0 14 1.11929 14 2.5V7C6.26801 7 0 13.268 0 21V46C0 53.732 6.26801 60 14 60H46C53.732 60 60 53.732 60 46V21C60 13.268 53.732 7 46 7V2.5C46 1.11929 44.8807 0 43.5 0C42.1193 0 41 1.11929 41 2.5V7H19V2.5C19 1.11929 17.8807 0 16.5 0ZM41 12H19V12.5C19 13.8807 17.8807 15 16.5 15C15.1193 15 14 13.8807 14 12.5V12C9.02944 12 5 16.0294 5 21V46C5 50.9706 9.02944 55 14 55H46C50.9706 55 55 50.9706 55 46V21C55 16.0294 50.9706 12 46 12V12.5C46 13.8807 44.8807 15 43.5 15C42.1193 15 41 13.8807 41 12.5V12ZM17.5 47C16.1193 47 15 45.8807 15 44.5C15 43.1193 16.1193 42 17.5 42H42.5C43.8807 42 45 43.1193 45 44.5C45 45.8807 43.8807 47 42.5 47H17.5Z" fill="#11141B"/>
</svg>
