<svg width="76" height="44" viewBox="0 0 76 44" fill="none" xmlns="http://www.w3.org/2000/svg">
<path fill-rule="evenodd" clip-rule="evenodd" d="M66.8029 11.3325C61.7921 4.23328 53.472 0 45.0074 0C36.5427 0 28.2217 4.23328 23.2185 11.3325L22.9619 11.6983H29.2731L29.3401 11.6226C33.6347 7.18729 39.2382 4.84611 45.0074 4.84611C50.7765 4.84611 56.3772 7.18729 60.6804 11.6226L60.7512 11.6983H67.0557L66.8029 11.3325Z" fill="#E60013"/>
<path d="M20.4607 34.9348L20.342 35.0544C18.402 37.0279 16.1594 38.0736 13.8499 38.0736C9.02769 38.0736 5.52596 34.456 5.52596 29.4653C5.52596 24.4746 9.02864 20.8589 13.8499 20.8589C16.1585 20.8589 18.402 21.9084 20.342 23.8867L20.4607 24.0073L23.5603 20.2547L23.4779 20.1551C20.8993 17.1063 17.8016 15.625 13.9983 15.625C10.1949 15.625 6.69225 16.9091 4.17679 19.2254C1.44397 21.7341 0 25.2722 0 29.4653C0 33.6584 1.44397 37.2003 4.17679 39.711C6.69225 42.0368 10.1796 43.3161 13.9983 43.3161C17.8169 43.3161 20.8983 41.8329 23.4779 38.7831L23.5603 38.6883L20.4607 34.9348Z" fill="#004287"/>
<path d="M32.1734 16.0586H26.6963V42.8046H32.1734V16.0586Z" fill="#004287"/>
<path d="M53.6357 36.9906C52.1754 37.8821 50.8148 38.3293 49.5929 38.3293C47.8225 38.3293 47.022 37.3957 47.022 35.314V21.1204H52.6025V16.0856H47.022V7.76172L41.6511 10.6363V16.0856H37.0176V21.1204H41.6511V36.2198C41.6511 40.3315 44.089 43.1419 47.7267 43.2156C50.1952 43.2654 51.6861 42.529 52.5881 41.989L52.6418 41.9516L53.9603 36.7962L53.6357 36.9906Z" fill="#004287"/>
<path d="M63.6572 16.0586H58.1753V42.8046H63.6572V16.0586Z" fill="#004287"/>
<path d="M75.5308 12.74C75.5308 14.1265 74.4775 15.1836 73.0881 15.1836C71.6987 15.1836 70.6445 14.1275 70.6445 12.74C70.6445 11.3525 71.7026 10.2954 73.0881 10.2954C74.4737 10.2954 75.5308 11.3525 75.5308 12.74ZM76 12.74C76 11.0873 74.7428 9.82812 73.0881 9.82812C71.4335 9.82812 70.1753 11.0873 70.1753 12.74C70.1753 14.3927 71.4345 15.6509 73.0881 15.6509C74.7418 15.6509 76 14.3918 76 12.74ZM74.4191 12.0534C74.4191 11.3927 73.9451 11.094 73.3802 11.094H71.9841V14.2711H72.5232V13.0445H73.137L73.7575 14.2711H74.3952L73.7431 12.988C74.1539 12.8683 74.4201 12.5523 74.4201 12.0534M73.8724 12.0688C73.8724 12.3848 73.654 12.5217 73.3639 12.5217H72.5241V11.6168H73.3639C73.6531 11.6168 73.8724 11.7719 73.8724 12.0688Z" fill="#004287"/>
</svg>
