<svg width="46" height="52" viewBox="0 0 46 52" fill="none" xmlns="http://www.w3.org/2000/svg">
<path fill-rule="evenodd" clip-rule="evenodd" d="M8 4H38C40.2091 4 42 5.79086 42 8V44C42 46.2091 40.2091 48 38 48H29.9297C30.6104 46.8233 31 45.4571 31 44V42C31 37.5817 27.4183 34 23 34C18.5817 34 15 37.5817 15 42V44C15 45.4571 15.3896 46.8233 16.0703 48H8C5.79086 48 4 46.2091 4 44V8C4 5.79086 5.79086 4 8 4ZM23 52H38C42.4183 52 46 48.4183 46 44V8C46 3.58172 42.4183 0 38 0H8C3.58172 0 0 3.58172 0 8V44C0 48.4183 3.58172 52 8 52H23ZM23 48C25.2091 48 27 46.2091 27 44V42C27 39.7909 25.2091 38 23 38C20.7909 38 19 39.7909 19 42V44C19 46.2091 20.7909 48 23 48ZM10 13C10 11.8954 10.8954 11 12 11H19C20.1046 11 21 11.8954 21 13C21 14.1046 20.1046 15 19 15H12C10.8954 15 10 14.1046 10 13ZM27 11C25.8954 11 25 11.8954 25 13C25 14.1046 25.8954 15 27 15H34C35.1046 15 36 14.1046 36 13C36 11.8954 35.1046 11 34 11H27ZM10 20C10 18.8954 10.8954 18 12 18H19C20.1046 18 21 18.8954 21 20C21 21.1046 20.1046 22 19 22H12C10.8954 22 10 21.1046 10 20ZM27 18C25.8954 18 25 18.8954 25 20C25 21.1046 25.8954 22 27 22H34C35.1046 22 36 21.1046 36 20C36 18.8954 35.1046 18 34 18H27ZM10 27C10 25.8954 10.8954 25 12 25H19C20.1046 25 21 25.8954 21 27C21 28.1046 20.1046 29 19 29H12C10.8954 29 10 28.1046 10 27ZM27 25C25.8954 25 25 25.8954 25 27C25 28.1046 25.8954 29 27 29H34C35.1046 29 36 28.1046 36 27C36 25.8954 35.1046 25 34 25H27Z" fill="#262D39"/>
</svg>
