<svg width="50" height="55" viewBox="0 0 50 55" fill="none" xmlns="http://www.w3.org/2000/svg">
<path fill-rule="evenodd" clip-rule="evenodd" d="M39.999 4H19.999C17.026 4 14.5581 6.16229 14.082 9H30C35.5228 9 40 13.4772 40 19V42C43.3133 41.9995 45.999 39.3134 45.999 36V10C45.999 6.68629 43.3127 4 39.999 4ZM39.9506 46H39.999C45.5219 46 49.999 41.5228 49.999 36V10C49.999 4.47715 45.5219 0 39.999 0H19.999C14.8137 0 10.5501 3.94668 10.0484 9H10C4.47715 9 0 13.4772 0 19V45C0 50.5228 4.47715 55 10 55H30C35.1853 55 39.4489 51.0533 39.9506 46ZM10 13H30C33.3137 13 36 15.6863 36 19V45C36 48.3137 33.3137 51 30 51H10C6.68629 51 4 48.3137 4 45V19C4 15.6863 6.68629 13 10 13Z" fill="#11141B"/>
</svg>
