<svg width="72" height="59" viewBox="0 0 72 59" fill="none" xmlns="http://www.w3.org/2000/svg">
<path fill-rule="evenodd" clip-rule="evenodd" d="M0 10C0 4.47716 4.47715 0 10 0H62C67.5229 0 72 4.47715 72 10V23.5385C68.9412 23.5385 66.4615 26.0181 66.4615 29.0769C66.4615 32.1357 68.9412 34.6154 72 34.6154V48.1538C72 53.6767 67.5229 58.1538 62 58.1538H10C4.47715 58.1538 0 53.6767 0 48.1538V34.6154C3.05881 34.6154 5.53846 32.1357 5.53846 29.0769C5.53846 26.0181 3.05881 23.5385 0 23.5385V10Z" fill="#337EFB"/>
<mask id="path-2-inside-1_215_2419" fill="white">
<path fill-rule="evenodd" clip-rule="evenodd" d="M41.9978 42.5309C44.1319 44.3372 47.3589 42.4995 46.8943 39.7425L45.8871 33.7652C45.7112 32.7214 46.0984 31.6622 46.906 30.9779L50.1355 28.2415C52.2686 26.434 50.9876 22.9485 48.1917 22.9526L43.549 22.9595C42.288 22.9614 41.1604 22.1745 40.7271 20.9902L38.9602 16.1607C37.9996 13.535 34.2861 13.535 33.3255 16.1607L31.5586 20.9901C31.1254 22.1743 29.9978 22.9612 28.7368 22.9593L24.0105 22.9523C21.2146 22.9482 19.9335 26.4337 22.0666 28.2412L25.9603 31.5403C26.7678 32.2246 27.155 33.2837 26.9792 34.3274L26.0676 39.74C25.6032 42.497 28.8303 44.3344 30.9643 42.5279L34.5407 39.5004C35.6594 38.5534 37.2985 38.5533 38.4172 39.5002L41.9978 42.5309Z"/>
</mask>
<path fill-rule="evenodd" clip-rule="evenodd" d="M41.9978 42.5309C44.1319 44.3372 47.3589 42.4995 46.8943 39.7425L45.8871 33.7652C45.7112 32.7214 46.0984 31.6622 46.906 30.9779L50.1355 28.2415C52.2686 26.434 50.9876 22.9485 48.1917 22.9526L43.549 22.9595C42.288 22.9614 41.1604 22.1745 40.7271 20.9902L38.9602 16.1607C37.9996 13.535 34.2861 13.535 33.3255 16.1607L31.5586 20.9901C31.1254 22.1743 29.9978 22.9612 28.7368 22.9593L24.0105 22.9523C21.2146 22.9482 19.9335 26.4337 22.0666 28.2412L25.9603 31.5403C26.7678 32.2246 27.155 33.2837 26.9792 34.3274L26.0676 39.74C25.6032 42.497 28.8303 44.3344 30.9643 42.5279L34.5407 39.5004C35.6594 38.5534 37.2985 38.5533 38.4172 39.5002L41.9978 42.5309Z" fill="#FFC424"/>
<path d="M38.4172 39.5002L41.0014 36.447L38.4172 39.5002ZM30.9643 42.5279L28.3798 39.475L30.9643 42.5279ZM25.9603 31.5403L23.3744 34.5921L25.9603 31.5403ZM24.0105 22.9523L24.0046 26.9523L24.0105 22.9523ZM22.0666 28.2412L19.4808 31.2929L22.0666 28.2412ZM31.5586 20.9901L27.8021 19.6158L31.5586 20.9901ZM28.7368 22.9593L28.7309 26.9593L28.7368 22.9593ZM38.9602 16.1607L35.2037 17.535L38.9602 16.1607ZM33.3255 16.1607L29.569 14.7863L33.3255 16.1607ZM50.1355 28.2415L47.5497 25.1897L50.1355 28.2415ZM48.1917 22.9526L48.1858 18.9526L48.1917 22.9526ZM41.9978 42.5309L39.4136 45.584L41.9978 42.5309ZM45.8871 33.7652L41.9427 34.4299L45.8871 33.7652ZM46.906 30.9779L49.4918 34.0297L46.906 30.9779ZM41.9427 34.4299L42.9499 40.4072L50.8387 39.0779L49.8315 33.1006L41.9427 34.4299ZM47.5497 25.1897L44.3202 27.9261L49.4918 34.0297L52.7214 31.2933L47.5497 25.1897ZM43.5549 26.9595L48.1976 26.9526L48.1858 18.9526L43.543 18.9595L43.5549 26.9595ZM35.2037 17.535L36.9707 22.3646L44.4836 19.6159L42.7167 14.7863L35.2037 17.535ZM35.3151 22.3644L37.082 17.535L29.569 14.7863L27.8021 19.6158L35.3151 22.3644ZM24.0046 26.9523L28.7309 26.9593L28.7427 18.9593L24.0164 18.9523L24.0046 26.9523ZM28.5461 28.4885L24.6525 25.1894L19.4808 31.2929L23.3744 34.5921L28.5461 28.4885ZM30.012 40.4043L30.9237 34.9918L23.0348 33.6631L22.1231 39.0756L30.012 40.4043ZM31.9563 36.4474L28.3798 39.475L33.5487 45.5809L37.1252 42.5533L31.9563 36.4474ZM44.582 39.4777L41.0014 36.447L35.833 42.5534L39.4136 45.584L44.582 39.4777ZM37.1252 42.5533C36.7523 42.869 36.2059 42.869 35.833 42.5534L41.0014 36.447C38.3911 34.2376 34.5664 34.2378 31.9563 36.4474L37.1252 42.5533ZM22.1231 39.0756C21.0396 45.5087 28.5695 49.796 33.5487 45.5809L28.3798 39.475C28.5063 39.3679 28.7213 39.267 28.9742 39.2506C29.2005 39.2358 29.3855 39.2922 29.5207 39.3692C29.6559 39.4462 29.7988 39.5765 29.9017 39.7787C30.0166 40.0044 30.0396 40.2408 30.012 40.4043L22.1231 39.0756ZM23.3744 34.5921C23.1052 34.364 22.9762 34.011 23.0348 33.6631L30.9237 34.9918C31.3338 32.5564 30.4303 30.0851 28.5461 28.4885L23.3744 34.5921ZM24.0164 18.9523C17.4927 18.9427 14.5035 27.0756 19.4808 31.2929L24.6525 25.1894C24.779 25.2965 24.9139 25.492 24.9717 25.7387C25.0235 25.9595 24.9983 26.1513 24.9446 26.2973C24.891 26.4434 24.786 26.6057 24.6035 26.7405C24.3997 26.891 24.1703 26.9526 24.0046 26.9523L24.0164 18.9523ZM27.8021 19.6158C27.9465 19.221 28.3224 18.9587 28.7427 18.9593L28.7309 26.9593C31.6732 26.9637 34.3042 25.1276 35.3151 22.3644L27.8021 19.6158ZM42.7167 14.7863C40.4753 8.65978 31.8104 8.65974 29.569 14.7863L37.082 17.535C37.025 17.6907 36.8881 17.8847 36.6765 18.0241C36.4871 18.1489 36.2985 18.1914 36.1428 18.1914C35.9872 18.1914 35.7986 18.1489 35.6092 18.0241C35.3976 17.8847 35.2607 17.6907 35.2037 17.535L42.7167 14.7863ZM43.543 18.9595C43.9634 18.9589 44.3392 19.2212 44.4836 19.6159L36.9707 22.3646C37.9816 25.1278 40.6126 26.9639 43.5549 26.9595L43.543 18.9595ZM52.7214 31.2933C57.6986 27.0759 54.7095 18.943 48.1858 18.9526L48.1976 26.9526C48.0319 26.9529 47.8025 26.8913 47.5987 26.7408C47.4162 26.606 47.3112 26.4436 47.2575 26.2976C47.2039 26.1515 47.1787 25.9598 47.2305 25.739C47.2883 25.4923 47.4232 25.2968 47.5497 25.1897L52.7214 31.2933ZM42.9499 40.4072C42.9223 40.2437 42.9453 40.0073 43.0602 39.7815C43.1631 39.5793 43.3059 39.449 43.4411 39.372C43.5764 39.295 43.7613 39.2386 43.9877 39.2533C44.2405 39.2697 44.4555 39.3706 44.582 39.4777L39.4136 45.584C44.3931 49.7987 51.9227 45.5109 50.8387 39.0779L42.9499 40.4072ZM49.8315 33.1006C49.8901 33.4485 49.761 33.8016 49.4918 34.0297L44.3202 27.9261C42.4358 29.5228 41.5323 31.9944 41.9427 34.4299L49.8315 33.1006Z" fill="#FFC424" mask="url(#path-2-inside-1_215_2419)"/>
</svg>
