<svg width="70" height="70" viewBox="0 0 70 70" fill="none" xmlns="http://www.w3.org/2000/svg">
<circle cx="35" cy="35" r="35" fill="#F3F4F5"/>
<path fill-rule="evenodd" clip-rule="evenodd" d="M47.8347 21.3787C46.6632 20.2071 44.7637 20.2071 43.5921 21.3787L35.1067 29.8641L26.6213 21.3787C25.4497 20.2071 23.5503 20.2071 22.3787 21.3787C21.2071 22.5503 21.2071 24.4498 22.3787 25.6214L30.864 34.1067L22.3789 42.5919C21.2073 43.7635 21.2073 45.663 22.3789 46.8345C23.5505 48.0061 25.45 48.0061 26.6215 46.8345L35.1067 38.3494L43.5919 46.8346C44.7635 48.0061 46.663 48.0061 47.8345 46.8346C49.0061 45.663 49.0061 43.7635 47.8345 42.5919L39.3493 34.1067L47.8347 25.6213C49.0063 24.4497 49.0063 22.5503 47.8347 21.3787Z" fill="#6E7175"/>
</svg>
