<svg width="110" height="149" viewBox="0 0 110 149" fill="none" xmlns="http://www.w3.org/2000/svg">
<ellipse cx="55" cy="145" rx="11" ry="4" fill="#1E1C1C"/>
<mask id="path-2-inside-1_115_29" fill="white">
<path fill-rule="evenodd" clip-rule="evenodd" d="M103.101 81.6904C107.496 73.7862 110 64.6855 110 55C110 24.6243 85.3757 0 55 0C24.6243 0 0 24.6243 0 55C0 64.6855 2.50355 73.7862 6.89882 81.6904C6.94473 82.2235 7.1382 82.759 7.50622 83.2426L9.22704 85.5037C10.4916 87.3976 11.8706 89.2085 13.3541 90.9266L52.6127 142.511C53.8133 144.089 56.1867 144.089 57.3873 142.511L96.6462 90.9263C98.1294 89.2084 99.5082 87.3977 100.773 85.5042L102.494 83.2426C102.862 82.759 103.055 82.2235 103.101 81.6904Z"/>
</mask>
<path fill-rule="evenodd" clip-rule="evenodd" d="M103.101 81.6904C107.496 73.7862 110 64.6855 110 55C110 24.6243 85.3757 0 55 0C24.6243 0 0 24.6243 0 55C0 64.6855 2.50355 73.7862 6.89882 81.6904C6.94473 82.2235 7.1382 82.759 7.50622 83.2426L9.22704 85.5037C10.4916 87.3976 11.8706 89.2085 13.3541 90.9266L52.6127 142.511C53.8133 144.089 56.1867 144.089 57.3873 142.511L96.6462 90.9263C98.1294 89.2084 99.5082 87.3977 100.773 85.5042L102.494 83.2426C102.862 82.759 103.055 82.2235 103.101 81.6904Z" fill="#F75842"/>
<path d="M103.101 81.6904L100.479 80.2324L100.167 80.7935L100.112 81.4331L103.101 81.6904ZM6.89882 81.6904L9.88776 81.4331L9.83269 80.7935L9.52072 80.2325L6.89882 81.6904ZM7.50622 83.2426L5.11894 85.0595L5.11895 85.0595L7.50622 83.2426ZM9.22704 85.5037L11.722 83.8378L11.6705 83.7607L11.6143 83.6869L9.22704 85.5037ZM13.3541 90.9266L15.7414 89.1098L15.6854 89.0361L15.6248 88.966L13.3541 90.9266ZM52.6127 142.511L50.2254 144.328H50.2254L52.6127 142.511ZM57.3873 142.511L55 140.695L57.3873 142.511ZM96.6462 90.9263L94.3755 88.9657L94.315 89.0358L94.2589 89.1094L96.6462 90.9263ZM100.773 85.5042L98.3854 83.6874L98.3292 83.7611L98.2778 83.8382L100.773 85.5042ZM102.494 83.2426L100.107 81.4258L102.494 83.2426ZM107 55C107 64.1623 104.633 72.7627 100.479 80.2324L105.723 83.1483C110.36 74.8097 113 65.2086 113 55H107ZM55 3C83.7188 3 107 26.2812 107 55H113C113 22.9675 87.0325 -3 55 -3V3ZM3 55C3 26.2812 26.2812 3 55 3V-3C22.9675 -3 -3 22.9675 -3 55H3ZM9.52072 80.2325C5.36705 72.7628 3 64.1623 3 55H-3C-3 65.2087 -0.359949 74.8097 4.27692 83.1484L9.52072 80.2325ZM9.8935 81.4258C9.88656 81.4167 9.88329 81.4111 9.88226 81.4092C9.88123 81.4074 9.88166 81.4079 9.88271 81.4106C9.88374 81.4133 9.8849 81.4169 9.88589 81.4212C9.88686 81.4255 9.88746 81.4295 9.88776 81.4331L3.90988 81.9478C4.00387 83.0392 4.40185 84.1172 5.11894 85.0595L9.8935 81.4258ZM11.6143 83.6869L9.8935 81.4258L5.11895 85.0595L6.83977 87.3206L11.6143 83.6869ZM15.6248 88.966C14.2218 87.3411 12.9177 85.6285 11.722 83.8378L6.73213 87.1697C8.06556 89.1666 9.51948 91.0759 11.0835 92.8873L15.6248 88.966ZM55 140.695L15.7414 89.1098L10.9669 92.7435L50.2254 144.328L55 140.695ZM55 140.695H55L50.2254 144.328C52.6266 147.483 57.3734 147.483 59.7745 144.328L55 140.695ZM94.2589 89.1094L55 140.695L59.7745 144.328L99.0334 92.7431L94.2589 89.1094ZM98.2778 83.8382C97.0822 85.6287 95.7783 87.341 94.3755 88.9657L98.9169 92.8869C100.481 91.0758 101.934 89.1668 103.268 87.1702L98.2778 83.8382ZM100.107 81.4258L98.3854 83.6874L103.16 87.321L104.881 85.0595L100.107 81.4258ZM100.112 81.4331C100.113 81.4295 100.113 81.4255 100.114 81.4213C100.115 81.417 100.116 81.4133 100.117 81.4106C100.118 81.4079 100.119 81.4074 100.118 81.4092C100.117 81.4111 100.113 81.4167 100.107 81.4258L104.881 85.0595C105.598 84.1172 105.996 83.0391 106.09 81.9477L100.112 81.4331Z" fill="white" mask="url(#path-2-inside-1_115_29)"/>
<path d="M39.4649 62.71H34.9737V57.2549H39.4649V62.71ZM54.087 57.9727H20.4132V54.5889H54.087V57.9727ZM39.4444 42.9814H34.9532V38.4902H39.4444V42.9814ZM38.6856 43.9043C38.6856 45.7227 38.0567 47.3086 36.7989 48.6621C35.5411 50.0156 33.7501 51.0889 31.4259 51.8818C29.1016 52.6748 26.3468 53.1738 23.1612 53.3789L21.8897 49.9746C24.6104 49.8516 26.9278 49.5098 28.8419 48.9492C30.7696 48.375 32.2188 47.6572 33.1895 46.7959C34.1739 45.9346 34.6661 44.9707 34.6661 43.9043V43.2275H38.6856V43.9043ZM39.752 43.9043C39.7384 44.9707 40.2237 45.9346 41.2081 46.7959C42.1925 47.6572 43.6417 48.375 45.5557 48.9492C47.4835 49.5098 49.8145 49.8516 52.5489 49.9746L51.2159 53.3789C48.0577 53.1738 45.3165 52.6748 42.9923 51.8818C40.668 51.0752 38.877 50.002 37.6192 48.6621C36.3614 47.3086 35.7325 45.7227 35.7325 43.9043V43.2275H39.752V43.9043ZM50.8057 45.0117H23.6944V41.5869H50.8057V45.0117ZM49.9444 69.3545H28.8624V73.2715H24.3507V66.2578H45.4327V63.9814H24.3302V60.6797H49.9444V69.3545ZM50.9493 75.3223H24.3507V71.918H50.9493V75.3223ZM61.5732 44.9297H70.2275V40.2129H74.7802V56.373H57.082V40.2129H61.5732V44.9297ZM70.2275 52.7432V48.375H61.5732V52.7432H70.2275ZM85.0546 57.542H80.5019V38.5723H85.0546V57.542ZM90.2431 49.79H83.1269V46.0576H90.2431V49.79ZM85.0546 68.7393H65.3466V73.5586H60.8554V65.417H80.5019V62.6074H60.7939V59.0391H85.0546V68.7393ZM86.2236 75.3223H60.8554V71.6924H86.2236V75.3223Z" fill="white"/>
</svg>
