<svg width="72" height="69" viewBox="0 0 72 69" fill="none" xmlns="http://www.w3.org/2000/svg">
<path d="M17.332 0.869951C15.4123 1.8226 13.9689 3.48253 13.2905 5.51774L0.415232 44.2301C-0.263172 46.2653 -0.104396 48.4593 0.848256 50.379C1.81534 52.2843 3.47527 53.7277 5.49605 54.4061L47.7159 68.5805C49.78 69.2589 51.9451 69.1145 53.8793 68.1474C55.8134 67.1804 57.2424 65.5349 57.9208 63.4852L70.8105 24.7873C72.2106 20.587 69.9156 16.0114 65.7008 14.5968L23.481 0.408058C21.4313 -0.255912 19.2518 -0.11157 17.332 0.855516" fill="white"/>
<path d="M37.9728 38.0362C35.6778 40.6055 32.8054 42.6551 29.5144 43.9398L27.5947 44.6759V26.7487L29.4855 27.4849C32.8054 28.7551 35.6778 30.8192 37.9872 33.374C39.6183 30.7326 40.6431 27.6725 40.8452 24.3382C41.3648 15.7355 35.9809 7.85445 28.5762 5.11197L22.485 3.07676C19.7281 2.16741 16.8124 3.68299 15.8886 6.42548L2.95559 45.1378C2.04624 47.8947 3.59069 50.8826 6.34761 51.792L35.6633 61.5783C38.6656 58.4028 40.5998 54.188 40.8741 49.4825C41.1339 45.2966 40.0513 41.3561 37.9728 38.0362ZM21.0127 45.7873H18.1114V25.6806H21.0127V45.7873Z" fill="#0098D9"/>
<path d="M36.2698 35.6977C34.6387 33.778 32.6612 32.1758 30.3662 30.9922V40.4465C32.6612 39.2629 34.6387 37.6319 36.2698 35.6977Z" fill="#E9500E"/>
<path d="M64.7768 17.1812L37.8716 8.20312C41.4801 12.1581 43.703 17.3977 43.703 23.1713C43.703 27.7181 42.3029 32.0772 39.8202 35.7146C42.3029 39.3375 43.7318 43.6967 43.7318 48.2434C43.7318 53.6851 41.7977 58.6793 38.5356 62.5476L48.6394 65.9252C51.3964 66.849 54.3121 65.3334 55.2214 62.5765L68.1544 23.8497C69.0637 21.0928 67.5193 18.1049 64.7624 17.1956M57.6319 45.7319H54.0089L46.5321 35.6857L54.11 25.6396H57.7762L50.1695 35.7146L57.6319 45.7463V45.7319Z" fill="#004C99"/>
</svg>
