<svg width="66" height="64" viewBox="0 0 66 64" fill="none" xmlns="http://www.w3.org/2000/svg">
<mask id="path-1-inside-1_210_887" fill="white">
<path fill-rule="evenodd" clip-rule="evenodd" d="M47.0361 61.8431C50.5929 64.8536 55.9712 61.7909 55.1969 57.1958L52.5339 41.3925C52.2408 39.6528 52.8862 37.8874 54.2321 36.7469L63.6177 28.7944C67.1729 25.782 65.0378 19.9727 60.378 19.9796L47.0959 19.9993C44.9942 20.0024 43.1149 18.6909 42.3929 16.7172L37.4776 3.28209C35.8765 -1.09403 29.6873 -1.09403 28.0863 3.28209L23.171 16.7173C22.4489 18.691 20.5697 20.0025 18.468 19.9994L5.01748 19.9794C0.357683 19.9725 -1.77743 25.7818 1.77774 28.7941L12.517 37.8938C13.8629 39.0342 14.5082 40.7994 14.2152 42.5389L11.7464 57.1969C10.9725 61.792 16.351 64.8543 19.9076 61.8435L30.2407 53.0961C32.1051 51.5178 34.837 51.5177 36.7016 53.0959L47.0361 61.8431Z"/>
</mask>
<path d="M30.2407 53.0961L32.8252 56.1491L30.2407 53.0961ZM36.7016 53.0959L34.1174 56.1491L36.7016 53.0959ZM11.7464 57.1969L7.802 56.5325L11.7464 57.1969ZM19.9076 61.8435L17.3231 58.7906L19.9076 61.8435ZM12.517 37.8938L9.93114 40.9456L12.517 37.8938ZM5.01748 19.9794L5.01154 23.9794L5.01748 19.9794ZM18.468 19.9994L18.4739 15.9994L18.468 19.9994ZM28.0863 3.28209L24.3298 1.90777L28.0863 3.28209ZM47.0959 19.9993L47.09 15.9993L47.0959 19.9993ZM42.3929 16.7172L38.6364 18.0915L42.3929 16.7172ZM63.6177 28.7944L66.2035 31.8462L63.6177 28.7944ZM47.0361 61.8431L49.6204 58.7899L47.0361 61.8431ZM52.5339 41.3925L56.4783 40.7278L52.5339 41.3925ZM54.2321 36.7469L51.6463 33.6951L54.2321 36.7469ZM48.5896 42.0571L51.2525 57.8605L59.1413 56.5312L56.4783 40.7278L48.5896 42.0571ZM61.0318 25.7426L51.6463 33.6951L56.818 39.7987L66.2035 31.8462L61.0318 25.7426ZM47.1018 23.9993L60.3839 23.9796L60.3721 15.9796L47.09 15.9993L47.1018 23.9993ZM33.7211 4.65642L38.6364 18.0915L46.1493 15.3429L41.2341 1.90776L33.7211 4.65642ZM26.9275 18.0916L31.8428 4.65642L24.3298 1.90777L19.4145 15.343L26.9275 18.0916ZM5.01154 23.9794L18.4621 23.9994L18.4739 15.9994L5.02341 15.9794L5.01154 23.9794ZM15.1028 34.842L4.36359 25.7424L-0.80811 31.8459L9.93114 40.9456L15.1028 34.842ZM15.6909 57.8612L18.1597 43.2033L10.2708 41.8746L7.802 56.5325L15.6909 57.8612ZM27.6563 50.0432L17.3231 58.7906L22.492 64.8965L32.8252 56.1491L27.6563 50.0432ZM49.6204 58.7899L39.2858 50.0427L34.1174 56.1491L44.4519 64.8963L49.6204 58.7899ZM32.8252 56.1491C33.1981 55.8334 33.7444 55.8334 34.1174 56.1491L39.2858 50.0427C35.9296 47.202 31.0122 47.2022 27.6563 50.0432L32.8252 56.1491ZM7.802 56.5325C6.40892 64.8037 16.0902 70.3159 22.492 64.8965L17.3231 58.7906C17.094 58.9846 16.9078 59.0329 16.7637 59.0423C16.5931 59.0534 16.3855 59.0121 16.1822 58.8964C15.9789 58.7806 15.8375 58.6231 15.76 58.4708C15.6945 58.3421 15.641 58.1573 15.6909 57.8612L7.802 56.5325ZM9.93114 40.9456C10.2003 41.1736 10.3294 41.5267 10.2708 41.8746L18.1597 43.2033C18.6871 40.0721 17.5254 36.8947 15.1028 34.842L9.93114 40.9456ZM5.02341 15.9794C-3.3642 15.967 -7.20743 26.4236 -0.80811 31.8459L4.36359 25.7424C4.13455 25.5483 4.05619 25.3726 4.02323 25.232C3.98423 25.0656 3.99075 24.854 4.07144 24.6345C4.15213 24.4149 4.28421 24.2494 4.42169 24.1479C4.53785 24.0621 4.71133 23.979 5.01154 23.9794L5.02341 15.9794ZM19.4145 15.343C19.2701 15.7377 18.8943 16 18.4739 15.9994L18.4621 23.9994C22.2451 24.005 25.6278 21.6443 26.9275 18.0916L19.4145 15.343ZM41.2341 1.90776C38.3522 -5.96925 27.2117 -5.96926 24.3298 1.90777L31.8428 4.65642C31.946 4.37448 32.0838 4.24033 32.2044 4.16089C32.3472 4.06688 32.548 4 32.7819 4C33.0159 4 33.2167 4.06688 33.3595 4.16089C33.48 4.24033 33.6179 4.37448 33.7211 4.65642L41.2341 1.90776ZM47.09 15.9993C46.6696 15.9999 46.2938 15.7376 46.1493 15.3429L38.6364 18.0915C39.9361 21.6442 43.3188 24.0049 47.1018 23.9993L47.09 15.9993ZM66.2035 31.8462C72.6028 26.4239 68.7597 15.9672 60.3721 15.9796L60.3839 23.9796C60.6841 23.9792 60.8576 24.0623 60.9738 24.1481C61.1112 24.2496 61.2433 24.4151 61.324 24.6347C61.4047 24.8542 61.4112 25.0658 61.3722 25.2322C61.3392 25.3728 61.2609 25.5485 61.0318 25.7426L66.2035 31.8462ZM51.2525 57.8605C51.3024 58.1565 51.249 58.3413 51.1835 58.47C51.106 58.6224 50.9645 58.7799 50.7613 58.8956C50.558 59.0114 50.3503 59.0527 50.1798 59.0416C50.0357 59.0322 49.8495 58.9839 49.6204 58.7899L44.4519 64.8963C50.8541 70.3151 60.535 64.8022 59.1413 56.5312L51.2525 57.8605ZM56.4783 40.7278C56.4197 40.3799 56.5488 40.0268 56.818 39.7987L51.6463 33.6951C49.2235 35.748 48.0619 38.9257 48.5896 42.0571L56.4783 40.7278Z" fill="#232A37" mask="url(#path-1-inside-1_210_887)"/>
</svg>
