<svg width="60" height="58" viewBox="0 0 60 58" fill="none" xmlns="http://www.w3.org/2000/svg">
<mask id="path-1-inside-1_158_602" fill="white">
<path fill-rule="evenodd" clip-rule="evenodd" d="M42.535 55.9655C46.0918 58.976 51.47 55.9133 50.6958 51.3182L48.445 37.961C48.1518 36.2213 48.7972 34.4559 50.1432 33.3154L57.8523 26.7833C61.4075 23.7709 59.2724 17.9617 54.6126 17.9686L43.6531 17.9848C41.5514 17.9879 39.6722 16.6764 38.9501 14.7027L34.8597 3.52233C33.2586 -0.853796 27.0695 -0.853796 25.4684 3.52233L21.378 14.7029C20.6559 16.6766 18.7766 17.9881 16.675 17.985L5.55834 17.9685C0.898552 17.9616 -1.23655 23.7709 2.31862 26.7832L11.2784 34.375C12.6242 35.5154 13.2696 37.2807 12.9766 39.0202L10.9053 51.3182C10.1313 55.9133 15.5098 58.9756 19.0664 55.9649L27.5691 48.767C29.4335 47.1888 32.1654 47.1886 34.0299 48.7668L42.535 55.9655Z"/>
</mask>
<path d="M27.5691 48.767L24.9846 45.7141L27.5691 48.767ZM34.0299 48.7668L31.4457 51.82L34.0299 48.7668ZM11.2784 34.375L8.6925 37.4268L11.2784 34.375ZM2.31862 26.7832L-0.267228 29.835L2.31862 26.7832ZM34.8597 3.52233L31.1032 4.89665L34.8597 3.52233ZM43.6531 17.9848L43.6472 13.9848L43.6531 17.9848ZM38.9501 14.7027L42.7066 13.3284L38.9501 14.7027ZM50.6958 51.3182L46.7514 51.9829L50.6958 51.3182ZM42.535 55.9655L39.9508 59.0187L42.535 55.9655ZM48.445 37.961L44.5006 38.6256L48.445 37.961ZM50.1432 33.3154L47.5573 30.2636L50.1432 33.3154ZM44.5006 38.6256L46.7514 51.9829L54.6401 50.6536L52.3894 37.2963L44.5006 38.6256ZM55.2665 23.7315L47.5573 30.2636L52.729 36.3672L60.4382 29.8351L55.2665 23.7315ZM43.659 21.9848L54.6185 21.9686L54.6067 13.9686L43.6472 13.9848L43.659 21.9848ZM31.1032 4.89665L35.1936 16.0771L42.7066 13.3284L38.6162 2.148L31.1032 4.89665ZM25.1345 16.0772L29.2249 4.89665L21.712 2.148L17.6215 13.3286L25.1345 16.0772ZM5.55241 21.9685L16.669 21.985L16.6809 13.985L5.56428 13.9685L5.55241 21.9685ZM13.8642 31.3233L4.90447 23.7315L-0.267228 29.835L8.6925 37.4268L13.8642 31.3233ZM14.8497 51.9826L16.921 39.6846L9.03215 38.3559L6.96083 50.6539L14.8497 51.9826ZM24.9846 45.7141L16.4819 52.9119L21.6508 59.0179L30.1535 51.82L24.9846 45.7141ZM45.1192 52.9124L36.6141 45.7136L31.4457 51.82L39.9508 59.0187L45.1192 52.9124ZM30.1535 51.82C30.5264 51.5044 31.0728 51.5043 31.4457 51.82L36.6141 45.7136C33.258 42.873 28.3406 42.8731 24.9846 45.7141L30.1535 51.82ZM6.96083 50.6539C5.56775 58.925 15.2491 64.4372 21.6508 59.0179L16.4819 52.9119C16.2528 53.1059 16.0666 53.1542 15.9225 53.1636C15.752 53.1747 15.5443 53.1334 15.341 53.0177C15.1378 52.902 14.9963 52.7444 14.9188 52.5921C14.8533 52.4634 14.7999 52.2786 14.8497 51.9826L6.96083 50.6539ZM8.6925 37.4268C8.96168 37.6549 9.09075 38.0079 9.03215 38.3559L16.921 39.6846C17.4484 36.5534 16.2868 33.376 13.8642 31.3233L8.6925 37.4268ZM5.56428 13.9685C-2.82337 13.9561 -6.66653 24.4127 -0.267228 29.835L4.90447 23.7315C4.67543 23.5374 4.59707 23.3617 4.56411 23.2211C4.5251 23.0547 4.53163 22.8431 4.61232 22.6235C4.69301 22.404 4.82509 22.2385 4.96256 22.137C5.07872 22.0512 5.2522 21.9681 5.55241 21.9685L5.56428 13.9685ZM17.6215 13.3286C17.4771 13.7233 17.1012 13.9856 16.6809 13.985L16.669 21.985C20.452 21.9906 23.8347 19.6299 25.1345 16.0772L17.6215 13.3286ZM38.6162 2.148C35.7343 -5.72902 24.5938 -5.72903 21.712 2.148L29.2249 4.89665C29.3281 4.61472 29.466 4.48056 29.5865 4.40113C29.7293 4.30711 29.9302 4.24023 30.1641 4.24023C30.398 4.24023 30.5989 4.30711 30.7416 4.40113C30.8622 4.48057 31 4.61472 31.1032 4.89665L38.6162 2.148ZM43.6472 13.9848C43.2268 13.9854 42.851 13.7231 42.7066 13.3284L35.1936 16.0771C36.4934 19.6297 39.876 21.9904 43.659 21.9848L43.6472 13.9848ZM60.4382 29.8351C66.8375 24.4128 62.9943 13.9562 54.6067 13.9686L54.6185 21.9686C54.9188 21.9681 55.0922 22.0513 55.2084 22.1371C55.3459 22.2386 55.4779 22.4041 55.5586 22.6236C55.6393 22.8432 55.6458 23.0548 55.6068 23.2212C55.5739 23.3618 55.4955 23.5375 55.2665 23.7315L60.4382 29.8351ZM46.7514 51.9829C46.8012 52.2789 46.7478 52.4637 46.6823 52.5924C46.6048 52.7448 46.4634 52.9023 46.2601 53.018C46.0569 53.1338 45.8492 53.1751 45.6786 53.164C45.5345 53.1547 45.3484 53.1063 45.1192 52.9124L39.9508 59.0187C46.353 64.4375 56.0339 58.9246 54.6401 50.6536L46.7514 51.9829ZM52.3894 37.2963C52.3307 36.9484 52.4598 36.5953 52.729 36.3672L47.5573 30.2636C45.1345 32.3165 43.9729 35.4942 44.5006 38.6256L52.3894 37.2963Z" fill="#232A37" mask="url(#path-1-inside-1_158_602)"/>
</svg>
