<svg width="54" height="58" viewBox="0 0 54 58" fill="none" xmlns="http://www.w3.org/2000/svg">
<path fill-rule="evenodd" clip-rule="evenodd" d="M35 12C35 16.4183 31.4183 20 27 20C22.5817 20 19 16.4183 19 12C19 7.58172 22.5817 4 27 4C31.4183 4 35 7.58172 35 12ZM39 12C39 18.6274 33.6274 24 27 24C20.3726 24 15 18.6274 15 12C15 5.37258 20.3726 0 27 0C33.6274 0 39 5.37258 39 12ZM4 49C4 39.0589 12.0589 31 22 31H32C41.9411 31 50 39.0589 50 49V50C50 52.2091 48.2091 54 46 54H8C5.79086 54 4 52.2091 4 50V49ZM0 49C0 36.8497 9.84974 27 22 27H32C44.1503 27 54 36.8497 54 49V50C54 54.4183 50.4183 58 46 58H8C3.58172 58 0 54.4183 0 50V49Z" fill="#232A37"/>
</svg>
