<svg width="58" height="58" viewBox="0 0 58 58" fill="none" xmlns="http://www.w3.org/2000/svg">
<path fill-rule="evenodd" clip-rule="evenodd" d="M30.9333 4H40C47.732 4 54 10.268 54 18V23.2002H45.4333C43.8317 23.2002 42.5333 24.4986 42.5333 26.1002C42.5333 31.9728 47.294 36.7335 53.1667 36.7335H54V40C54 47.732 47.732 54 40 54H30.9333V33.8337C30.9333 32.766 30.0678 31.9004 29 31.9004C27.9323 31.9004 27.0667 32.766 27.0667 33.8337V54H18C10.268 54 4 47.732 4 40V35.7671H14.5C15.5677 35.7671 16.4333 34.9015 16.4333 33.8337C16.4333 32.766 15.5677 31.9004 14.5 31.9004H4V18C4 10.268 10.268 4 18 4H27.0667V18.3662H17.4C16.3322 18.3662 15.4667 19.2318 15.4667 20.2995C15.4667 21.3673 16.3322 22.2329 17.4 22.2329H28.9576C28.964 22.233 28.9705 22.2331 28.9769 22.2332C28.9846 22.2333 28.9923 22.2333 29 22.2333C30.0678 22.2333 30.9333 21.3678 30.9333 20.3L30.9333 20.2995L30.9333 4ZM0 33.8337V18C0 8.05887 8.05887 0 18 0H29H40C49.9411 0 58 8.05887 58 18V23.2002V27.2002V32.7335V36.7335V40C58 49.9411 49.9411 58 40 58H29.0392L29.0204 58.0003L29 58.0004C28.9869 58.0004 28.9738 58.0003 28.9608 58H18C8.05887 58 0 49.9411 0 40V33.8337ZM54 32.7335V27.2002H46.6241C47.1482 30.3402 49.8779 32.7335 53.1667 32.7335H54Z" fill="#232A37"/>
</svg>
