<svg width="57" height="58" viewBox="0 0 57 58" fill="none" xmlns="http://www.w3.org/2000/svg">
<mask id="path-1-inside-1_118_993" fill="white">
<path fill-rule="evenodd" clip-rule="evenodd" d="M34.7769 2.27011C31.1029 -0.71504 25.8391 -0.715033 22.1651 2.27011L4.77724 16.3977C2.90633 17.9179 1.78967 19.8239 1.32171 21.8187H0.743136C0.261346 23.2345 0 24.7523 0 26.3311V43.8847C0 51.6167 6.26802 57.8847 14 57.8847H42.9421C50.674 57.8847 56.9421 51.6167 56.9421 43.8847V26.3311C56.9421 24.7523 56.6807 23.2345 56.1989 21.8187H55.6203C55.1524 19.8239 54.0357 17.9179 52.1648 16.3977L34.7769 2.27011Z"/>
</mask>
<path fill-rule="evenodd" clip-rule="evenodd" d="M34.7769 2.27011C31.1029 -0.71504 25.8391 -0.715033 22.1651 2.27011L4.77724 16.3977C2.90633 17.9179 1.78967 19.8239 1.32171 21.8187H0.743136C0.261346 23.2345 0 24.7523 0 26.3311V43.8847C0 51.6167 6.26802 57.8847 14 57.8847H42.9421C50.674 57.8847 56.9421 51.6167 56.9421 43.8847V26.3311C56.9421 24.7523 56.6807 23.2345 56.1989 21.8187H55.6203C55.1524 19.8239 54.0357 17.9179 52.1648 16.3977L34.7769 2.27011Z" fill="#232A37"/>
<path d="M22.1651 2.27011L24.6874 5.37457V5.37457L22.1651 2.27011ZM34.7769 2.27011L37.2993 -0.834351V-0.834351L34.7769 2.27011ZM4.77724 16.3977L2.25487 13.2933L2.25487 13.2933L4.77724 16.3977ZM1.32171 21.8187V25.8187H4.49191L5.21598 22.7322L1.32171 21.8187ZM0.743136 21.8187V17.8187H-2.12097L-3.04363 20.5301L0.743136 21.8187ZM56.1989 21.8187L59.9857 20.5301L59.063 17.8187H56.1989V21.8187ZM55.6203 21.8187L51.7261 22.7323L52.4501 25.8187H55.6203V21.8187ZM52.1648 16.3977L54.6872 13.2933V13.2933L52.1648 16.3977ZM24.6874 5.37457C26.8919 3.58348 30.0502 3.58348 32.2546 5.37456L37.2993 -0.834351C32.1557 -5.01356 24.7863 -5.01355 19.6427 -0.834342L24.6874 5.37457ZM7.29961 19.5022L24.6874 5.37457L19.6427 -0.834342L2.25487 13.2933L7.29961 19.5022ZM5.21598 22.7322C5.48373 21.5909 6.12268 20.4585 7.29961 19.5022L2.25487 13.2933C-0.310027 15.3773 -1.90439 18.0569 -2.57256 20.9051L5.21598 22.7322ZM1.32171 17.8187H0.743136V25.8187H1.32171V17.8187ZM-3.04363 20.5301C-3.66476 22.3554 -4 24.3083 -4 26.3311H4C4 25.1963 4.18745 24.1136 4.5299 23.1072L-3.04363 20.5301ZM-4 26.3311V43.8847H4V26.3311H-4ZM-4 43.8847C-4 53.8259 4.05889 61.8847 14 61.8847V53.8847C8.47716 53.8847 4 49.4076 4 43.8847H-4ZM14 61.8847H42.9421V53.8847H14V61.8847ZM42.9421 61.8847C52.8832 61.8847 60.9421 53.8258 60.9421 43.8847H52.9421C52.9421 49.4076 48.4649 53.8847 42.9421 53.8847V61.8847ZM60.9421 43.8847V26.3311H52.9421V43.8847H60.9421ZM60.9421 26.3311C60.9421 24.3082 60.6068 22.3554 59.9857 20.5301L52.4122 23.1072C52.7546 24.1136 52.9421 25.1963 52.9421 26.3311H60.9421ZM56.1989 17.8187H55.6203V25.8187H56.1989V17.8187ZM49.6424 19.5022C50.8194 20.4585 51.4583 21.5909 51.7261 22.7323L59.5146 20.9051C58.8464 18.0569 57.2521 15.3773 54.6872 13.2933L49.6424 19.5022ZM32.2546 5.37456L49.6424 19.5022L54.6872 13.2933L37.2993 -0.834351L32.2546 5.37456Z" fill="#232A37" mask="url(#path-1-inside-1_118_993)"/>
<path fill-rule="evenodd" clip-rule="evenodd" d="M41.9726 26.5664L23.9515 26.5664L15.1847 41.751H33.2058L37.0413 35.1077H26.4139L27.5098 33.2096H38.1372L41.9726 26.5664Z" fill="white"/>
</svg>
