<svg width="57" height="59" viewBox="0 0 57 59" fill="none" xmlns="http://www.w3.org/2000/svg">
<mask id="path-1-inside-1_210_1053" fill="white">
<path fill-rule="evenodd" clip-rule="evenodd" d="M34.7113 3.06528C31.0725 0.181368 25.9274 0.181365 22.2887 3.06528L4.30576 17.3177C2.37617 18.847 1.22896 20.7859 0.754042 22.8182H0.743136C0.261346 24.234 0 25.7518 0 27.3306V44.8843C0 52.6163 6.26802 58.8843 14 58.8843H42.9421C50.674 58.8843 56.9421 52.6162 56.9421 44.8843V27.3306C56.9421 25.9065 56.7294 24.5321 56.3342 23.2373C55.9246 21.0536 54.7561 18.9519 52.6942 17.3177L34.7113 3.06528Z"/>
</mask>
<path fill-rule="evenodd" clip-rule="evenodd" d="M34.7113 3.06528C31.0725 0.181368 25.9274 0.181365 22.2887 3.06528L4.30576 17.3177C2.37617 18.847 1.22896 20.7859 0.754042 22.8182H0.743136C0.261346 24.234 0 25.7518 0 27.3306V44.8843C0 52.6163 6.26802 58.8843 14 58.8843H42.9421C50.674 58.8843 56.9421 52.6162 56.9421 44.8843V27.3306C56.9421 25.9065 56.7294 24.5321 56.3342 23.2373C55.9246 21.0536 54.7561 18.9519 52.6942 17.3177L34.7113 3.06528Z" fill="white"/>
<path d="M22.2887 3.06528L19.8042 -0.0695513L22.2887 3.06528ZM34.7113 3.06528L37.1958 -0.0695519V-0.0695522L34.7113 3.06528ZM4.30576 17.3177L6.79028 20.4526L4.30576 17.3177ZM0.754042 22.8182V26.8182H3.92708L4.64911 23.7284L0.754042 22.8182ZM0.743136 22.8182V18.8182H-2.12097L-3.04363 21.5296L0.743136 22.8182ZM56.3342 23.2373L52.4027 23.9746L52.4436 24.1928L52.5084 24.4052L56.3342 23.2373ZM52.6942 17.3177L50.2097 20.4526L52.6942 17.3177ZM24.7732 6.2001C26.9564 4.46976 30.0435 4.46976 32.2268 6.2001L37.1958 -0.0695522C32.1016 -4.10702 24.8984 -4.10703 19.8042 -0.0695513L24.7732 6.2001ZM6.79028 20.4526L24.7732 6.2001L19.8042 -0.0695513L1.82123 14.1829L6.79028 20.4526ZM4.64911 23.7284C4.92072 22.5661 5.5762 21.4148 6.79028 20.4526L1.82123 14.1829C-0.823851 16.2793 -2.46281 19.0057 -3.14102 21.908L4.64911 23.7284ZM0.754042 18.8182H0.743136V26.8182H0.754042V18.8182ZM-3.04363 21.5296C-3.66476 23.3549 -4 25.3078 -4 27.3306H4C4 26.1959 4.18745 25.1131 4.5299 24.1068L-3.04363 21.5296ZM-4 27.3306V44.8843H4V27.3306H-4ZM-4 44.8843C-4 54.8254 4.05889 62.8843 14 62.8843V54.8843C8.47716 54.8843 4 50.4071 4 44.8843H-4ZM14 62.8843H42.9421V54.8843H14V62.8843ZM42.9421 62.8843C52.8832 62.8843 60.9421 54.8254 60.9421 44.8843H52.9421C52.9421 50.4071 48.4649 54.8843 42.9421 54.8843V62.8843ZM60.9421 44.8843V27.3306H52.9421V44.8843H60.9421ZM60.9421 27.3306C60.9421 25.5064 60.6694 23.7385 60.1599 22.0694L52.5084 24.4052C52.7894 25.3256 52.9421 26.3066 52.9421 27.3306H60.9421ZM50.2097 20.4526C51.5029 21.4775 52.1677 22.7216 52.4027 23.9746L60.2656 22.5C59.6815 19.3856 58.0092 16.4262 55.1787 14.1829L50.2097 20.4526ZM32.2268 6.2001L50.2097 20.4526L55.1787 14.1829L37.1958 -0.0695519L32.2268 6.2001Z" fill="#232A37" mask="url(#path-1-inside-1_210_1053)"/>
<path fill-rule="evenodd" clip-rule="evenodd" d="M41.9726 27.5664H23.9515L15.1847 42.751H33.2058L37.0413 36.1077H26.4139L27.5098 34.2096H38.1372L41.9726 27.5664Z" fill="#232A37"/>
</svg>
