<svg width="60" height="58" viewBox="0 0 60 58" fill="none" xmlns="http://www.w3.org/2000/svg">
<mask id="path-1-inside-1_210_1133" fill="white">
<path fill-rule="evenodd" clip-rule="evenodd" d="M42.535 55.9636C46.0918 58.974 51.47 55.9113 50.6958 51.3163L48.445 37.959C48.1518 36.2194 48.7972 34.454 50.1432 33.3135L57.8523 26.7814C61.4075 23.769 59.2724 17.9597 54.6126 17.9666L43.6531 17.9829C41.5514 17.986 39.6722 16.6745 38.9501 14.7008L34.8597 3.52037C33.2586 -0.85575 27.0695 -0.85575 25.4684 3.52037L21.378 14.701C20.6559 16.6747 18.7766 17.9862 16.675 17.983L5.55834 17.9666C0.898552 17.9596 -1.23655 23.7689 2.31862 26.7813L11.2784 34.3731C12.6242 35.5135 13.2696 37.2787 12.9766 39.0183L10.9053 51.3163C10.1313 55.9114 15.5098 58.9737 19.0664 55.9629L27.5691 48.7651C29.4335 47.1868 32.1654 47.1867 34.0299 48.7648L42.535 55.9636Z"/>
</mask>
<path fill-rule="evenodd" clip-rule="evenodd" d="M42.535 55.9636C46.0918 58.974 51.47 55.9113 50.6958 51.3163L48.445 37.959C48.1518 36.2194 48.7972 34.454 50.1432 33.3135L57.8523 26.7814C61.4075 23.769 59.2724 17.9597 54.6126 17.9666L43.6531 17.9829C41.5514 17.986 39.6722 16.6745 38.9501 14.7008L34.8597 3.52037C33.2586 -0.85575 27.0695 -0.85575 25.4684 3.52037L21.378 14.701C20.6559 16.6747 18.7766 17.9862 16.675 17.983L5.55834 17.9666C0.898552 17.9596 -1.23655 23.7689 2.31862 26.7813L11.2784 34.3731C12.6242 35.5135 13.2696 37.2787 12.9766 39.0183L10.9053 51.3163C10.1313 55.9114 15.5098 58.9737 19.0664 55.9629L27.5691 48.7651C29.4335 47.1868 32.1654 47.1867 34.0299 48.7648L42.535 55.9636Z" fill="#232A37"/>
<path d="M27.5691 48.7651L24.9846 45.7121L27.5691 48.7651ZM34.0299 48.7648L31.4457 51.818L34.0299 48.7648ZM11.2784 34.3731L8.6925 37.4249L11.2784 34.3731ZM2.31862 26.7813L-0.267229 29.8331L2.31862 26.7813ZM34.8597 3.52037L31.1032 4.8947L34.8597 3.52037ZM43.6531 17.9829L43.6472 13.9829L43.6531 17.9829ZM38.9501 14.7008L42.7066 13.3265L38.9501 14.7008ZM50.6958 51.3163L46.7514 51.9809L50.6958 51.3163ZM42.535 55.9636L39.9508 59.0167L42.535 55.9636ZM48.445 37.959L44.5006 38.6237L48.445 37.959ZM50.1432 33.3135L47.5573 30.2617L50.1432 33.3135ZM44.5006 38.6237L46.7514 51.9809L54.6401 50.6516L52.3894 37.2944L44.5006 38.6237ZM55.2665 23.7296L47.5573 30.2617L52.729 36.3653L60.4382 29.8332L55.2665 23.7296ZM43.659 21.9829L54.6185 21.9666L54.6067 13.9666L43.6472 13.9829L43.659 21.9829ZM31.1032 4.8947L35.1936 16.0751L42.7066 13.3265L38.6162 2.14604L31.1032 4.8947ZM25.1345 16.0753L29.2249 4.8947L21.712 2.14605L17.6215 13.3266L25.1345 16.0753ZM5.55241 21.9666L16.669 21.983L16.6809 13.9831L5.56428 13.9666L5.55241 21.9666ZM13.8642 31.3213L4.90447 23.7295L-0.267229 29.8331L8.6925 37.4249L13.8642 31.3213ZM14.8497 51.9806L16.921 39.6826L9.03215 38.3539L6.96083 50.6519L14.8497 51.9806ZM24.9846 45.7121L16.4819 52.91L21.6508 59.0159L30.1535 51.8181L24.9846 45.7121ZM45.1192 52.9104L36.6141 45.7117L31.4457 51.818L39.9508 59.0167L45.1192 52.9104ZM30.1535 51.8181C30.5264 51.5024 31.0728 51.5024 31.4457 51.818L36.6141 45.7117C33.258 42.871 28.3406 42.8712 24.9846 45.7121L30.1535 51.8181ZM6.96083 50.6519C5.56775 58.9231 15.2491 64.4352 21.6508 59.0159L16.4819 52.91C16.2528 53.1039 16.0666 53.1523 15.9225 53.1617C15.752 53.1727 15.5443 53.1315 15.341 53.0157C15.1378 52.9 14.9963 52.7425 14.9188 52.5902C14.8533 52.4615 14.7999 52.2767 14.8497 51.9806L6.96083 50.6519ZM8.6925 37.4249C8.96168 37.653 9.09075 38.006 9.03215 38.3539L16.921 39.6826C17.4484 36.5514 16.2868 33.374 13.8642 31.3213L8.6925 37.4249ZM5.56428 13.9666C-2.82337 13.9541 -6.66653 24.4108 -0.267229 29.8331L4.90447 23.7295C4.67543 23.5354 4.59707 23.3597 4.56411 23.2191C4.5251 23.0528 4.53163 22.8411 4.61232 22.6216C4.69301 22.402 4.82509 22.2365 4.96256 22.135C5.07872 22.0492 5.2522 21.9661 5.55241 21.9666L5.56428 13.9666ZM17.6215 13.3266C17.4771 13.7214 17.1012 13.9837 16.6809 13.9831L16.669 21.983C20.452 21.9887 23.8347 19.628 25.1345 16.0753L17.6215 13.3266ZM38.6162 2.14604C35.7343 -5.73097 24.5938 -5.73098 21.712 2.14605L29.2249 4.8947C29.3281 4.61276 29.466 4.47861 29.5865 4.39917C29.7293 4.30516 29.9302 4.23828 30.1641 4.23828C30.398 4.23828 30.5989 4.30516 30.7416 4.39918C30.8622 4.47861 31 4.61276 31.1032 4.8947L38.6162 2.14604ZM43.6472 13.9829C43.2268 13.9835 42.851 13.7212 42.7066 13.3265L35.1936 16.0751C36.4934 19.6278 39.876 21.9885 43.659 21.9829L43.6472 13.9829ZM60.4382 29.8332C66.8375 24.4109 62.9943 13.9542 54.6067 13.9666L54.6185 21.9666C54.9188 21.9662 55.0922 22.0493 55.2084 22.1351C55.3459 22.2366 55.4779 22.4021 55.5586 22.6217C55.6393 22.8412 55.6458 23.0528 55.6068 23.2192C55.5739 23.3598 55.4955 23.5355 55.2665 23.7296L60.4382 29.8332ZM46.7514 51.9809C46.8012 52.277 46.7478 52.4618 46.6823 52.5905C46.6048 52.7428 46.4634 52.9003 46.2601 53.0161C46.0569 53.1318 45.8492 53.1731 45.6786 53.1621C45.5345 53.1527 45.3484 53.1044 45.1192 52.9104L39.9508 59.0167C46.353 64.4356 56.0339 58.9227 54.6401 50.6516L46.7514 51.9809ZM52.3894 37.2944C52.3307 36.9464 52.4598 36.5934 52.729 36.3653L47.5573 30.2617C45.1345 32.3146 43.9729 35.4923 44.5006 38.6237L52.3894 37.2944Z" fill="#232A37" mask="url(#path-1-inside-1_210_1133)"/>
</svg>
