<svg width="83" height="59" viewBox="0 0 83 59" fill="none" xmlns="http://www.w3.org/2000/svg">
<path d="M81.6736 30.2533L80.9582 29.7925C78.5139 27.3551 75.1009 26.2998 70.5403 26.5674C66.7398 26.7903 63.7292 28.2914 61.434 29.6885C61.434 29.6588 61.434 29.6142 61.434 29.5845C61.434 28.3955 61.5681 27.1173 61.7023 25.8688C61.8364 24.6055 61.9706 23.3125 61.9706 22.0937C61.9706 20.875 61.8364 19.6711 61.4042 18.6605C61.2999 18.4078 61.0614 18.2443 60.7484 18.2443C59.5263 18.2741 57.1268 19.1064 56.5455 19.6117L56.2325 20.2954C56.2176 21.6479 55.9196 25.4378 55.6066 25.8985C55.6066 25.8837 55.4426 26.3593 55.4426 26.3593C54.921 31.7544 54.921 36.5104 55.3979 40.5827C55.4575 40.984 56.2325 41.5934 56.8436 41.8163C57.5143 42.0541 59.6008 41.5042 60.7931 41.0583L61.2403 40.984C61.6129 40.9394 61.8364 40.6273 61.8215 40.1963L61.8513 39.0222C62.7157 35.4998 66.2331 31.3085 70.3913 30.6694C72.7461 30.2979 74.5942 30.8924 76.0548 32.4975C76.2485 32.7799 76.6807 35.3214 75.1307 38.2196C73.9831 40.3747 71.673 42.1879 68.6475 43.3175C65.771 44.4024 62.6263 44.8483 58.7215 44.7145C58.5575 44.6105 55.07 42.2474 55.07 42.2474C51.9849 40.0774 48.1397 37.3873 44.6522 36.0645C44.0411 35.8267 42.9382 34.9201 42.2825 34.3851L41.9248 34.0878C39.9127 32.4827 36.0973 29.9412 33.0271 27.905C33.0271 27.905 31.641 26.9835 31.3728 26.8052C31.3728 26.6863 31.3728 26.4633 31.3728 26.4633C31.4622 26.3741 33.3997 25.2149 33.3997 25.2149C36.0973 23.6394 37.3493 22.8666 37.6175 22.4653C37.5579 22.5247 37.9752 22.2572 37.9752 22.2572C38.005 22.2572 44.6671 18.4821 44.6671 18.4821C51.0907 14.9597 58.3787 10.9617 62.209 7.00824L62.4028 6.39888L62.4922 5.86382C62.7456 5.01666 62.7605 4.37757 62.5518 3.61958C62.4922 3.4115 62.2984 3.15884 62.0302 3.11425C59.0494 2.817 55.1893 4.60051 51.6868 7.88513C50.8969 8.62826 50.2263 8.98496 49.5258 9.37139L48.9892 9.66864C45.1291 11.8534 36.4103 17.2485 31.8497 20.1616C32.1478 15.2718 33.0569 8.31614 34.1747 2.51975L34.0555 1.82121L33.5786 0.944319L33.2209 0.320092L33.1165 0.290366C32.2074 -0.170373 31.4622 0.0228405 30.9108 0.156603L30.0016 0.498442L28.7795 0.944319C28.541 0.988906 28.3771 1.13753 28.2728 1.37533C26.0968 6.62181 24.2785 15.257 23.8463 22.168C19.4943 19.4036 15.4703 17.4269 13.503 16.4608L13.4433 16.4311L13.2049 16.3865C12.4895 16.2973 11.6251 15.7771 10.8054 15.2718C10.7159 15.2272 9.15101 14.2017 9.15101 14.2017L6.61734 12.5817L5.94667 12.4331C4.85868 12.6263 2.77213 14.0234 2.16107 14.9746C2.08655 15.0935 2.04184 15.2272 2.04184 15.3759C2.04184 15.5839 2.10145 15.7771 2.16107 15.9704L2.2654 16.4757L2.38463 16.7878C3.59185 18.0214 6.66206 20.0873 9.65775 21.6924L13.1304 23.5354L18.4511 26.4336L19.3602 27.147L19.9862 27.5037C19.9862 27.5037 20.0607 27.5483 20.1054 27.578C18.6895 28.5292 10.4328 34.0284 10.4328 34.0284L5.35051 37.3873C4.87359 37.7143 2.86155 38.606 2.41444 38.7844C1.31155 39.2303 0.476926 39.9288 0.134135 40.6719L0 40.9692L0.134135 41.1624L0.521638 41.4596L1.04328 41.8015L1.60962 42.1879L2.13126 42.2771C3.0255 42.3068 4.35195 41.8015 6.826 40.7165C9.1063 39.7207 15.2765 35.9902 17.9294 34.3999L19.0621 33.7311C19.5242 33.7608 20.0309 33.3744 20.4929 33.0326C21.0294 32.6164 22.177 31.903 22.8775 31.5909C22.8924 31.5909 23.2948 31.368 23.6823 31.1599C23.6823 31.2788 23.6823 31.4571 23.6823 31.4571C23.8016 39.5126 24.2636 45.3834 25.1429 49.9016V49.9759L25.2473 50.1542C25.6795 50.7933 26.1713 52.6957 26.6184 54.3901L27.617 57.749L27.9002 58.0611C28.4665 58.4475 30.2252 59.1164 31.3877 58.9826L31.6709 58.9529L31.8497 58.5516C31.954 58.0462 31.9838 57.5558 31.9838 57.0059C31.9838 56.3965 31.9391 55.7128 31.8795 54.8805L31.805 53.6618C31.4324 48.0289 31.0598 39.9139 31.0598 34.504V34.073C32.0136 34.6675 36.2166 37.313 36.2166 37.313C43.3555 41.9352 54.1311 48.9058 60.659 50.7487C61.0018 50.8528 61.3595 50.7785 61.598 50.5407L62.5965 49.9016L62.7903 49.8273C63.1629 49.6489 63.4162 49.0247 63.4609 48.341C68.9456 48.0586 76.6062 45.963 80.7048 40.8205C82.2846 38.829 83 36.3915 83 34.2959C83 32.5867 82.5231 31.1004 81.6586 30.2979" fill="#FDB813"/>
</svg>
