<svg width="69" height="73" viewBox="0 0 69 73" fill="none" xmlns="http://www.w3.org/2000/svg">
<path d="M27.2402 7.08C27.2402 10.76 30.3602 13.88 34.0402 13.88C37.7202 13.88 40.8402 10.76 40.8402 7.08C40.8402 6.51 40.8402 5.95 40.5602 5.38C39.9902 4.25 39.4302 3.68 39.4302 1.98C39.4302 0 36.8802 0 35.7502 0C34.3302 0 32.6302 0 31.2202 0.85C30.0902 1.42 29.2402 2.27 28.6702 3.12C28.1002 4.25 27.5402 5.39 27.5402 6.52" fill="#D80C18"/>
<path d="M68.0299 15.5783C68.0299 15.5783 66.6099 14.7283 64.9099 15.2983C62.3599 15.8683 54.4299 17.2783 41.9599 17.8483C36.2899 17.8483 29.7799 17.8483 23.5499 17.5683C18.4499 16.9983 8.52991 15.5883 6.26991 15.2983C5.1399 15.2983 2.2999 15.0183 1.1699 16.1483C-0.530095 17.5683 -0.250095 19.8283 1.1699 21.8183C1.1699 21.8183 3.43991 25.4983 9.09991 26.6383C17.0299 28.0583 29.4999 27.4883 33.4699 27.2083C42.5399 26.3583 49.6199 24.9383 54.9999 23.5283C54.9999 23.5283 62.3699 21.5483 66.0499 19.2783C67.4699 18.4283 69.4499 17.0083 68.5999 15.5983H68.0299V15.5783Z" fill="#008E71"/>
<path d="M41.1202 32.0219C36.5902 29.4719 31.2002 29.4719 26.6702 32.0219C19.5902 35.9919 17.0402 45.0519 21.2902 52.4219C24.6902 57.8019 29.5102 56.6719 30.6402 55.2519C32.3402 53.2719 31.7702 51.5719 30.6402 50.4319C28.9402 48.1619 28.6602 46.7519 28.6602 45.6119C28.6602 42.7819 30.9302 40.2319 34.0402 40.2319C35.4602 40.2319 37.1602 40.8019 38.0102 42.2119C39.4302 43.9119 39.4302 46.1819 39.4302 48.1619C38.8602 59.4919 34.3302 69.1319 34.0502 69.6919C34.0502 70.2619 33.4802 71.3919 34.3302 71.9619C35.1802 72.2419 36.0302 71.9619 36.8802 71.1119C38.8602 69.4119 43.1102 64.3119 45.1002 59.2119C46.2302 56.3819 49.0702 49.2919 48.2202 42.2119C47.3702 36.8319 43.6902 33.4319 40.5702 31.7319L41.1402 32.0119L41.1202 32.0219Z" fill="#008E71"/>
</svg>
