<svg width="51" height="53" viewBox="0 0 51 53" fill="none" xmlns="http://www.w3.org/2000/svg">
<path fill-rule="evenodd" clip-rule="evenodd" d="M39 22C39 31.3888 31.3888 39 22 39C12.6112 39 5 31.3888 5 22C5 12.6112 12.6112 5 22 5C31.3888 5 39 12.6112 39 22ZM34.1207 40.3629C30.6452 42.6616 26.4789 44 22 44C9.84974 44 0 34.1503 0 22C0 9.84974 9.84974 0 22 0C34.1503 0 44 9.84974 44 22C44 27.8643 41.7055 33.1927 37.9653 37.1364L49.3241 48.4952C50.3004 49.4715 50.3004 51.0545 49.3241 52.0308C48.3478 53.0071 46.7649 53.0071 45.7886 52.0308L34.1207 40.3629Z" fill="#11141B"/>
</svg>
