<svg width="60" height="55" viewBox="0 0 60 55" fill="none" xmlns="http://www.w3.org/2000/svg">
<path fill-rule="evenodd" clip-rule="evenodd" d="M44 8.5C44 10.433 42.433 12 40.5 12C38.567 12 37 10.433 37 8.5C37 6.567 38.567 5 40.5 5C42.433 5 44 6.567 44 8.5ZM48.6264 11C47.5588 14.4743 44.3244 17 40.5 17C36.6756 17 33.4412 14.4743 32.3736 11H2.5C1.11929 11 0 9.88071 0 8.5C0 7.11929 1.11929 6 2.5 6H32.3736C33.4412 2.52566 36.6756 0 40.5 0C44.3244 0 47.5588 2.52566 48.6264 6H57.5C58.8807 6 60 7.11929 60 8.5C60 9.88071 58.8807 11 57.5 11H48.6264ZM44 46.5C44 48.433 42.433 50 40.5 50C38.567 50 37 48.433 37 46.5C37 44.567 38.567 43 40.5 43C42.433 43 44 44.567 44 46.5ZM48.6264 49C47.5588 52.4743 44.3244 55 40.5 55C36.6756 55 33.4412 52.4743 32.3736 49H2.5C1.11929 49 0 47.8807 0 46.5C0 45.1193 1.11929 44 2.5 44H32.3736C33.4412 40.5257 36.6756 38 40.5 38C44.3244 38 47.5588 40.5257 48.6264 44H57.5C58.8807 44 60 45.1193 60 46.5C60 47.8807 58.8807 49 57.5 49H48.6264ZM19.5 24C17.567 24 16 25.567 16 27.5C16 29.433 17.567 31 19.5 31C21.433 31 23 29.433 23 27.5C23 25.567 21.433 24 19.5 24ZM19.5 19C15.6756 19 12.4412 21.5257 11.3736 25H2.5C1.11929 25 0 26.1193 0 27.5C0 28.8807 1.11929 30 2.5 30H11.3736C12.4412 33.4743 15.6756 36 19.5 36C23.3244 36 26.5588 33.4743 27.6264 30L57.5 30C58.8807 30 60 28.8807 60 27.5C60 26.1193 58.8807 25 57.5 25L27.6264 25C26.5588 21.5257 23.3244 19 19.5 19Z" fill="#11141B"/>
</svg>
