<svg width="57" height="52" viewBox="0 0 57 52" fill="none" xmlns="http://www.w3.org/2000/svg">
<mask id="path-1-inside-1_202_631" fill="white">
<path fill-rule="evenodd" clip-rule="evenodd" d="M31.1112 1.34842C29.5973 0.00755611 27.3208 0.00755918 25.8069 1.34842L1.35589 23.005C-1.40008 25.446 0.326475 29.9994 4.00804 29.9994H5.459V45.0001C5.459 48.8661 8.593 52.0001 12.459 52.0001H44.459C48.325 52.0001 51.459 48.8661 51.459 45.0001V29.9994H52.9101C56.5916 29.9994 58.3182 25.446 55.5622 23.005L31.1112 1.34842Z"/>
</mask>
<path d="M25.8069 1.34842L23.1547 -1.64593V-1.64593L25.8069 1.34842ZM31.1112 1.34842L28.459 4.34277L28.459 4.34277L31.1112 1.34842ZM1.35589 23.005L-1.29625 20.0107H-1.29625L1.35589 23.005ZM5.459 29.9994H9.459V25.9994H5.459V29.9994ZM51.459 29.9994V25.9994H47.459V29.9994H51.459ZM55.5622 23.005L58.2143 20.0107V20.0107L55.5622 23.005ZM28.459 4.34278L28.459 4.34277L33.7633 -1.64593C30.7356 -4.32766 26.1825 -4.32765 23.1547 -1.64593L28.459 4.34278ZM4.00804 25.9994L28.459 4.34277L23.1547 -1.64593L-1.29625 20.0107L4.00804 25.9994ZM4.00804 25.9994C3.98458 25.9994 3.97152 25.9976 3.96734 25.9969C3.96316 25.9963 3.96471 25.9962 3.97057 25.9982C3.97635 26 3.98377 26.003 3.99189 26.0072C3.9999 26.0113 4.00688 26.0158 4.01255 26.0199C4.02391 26.0282 4.02638 26.0327 4.02332 26.0286C4.02181 26.0266 4.01933 26.023 4.01644 26.0177C4.01353 26.0124 4.01063 26.0062 4.00804 25.9994C4.00545 25.9925 4.00352 25.986 4.00218 25.9801C4.00085 25.9742 4.00031 25.9699 4.00011 25.9674C3.99969 25.9623 4.00081 25.9673 3.99781 25.981C3.99632 25.9879 3.99402 25.9958 3.99075 26.0042C3.98745 26.0127 3.98387 26.0199 3.9808 26.0251C3.97769 26.0305 3.97649 26.0315 3.97919 26.0282C3.98187 26.0249 3.99048 26.0149 4.00804 25.9994L-1.29625 20.0107C-6.8082 24.8927 -3.35508 33.9994 4.00804 33.9994V25.9994ZM5.459 25.9994H4.00804V33.9994H5.459V25.9994ZM9.459 45.0001V29.9994H1.459V45.0001H9.459ZM12.459 48.0001C10.8021 48.0001 9.459 46.657 9.459 45.0001H1.459C1.459 51.0752 6.38387 56.0001 12.459 56.0001V48.0001ZM44.459 48.0001H12.459V56.0001H44.459V48.0001ZM47.459 45.0001C47.459 46.657 46.1158 48.0001 44.459 48.0001V56.0001C50.5341 56.0001 55.459 51.0752 55.459 45.0001H47.459ZM47.459 29.9994V45.0001H55.459V29.9994H47.459ZM52.9101 25.9994H51.459V33.9994H52.9101V25.9994ZM52.91 25.9994C52.9276 26.0149 52.9362 26.0249 52.9389 26.0282C52.9416 26.0314 52.9404 26.0305 52.9373 26.0251C52.9342 26.0199 52.9306 26.0127 52.9273 26.0042C52.9241 25.9958 52.9218 25.9879 52.9203 25.981C52.9173 25.9673 52.9184 25.9623 52.918 25.9674C52.9178 25.9699 52.9172 25.9742 52.9159 25.9801C52.9146 25.986 52.9126 25.9926 52.91 25.9994C52.9075 26.0062 52.9046 26.0124 52.9016 26.0177C52.8988 26.023 52.8963 26.0266 52.8948 26.0286C52.8917 26.0327 52.8942 26.0282 52.9055 26.0199C52.9112 26.0158 52.9182 26.0113 52.9262 26.0072C52.9343 26.003 52.9417 26.0001 52.9475 25.9982C52.9534 25.9962 52.9549 25.9963 52.9507 25.9969C52.9466 25.9976 52.9335 25.9994 52.9101 25.9994V33.9994C60.2732 33.9994 63.7263 24.8927 58.2143 20.0107L52.91 25.9994ZM28.459 4.34277L52.91 25.9994L58.2143 20.0107L33.7633 -1.64593L28.459 4.34277Z" fill="#262D39" mask="url(#path-1-inside-1_202_631)"/>
<path d="M22.459 38C22.459 34.6863 25.1453 32 28.459 32C31.7727 32 34.459 34.6863 34.459 38V50H22.459V38Z" stroke="#262D39" stroke-width="4"/>
</svg>
