<svg width="170" height="170" viewBox="0 0 170 170" fill="none" xmlns="http://www.w3.org/2000/svg">
<circle cx="85" cy="85" r="85" fill="#1ABC7C"/>
<path fill-rule="evenodd" clip-rule="evenodd" d="M76.0002 50H94.0002C95.5697 50 96.9703 50.7232 97.887 51.8545C97.924 51.9145 97.9639 51.9734 98.0066 52.0311L103.158 58.9926C103.612 59.6063 104.294 59.9522 105 60V60H105C105.097 60.0065 105.194 60.0075 105.291 60.0028C113.441 60.1576 120 66.8128 120 75V99C120 107.284 113.284 114 105 114H65C56.7157 114 50 107.284 50 99V75C50 66.8128 56.5592 60.1577 64.7093 60.0028C64.7999 60.0067 64.8904 60.0058 64.9806 60L65 60V59.9987C65.7024 59.9481 66.3794 59.6026 66.8312 58.9921L71.9824 52.0306C72.0065 51.9981 72.0297 51.9652 72.0519 51.9319C72.9668 50.7563 74.3952 50 76.0002 50ZM94.0002 45C97.4886 45 100.56 46.7862 102.349 49.494L106.462 55.0527C116.825 55.8015 125 64.4461 125 75V99C125 110.046 116.046 119 105 119H65C53.9543 119 45 110.046 45 99V75C45 64.4502 53.1683 55.8082 63.5256 55.0535L67.7783 49.3063C69.5838 46.704 72.593 45 76.0002 45H94.0002ZM99 87C99 94.732 92.732 101 85 101C77.268 101 71 94.732 71 87C71 79.268 77.268 73 85 73C92.732 73 99 79.268 99 87ZM104 87C104 97.4934 95.4934 106 85 106C74.5066 106 66 97.4934 66 87C66 76.5066 74.5066 68 85 68C95.4934 68 104 76.5066 104 87Z" fill="white"/>
</svg>
