<svg width="170" height="170" viewBox="0 0 170 170" fill="none" xmlns="http://www.w3.org/2000/svg">
<circle cx="85" cy="85" r="85" fill="#4DA6F3"/>
<path fill-rule="evenodd" clip-rule="evenodd" d="M65 53H105C113.284 53 120 59.7157 120 68V99.9631L99.5035 79.4666C99.2377 79.2008 98.9269 79.0073 98.5956 78.8863C97.7024 78.5443 96.6524 78.7333 95.9324 79.4533L85.5609 89.8248L69.5035 73.7674C68.7542 73.0181 67.6475 72.8438 66.732 73.2448C66.4263 73.3668 66.1399 73.5515 65.8924 73.799L50 89.6914V68C50 59.7157 56.7157 53 65 53ZM87.3917 95.0651L97.7113 84.7455L119.349 106.384C117.474 112.529 111.759 117 105 117H65C56.7157 117 50 110.284 50 102V96.7178C50.1064 96.6408 50.2082 96.5543 50.3041 96.4584L67.7138 79.0487L83.7449 95.0799C84.3316 95.6666 85.1374 95.9007 85.8989 95.7823C86.4442 95.7223 86.9736 95.4832 87.3917 95.0651ZM45 68C45 56.9543 53.9543 48 65 48H105C116.046 48 125 56.9543 125 68V102C125 113.046 116.046 122 105 122H65C53.9543 122 45 113.046 45 102V68ZM101 70C103.209 70 105 68.2091 105 66C105 63.7909 103.209 62 101 62C98.7909 62 97 63.7909 97 66C97 68.2091 98.7909 70 101 70Z" fill="white"/>
</svg>
