<svg width="126" height="126" viewBox="0 0 126 126" fill="none" xmlns="http://www.w3.org/2000/svg">
<g filter="url(#filter0_d_203_4491)">
<rect x="8" y="4" width="110" height="110" rx="55" fill="white"/>
</g>
<mask id="path-2-inside-1_203_4491" fill="white">
<path fill-rule="evenodd" clip-rule="evenodd" d="M63.0318 80.0316C77.4088 80.0316 89.0637 69.5033 89.0637 56.5158C89.0637 43.5284 77.4088 33 63.0318 33C48.6549 33 37 43.5284 37 56.5158C37 62.208 39.2388 67.4278 42.9644 71.4959L41.9075 83.9149C41.8423 84.6819 42.6318 85.232 43.3287 84.905L55.7196 79.0912C58.0393 79.7034 60.4932 80.0316 63.0318 80.0316Z"/>
</mask>
<path d="M42.9644 71.4959L46.95 71.8351L47.0987 70.0877L45.9143 68.7944L42.9644 71.4959ZM41.9075 83.9149L37.922 83.5757L41.9075 83.9149ZM43.3287 84.905L45.0278 88.5262L45.0278 88.5262L43.3287 84.905ZM55.7196 79.0912L56.7402 75.2236L55.3356 74.853L54.0205 75.47L55.7196 79.0912ZM85.0637 56.5158C85.0637 66.9213 75.5919 76.0316 63.0318 76.0316V84.0316C79.2258 84.0316 93.0637 72.0852 93.0637 56.5158H85.0637ZM63.0318 37C75.5919 37 85.0637 46.1103 85.0637 56.5158H93.0637C93.0637 40.9464 79.2258 29 63.0318 29V37ZM41 56.5158C41 46.1103 50.4718 37 63.0318 37V29C46.8379 29 33 40.9464 33 56.5158H41ZM45.9143 68.7944C42.805 65.3993 41 61.1236 41 56.5158H33C33 63.2924 35.6726 69.4564 40.0145 74.1974L45.9143 68.7944ZM45.8931 84.2541L46.95 71.8351L38.9788 71.1568L37.922 83.5757L45.8931 84.2541ZM41.6297 81.2838C43.7204 80.3028 46.089 81.953 45.8931 84.2541L37.922 83.5757C37.5956 87.4109 41.5433 90.1611 45.0278 88.5262L41.6297 81.2838ZM54.0205 75.47L41.6296 81.2838L45.0278 88.5262L57.4186 82.7124L54.0205 75.47ZM63.0318 76.0316C60.8386 76.0316 58.7278 75.7481 56.7402 75.2236L54.699 82.9588C57.3509 83.6586 60.1477 84.0316 63.0318 84.0316V76.0316Z" fill="#11141B" mask="url(#path-2-inside-1_203_4491)"/>
<defs>
<filter id="filter0_d_203_4491" x="0" y="0" width="126" height="126" filterUnits="userSpaceOnUse" color-interpolation-filters="sRGB">
<feFlood flood-opacity="0" result="BackgroundImageFix"/>
<feColorMatrix in="SourceAlpha" type="matrix" values="0 0 0 0 0 0 0 0 0 0 0 0 0 0 0 0 0 0 127 0" result="hardAlpha"/>
<feOffset dy="4"/>
<feGaussianBlur stdDeviation="4"/>
<feComposite in2="hardAlpha" operator="out"/>
<feColorMatrix type="matrix" values="0 0 0 0 0 0 0 0 0 0 0 0 0 0 0 0 0 0 0.25 0"/>
<feBlend mode="normal" in2="BackgroundImageFix" result="effect1_dropShadow_203_4491"/>
<feBlend mode="normal" in="SourceGraphic" in2="effect1_dropShadow_203_4491" result="shape"/>
</filter>
</defs>
</svg>
