<svg width="66" height="66" viewBox="0 0 66 66" fill="none" xmlns="http://www.w3.org/2000/svg">
<path d="M31.1301 0.470781C13.3901 1.27078 -0.339891 16.3008 0.470109 34.0308C1.27011 51.7608 16.3001 65.4908 34.0301 64.6908C51.7701 63.8908 65.4901 48.8608 64.6901 31.1308C63.8901 13.3908 48.8601 -0.329219 31.1301 0.470781Z" fill="url(#paint0_radial_238_4380)"/>
<path d="M31.1102 0.0297256C13.1302 0.849726 -0.779764 16.0797 0.0302362 34.0497C0.840236 52.0197 16.0702 65.9397 34.0502 65.1197C52.0202 64.2997 65.9302 49.0797 65.1202 31.0997C64.3102 13.1397 49.0802 -0.780274 31.1102 0.0297256ZM34.9302 31.6397C40.7202 36.9797 43.8902 39.8497 43.8902 39.8497C54.1002 48.3497 50.6102 56.1197 46.7102 58.8197C43.7402 60.8797 40.4402 61.8497 36.1202 62.0797C35.7302 62.1297 35.0202 61.9097 34.9902 61.2197C34.9602 60.4797 36.0402 60.2997 36.0402 60.2997C45.6802 58.3997 42.8602 52.0797 39.4502 48.8597C38.0202 47.4997 24.6002 35.9297 24.6002 35.9297C11.8102 24.9197 12.8302 16.3197 12.8302 16.3197C13.4402 5.75972 22.7102 3.12973 29.7202 3.73973C30.5402 3.80973 31.0002 4.30973 30.8502 4.99973C30.7002 5.73973 29.6102 5.79973 29.6102 5.79973C27.3802 5.92973 25.3902 6.15973 23.8702 7.17973C18.2202 10.9797 19.8902 17.4397 27.4202 24.6297C28.3702 25.5397 29.3702 26.4897 30.4002 27.4597C30.4002 27.4597 31.9102 28.7897 34.9202 31.6597L34.9302 31.6397ZM30.5602 58.9897C30.6202 60.0197 28.1102 60.4697 25.2502 60.1897C21.6502 59.8397 17.3502 58.6997 13.6102 55.4697C10.1702 52.4897 8.04024 48.3997 7.00024 44.8097C5.94024 41.1297 5.50024 36.8197 7.25024 37.1597C7.79024 37.2697 8.72024 39.6297 9.73024 41.3497C10.7702 43.1297 11.6302 44.1097 12.4202 44.7097C12.7802 44.9797 14.0102 42.2497 15.8002 40.6997C16.8402 39.8397 17.9802 39.5497 18.1602 42.1097C18.3802 45.2497 17.8202 48.9797 18.7302 48.9797C19.5902 48.9797 21.5202 48.3397 25.7602 47.9797C27.3502 47.8397 28.2602 48.1397 26.7402 50.2897C25.9802 51.3597 24.9602 52.8697 22.5602 54.5897C26.1602 57.9697 30.4902 57.5597 30.5702 58.9897H30.5602ZM33.4002 26.1597C33.1302 25.0997 33.0602 23.7697 33.2802 22.0697C33.7302 18.5097 34.6902 16.8397 35.7802 14.0897C37.2502 10.3897 33.6802 8.21973 34.2702 6.85973C35.0802 5.01973 37.6402 7.35973 40.4802 7.52973C42.9302 7.66973 44.4102 7.53973 46.3202 7.79973C48.8502 8.13973 51.8902 8.99973 53.2302 10.5797C54.4702 12.0297 52.5802 13.7997 50.3002 12.6897C48.6402 11.8797 46.5402 12.3797 47.7702 14.1097C49.2502 15.7597 49.9602 15.7997 51.4602 16.1997C55.6102 17.2897 55.6902 21.2597 52.8902 23.3197C49.6902 25.6597 46.4602 24.6897 45.1602 20.0997C44.5102 17.8097 42.8902 16.6497 41.2402 17.2997C39.5902 17.9497 40.5702 20.9597 41.8202 23.7497C44.3302 30.1497 38.1002 29.9297 37.3702 29.8497C34.0602 29.1497 33.3902 26.1497 33.3902 26.1497L33.4002 26.1597Z" fill="url(#paint1_radial_238_4380)"/>
<defs>
<radialGradient id="paint0_radial_238_4380" cx="0" cy="0" r="1" gradientUnits="userSpaceOnUse" gradientTransform="translate(41.8533 22.5528) scale(30.821 30.821)">
<stop stop-color="white"/>
<stop offset="1" stop-color="#D39E46"/>
</radialGradient>
<radialGradient id="paint1_radial_238_4380" cx="0" cy="0" r="1" gradientUnits="userSpaceOnUse" gradientTransform="translate(37.1394 24.9883) scale(68.0218)">
<stop stop-color="#0BBBEF"/>
<stop offset="0.22" stop-color="#0094D3"/>
<stop offset="0.3" stop-color="#007BC0"/>
<stop offset="0.38" stop-color="#006AB3"/>
<stop offset="0.47" stop-color="#005FAB"/>
<stop offset="0.57" stop-color="#005CA9"/>
</radialGradient>
</defs>
</svg>
