<svg width="63" height="63" viewBox="0 0 63 63" fill="none" xmlns="http://www.w3.org/2000/svg">
<path d="M62.9996 0H0V62.9996H62.9996V0Z" fill="#0091D0"/>
<path d="M0 0L15.7453 15.7545L31.4998 0H0Z" fill="#0091D0"/>
<path d="M0 0V31.4998L15.7453 15.7545L0 0Z" fill="#009AD8"/>
<path d="M31.4998 31.5006L15.7545 15.7461L0 31.5006H31.4998Z" fill="#0091D0"/>
<path d="M31.4997 31.4998V0L15.7544 15.7453L31.4997 31.4998Z" fill="#0082C9"/>
<path d="M31.5 0V31.4998L47.2453 15.7545L31.5 0Z" fill="#0071BB"/>
<path d="M62.9998 31.5006L47.2545 15.7461L31.5 31.5006H62.9998Z" fill="#004C98"/>
<path d="M0 31.5L15.7453 47.2545L31.4998 31.5H0Z" fill="#0082C9"/>
<path d="M0 31.5V62.9998L15.7453 47.2545L0 31.5Z" fill="#0071BB"/>
<path d="M31.4998 63.0006L15.7545 47.2461L0 63.0006H31.4998Z" fill="#0066B3"/>
<path d="M31.4997 62.9998V31.5L15.7544 47.2453L31.4997 62.9998Z" fill="#00529C"/>
<path d="M31.5 31.5L47.2453 47.2545L62.9998 31.5H31.5Z" fill="#1B3281"/>
<path d="M31.5 31.5V62.9998L47.2453 47.2545L31.5 31.5Z" fill="#004C98"/>
<path d="M62.9998 63.0006L47.2545 47.2461L31.5 63.0006H62.9998Z" fill="#1B3281"/>
<path d="M62.9997 62.9998V31.5L47.2544 47.2453L62.9997 62.9998Z" fill="#1B3281"/>
<path d="M31.5 0L47.2453 15.7545L62.9998 0H31.5Z" fill="#0066B3"/>
<path d="M62.9997 31.4998V0L47.2544 15.7453L62.9997 31.4998Z" fill="#00529C"/>
<path d="M62.9995 39.3773L42.8279 20.1719L12.2207 50.8526L23.3832 62.0152L42.8279 42.8742L62.9995 62.9262V39.3773Z" fill="white"/>
</svg>
