<svg width="63" height="63" viewBox="0 0 63 63" fill="none" xmlns="http://www.w3.org/2000/svg">
<path d="M63 0H0V63H63V0Z" fill="#001755"/>
<path d="M22.1524 45.1211H20.2506L17.2438 48.62V45.1211H15.7261V52.754H17.2438V49.2455L20.349 52.754H22.2509L18.8726 48.9375L22.1524 45.1211Z" fill="white"/>
<path d="M25.8928 47.2865C25.2547 47.2865 24.7085 47.5596 24.2609 47.9406V45.1211H22.7432V50.1473C22.7432 51.6586 23.7433 52.9286 25.6293 52.9286C27.3216 52.9286 28.5155 51.7602 28.5155 50.1187C28.5155 48.5692 27.4899 47.2865 25.896 47.2865M25.6293 51.5506C24.8451 51.5506 24.2069 50.9251 24.1847 50.1473C24.1847 50.1346 24.1847 50.1218 24.1847 50.106C24.1847 49.9409 24.2132 49.7821 24.264 49.6361C24.4609 49.0677 24.9975 48.6613 25.6293 48.6613C26.4263 48.6613 27.074 49.309 27.074 50.106C27.074 50.9029 26.4263 51.5506 25.6293 51.5506Z" fill="white"/>
<path d="M39.2503 47.2852C38.5169 47.2852 37.9454 47.555 37.4977 47.9551V47.4503H35.98V52.7526H37.4977V49.7808C37.4977 49.1616 37.9993 48.66 38.6185 48.66C39.2376 48.66 39.7393 49.1616 39.7393 49.7808V52.7526H41.2697V49.3553C41.2697 49.3363 41.2697 49.314 41.2697 49.295C41.2697 48.1805 40.3457 47.2852 39.2503 47.2852Z" fill="white"/>
<path d="M32.1479 47.293C30.4365 47.293 29.23 48.4614 29.23 50.1029C29.23 51.6555 30.2651 52.9351 31.878 52.9351C32.6019 52.9351 33.2973 52.5477 33.691 52.0238V52.7573H35.0658V50.1029H35.0531C35.0594 50.0839 35.0658 50.0743 35.0658 50.0743C35.0658 48.5598 34.0529 47.293 32.1479 47.293ZM32.1796 51.5444C31.3827 51.5444 30.735 50.8967 30.735 50.0997C30.735 49.3028 31.3827 48.6551 32.1796 48.6551C32.9766 48.6551 33.6243 49.3028 33.6243 50.0997C33.6243 50.8967 32.9766 51.5444 32.1796 51.5444Z" fill="white"/>
<path d="M47.2772 52.6856L45.0006 50.0535L47.2073 47.4245H45.5753L43.6512 49.701V45.0781H42.1367V52.6856H43.6512V50.4027L45.6103 52.6856H47.2772Z" fill="white"/>
<path d="M40.9045 14.9155L31.4999 22.1007L22.0953 14.9155L15.7578 10.0703V17.8175V40.7067H22.0953V22.7325L31.4999 30.0257L40.9045 22.7325V40.7067H47.2451V17.8175V10.0703L40.9045 14.9155Z" fill="#C4D700"/>
</svg>
