<svg width="63" height="63" viewBox="0 0 63 63" fill="none" xmlns="http://www.w3.org/2000/svg">
<path d="M63 53.9241C63 58.8887 58.9723 62.9129 54.0025 62.9129H8.99925C4.02946 62.9129 0 58.8887 0 53.9241V8.98706C0 4.0225 4.03121 0 8.99925 0H54.0007C58.9723 0 62.9983 4.0225 62.9983 8.98706V53.9241H63Z" fill="#FFE700"/>
<path d="M45.0121 37.7497C44.7021 35.5086 43.6678 33.6175 41.9404 32.1287C41.6844 31.9093 41.418 31.7021 41.1167 31.4583C41.3657 31.2719 41.5747 31.1274 41.768 30.9655C43.0008 29.9381 43.9098 28.6808 44.5036 27.1815C45.0678 25.7571 45.2089 24.2805 45.0069 22.7916C44.7596 20.9667 43.9899 19.3507 42.7327 17.9838C41.8272 16.9982 40.7702 16.2215 39.5303 15.7148C38.3375 15.2272 37.1134 15.0078 35.7952 15.0078L21.457 15.0113C21.3577 15.0113 21.2567 15.0061 21.1592 15.0183C20.8074 15.0583 20.6002 15.2812 20.5846 15.6347C20.5793 15.734 20.5846 15.8332 20.5846 15.9325C20.5846 26.2569 20.5846 36.583 20.5846 46.9074C20.5846 47.0642 20.5758 47.2209 20.588 47.3759C20.6089 47.6475 20.7953 47.8495 21.0634 47.8948C21.1609 47.9105 21.2619 47.9052 21.3612 47.9052H36.2114C37.7368 47.9052 39.1612 47.5221 40.4759 46.7664C42.3583 45.6833 43.7043 44.1318 44.5054 42.0979C45.0626 40.6856 45.2176 39.2229 45.0138 37.7515L45.0121 37.7497ZM33.5993 38.8642H30.9194V24.0802H33.5697C33.5697 24.0802 33.5593 24.0732 33.5697 24.0732V24.0802H33.5993V38.8642Z" fill="#281E21"/>
</svg>
