<svg width="57" height="58" viewBox="0 0 57 58" fill="none" xmlns="http://www.w3.org/2000/svg">
<path fill-rule="evenodd" clip-rule="evenodd" d="M1.9891 10.0698C1.27962 10.4794 0.916059 11.2581 1.0009 12.0233C1.00028 12.0437 0.999973 12.0641 0.999973 12.0847V55.4087C0.956858 55.8147 1.03727 56.2376 1.25705 56.6182C1.80934 57.5748 3.03252 57.9026 3.98911 57.3503L20.0003 48.1062L35.833 57.2428C36.1683 57.4834 36.5703 57.6139 36.98 57.6185C37.4133 57.6267 37.8412 57.4938 38.1943 57.2383L54.977 47.5488C55.5632 47.2104 55.9132 46.6201 55.9694 45.9936C55.9968 45.8616 56.0112 45.7248 56.0112 45.5847V2.08466C56.0112 1.80113 55.9522 1.53137 55.8458 1.287C55.8084 1.18949 55.7629 1.09364 55.7091 1.00033C55.1568 0.0437479 53.9336 -0.284001 52.977 0.268283L37.01 9.48685L21.0352 0.268164C20.7089 0.0798727 20.3516 -0.00608225 20.0005 0.000333846C19.6494 -0.00608381 19.2921 0.0799102 18.9658 0.268283L1.9891 10.0698ZM22 5.44372V44.6413L35.0112 52.1498V12.9522L22 5.44372ZM18 44.6423V5.4447L4.99997 12.9503V52.1479L18 44.6423ZM52.0112 44.6423V5.4447L39.0112 12.9503V52.1479L52.0112 44.6423Z" fill="#262D39"/>
</svg>
