<svg width="51" height="63" viewBox="0 0 51 63" fill="none" xmlns="http://www.w3.org/2000/svg">
<path d="M25.2494 23.9142L12.6646 0L25.2494 6.31538L37.8385 0L25.2494 23.9142Z" fill="#FDB813"/>
<path d="M41.83 18.7254L50.4229 15.0796V2.51562L35.0266 9.05209L26.4962 25.2285C32.87 25.8417 37.8381 31.2268 37.8381 37.755C37.8381 44.7211 32.2026 50.344 25.249 50.344C18.2954 50.344 12.6516 44.7211 12.6516 37.755C12.6516 31.2268 17.6363 25.8417 23.9934 25.2285L15.4714 9.05209L0.0750838 2.51562V15.0796L8.66384 18.7254C3.36209 23.3514 0 30.1632 0 37.755C0 51.6997 11.3001 62.9998 25.249 62.9998C39.1979 62.9998 50.4939 51.6997 50.4939 37.755C50.4939 30.1632 47.1401 23.3472 41.8342 18.7254H41.83Z" fill="#FDB813"/>
</svg>
