<svg width="54" height="53" viewBox="0 0 54 53" fill="none" xmlns="http://www.w3.org/2000/svg">
<mask id="path-1-inside-1_215_2513" fill="white">
<path fill-rule="evenodd" clip-rule="evenodd" d="M33.4599 37.2415H14C6.26801 37.2415 0 30.9735 0 23.2415C0 15.5096 6.26801 9.24154 14 9.24154H33.4599L45.6764 0.882137C48.9948 -1.38853 53.5 0.987673 53.5 5.00857L53.5 41.4745C53.5 45.4954 48.9948 47.8716 45.6764 45.6009L33.4599 37.2415Z"/>
</mask>
<path d="M33.4599 37.2415L35.7187 33.9404L34.6974 33.2415H33.4599V37.2415ZM33.4599 9.24154V13.2415H34.6974L35.7187 12.5427L33.4599 9.24154ZM45.6764 0.882137L47.9353 4.18328L47.9353 4.18328L45.6764 0.882137ZM53.5 5.00857H49.5V5.00857L53.5 5.00857ZM53.5 41.4745H57.5H53.5ZM45.6764 45.6009L47.9353 42.2998L45.6764 45.6009ZM33.4599 33.2415H14V41.2415H33.4599V33.2415ZM14 33.2415C8.47715 33.2415 4 28.7644 4 23.2415H-4C-4 33.1827 4.05888 41.2415 14 41.2415V33.2415ZM4 23.2415C4 17.7187 8.47715 13.2415 14 13.2415V5.24154C4.05887 5.24154 -4 13.3004 -4 23.2415H4ZM14 13.2415H33.4599V5.24154H14V13.2415ZM35.7187 12.5427L47.9353 4.18328L43.4176 -2.41901L31.201 5.94039L35.7187 12.5427ZM47.9353 4.18328C48.599 3.72916 49.5 4.20437 49.5 5.00857H57.5C57.5 -2.22903 49.3907 -6.50621 43.4176 -2.419L47.9353 4.18328ZM49.5 5.00857L49.5 41.4745H57.5L57.5 5.00857L49.5 5.00857ZM49.5 41.4745C49.5 42.2787 48.599 42.7539 47.9353 42.2998L43.4176 48.9021C49.3907 52.9893 57.5 48.7121 57.5 41.4745H49.5ZM47.9353 42.2998L35.7187 33.9404L31.201 40.5427L43.4176 48.9021L47.9353 42.2998Z" fill="#11141B" mask="url(#path-1-inside-1_215_2513)"/>
<path fill-rule="evenodd" clip-rule="evenodd" d="M9.14389 35.3477C9.2987 35.963 9.574 36.559 9.97499 37.1007L20.2467 50.9756C21.8897 53.195 25.0209 53.6622 27.2403 52.0192L29.6515 50.2342C31.8709 48.5911 32.3381 45.46 30.6951 43.2406L24.8519 35.3477H19.8751L27.4802 45.6206C27.8088 46.0645 27.7154 46.6907 27.2715 47.0193L24.8603 48.8043C24.4164 49.1329 23.7902 49.0395 23.4616 48.5956L13.6541 35.3477H9.14389Z" fill="#11141B"/>
<rect x="12" y="11" width="4" height="25" fill="#11141B"/>
</svg>
