<svg width="28" height="229" viewBox="0 0 28 229" fill="none" xmlns="http://www.w3.org/2000/svg">
<circle cx="13.9976" cy="4" r="4" fill="#BDC0C7"/>
<circle cx="13.9976" cy="21" r="4" fill="#BDC0C7"/>
<circle cx="13.9976" cy="38" r="4" fill="#BDC0C7"/>
<circle cx="13.9976" cy="55" r="4" fill="#BDC0C7"/>
<circle cx="13.9976" cy="72" r="4" fill="#BDC0C7"/>
<circle cx="13.9976" cy="89" r="4" fill="#BDC0C7"/>
<circle cx="13.9976" cy="157" r="4" fill="#BDC0C7"/>
<circle cx="13.9976" cy="174" r="4" fill="#BDC0C7"/>
<circle cx="13.9976" cy="191" r="4" fill="#BDC0C7"/>
<circle cx="13.9976" cy="208" r="4" fill="#BDC0C7"/>
<circle cx="13.9976" cy="225" r="4" fill="#BDC0C7"/>
<path fill-rule="evenodd" clip-rule="evenodd" d="M27.3083 114.586C26.5272 113.805 25.2609 113.805 24.4798 114.586L13.9471 125.119L3.41433 114.586C2.63328 113.805 1.36695 113.805 0.585901 114.586C-0.195147 115.367 -0.195147 116.633 0.585901 117.414L12.5019 129.33C12.8998 129.728 13.4237 129.923 13.9452 129.916C14.4679 129.924 14.9934 129.729 15.3922 129.33L27.3083 117.414C28.0893 116.633 28.0893 115.367 27.3083 114.586Z" fill="#ADB1BA"/>
</svg>
