<svg width="169" height="105" viewBox="0 0 169 105" fill="none" xmlns="http://www.w3.org/2000/svg">
<rect x="68.5723" y="52.5566" width="36.7105" height="52.4436" fill="url(#paint0_linear_875_3)"/>
<rect x="104.117" y="52.5566" width="64.0977" height="52.4436" fill="url(#paint1_linear_875_3)"/>
<rect x="128.008" y="52.5566" width="16.3158" height="23.3083" fill="#BF7C2D"/>
<rect x="109.361" y="91.0146" width="16.3158" height="8.7406" fill="#FDEBD6"/>
<rect x="111.693" y="92.7627" width="1.16541" height="5.24436" fill="#B28A5D"/>
<rect x="117.52" y="92.7627" width="1.16541" height="5.24436" fill="#B28A5D"/>
<rect x="119.85" y="92.7627" width="1.16541" height="5.24436" fill="#B28A5D"/>
<rect x="122.182" y="92.7627" width="1.16541" height="5.24436" fill="#B28A5D"/>
<rect x="114.023" y="92.7627" width="2.33083" height="5.24436" fill="#B28A5D"/>
<rect x="35.3574" width="36.7105" height="52.4436" fill="url(#paint2_linear_875_3)"/>
<rect x="70.9023" width="64.0977" height="52.4436" fill="url(#paint3_linear_875_3)"/>
<rect x="94.793" width="16.3158" height="23.3083" fill="#BF7C2D"/>
<rect x="76.1465" y="38.458" width="16.3158" height="8.7406" fill="#FDEBD6"/>
<rect x="78.4785" y="40.2061" width="1.16541" height="5.24436" fill="#B28A5D"/>
<rect x="84.3047" y="40.2061" width="1.16541" height="5.24436" fill="#B28A5D"/>
<rect x="86.6348" y="40.2061" width="1.16541" height="5.24436" fill="#B28A5D"/>
<rect x="88.9668" y="40.2061" width="1.16541" height="5.24436" fill="#B28A5D"/>
<rect x="80.8086" y="40.2061" width="2.33083" height="5.24436" fill="#B28A5D"/>
<rect y="52.5566" width="36.7105" height="52.4436" fill="url(#paint4_linear_875_3)"/>
<rect x="35.5449" y="52.5566" width="64.0977" height="52.4436" fill="url(#paint5_linear_875_3)"/>
<rect x="59.4355" y="52.5566" width="16.3158" height="23.3083" fill="#BF7C2D"/>
<rect x="40.7891" y="91.0146" width="16.3158" height="8.7406" fill="#FDEBD6"/>
<rect x="43.1211" y="92.7627" width="1.16541" height="5.24436" fill="#B28A5D"/>
<rect x="48.9473" y="92.7627" width="1.16541" height="5.24436" fill="#B28A5D"/>
<rect x="51.2773" y="92.7627" width="1.16541" height="5.24436" fill="#B28A5D"/>
<rect x="53.6094" y="92.7627" width="1.16541" height="5.24436" fill="#B28A5D"/>
<rect x="45.4512" y="92.7627" width="2.33083" height="5.24436" fill="#B28A5D"/>
<defs>
<linearGradient id="paint0_linear_875_3" x1="86.9275" y1="52.5566" x2="86.9275" y2="105" gradientUnits="userSpaceOnUse">
<stop stop-color="#99561E"/>
<stop offset="0.8" stop-color="#BE8035"/>
</linearGradient>
<linearGradient id="paint1_linear_875_3" x1="136.166" y1="52.5566" x2="136.166" y2="105" gradientUnits="userSpaceOnUse">
<stop stop-color="#E09F4D"/>
<stop offset="0.8" stop-color="#E4B264"/>
</linearGradient>
<linearGradient id="paint2_linear_875_3" x1="53.7127" y1="0" x2="53.7127" y2="52.4436" gradientUnits="userSpaceOnUse">
<stop stop-color="#99561E"/>
<stop offset="0.8" stop-color="#BE8035"/>
</linearGradient>
<linearGradient id="paint3_linear_875_3" x1="102.951" y1="0" x2="102.951" y2="52.4436" gradientUnits="userSpaceOnUse">
<stop stop-color="#E09F4D"/>
<stop offset="0.8" stop-color="#E4B264"/>
</linearGradient>
<linearGradient id="paint4_linear_875_3" x1="18.3553" y1="52.5566" x2="18.3553" y2="105" gradientUnits="userSpaceOnUse">
<stop stop-color="#99561E"/>
<stop offset="0.8" stop-color="#BE8035"/>
</linearGradient>
<linearGradient id="paint5_linear_875_3" x1="67.5938" y1="52.5566" x2="67.5938" y2="105" gradientUnits="userSpaceOnUse">
<stop stop-color="#E09F4D"/>
<stop offset="0.8" stop-color="#E4B264"/>
</linearGradient>
</defs>
</svg>
