<svg width="148" height="97" viewBox="0 0 148 97" fill="none" xmlns="http://www.w3.org/2000/svg">
<rect x="86" y="64.457" width="22.7799" height="32.5427" fill="url(#paint0_linear_875_2)"/>
<rect x="108.057" y="64.457" width="39.7744" height="32.5427" fill="url(#paint1_linear_875_2)"/>
<rect x="122.881" y="64.457" width="10.1244" height="14.4634" fill="#BF7C2D"/>
<rect x="111.311" y="88.3203" width="10.1244" height="5.42378" fill="#FDEBD6"/>
<rect x="112.758" y="89.4072" width="0.723171" height="3.25427" fill="#B28A5D"/>
<rect x="116.373" y="89.4072" width="0.723171" height="3.25427" fill="#B28A5D"/>
<rect x="117.82" y="89.4072" width="0.723171" height="3.25427" fill="#B28A5D"/>
<rect x="119.266" y="89.4072" width="0.723171" height="3.25427" fill="#B28A5D"/>
<rect x="114.203" y="89.4072" width="1.44634" height="3.25427" fill="#B28A5D"/>
<rect x="43.168" y="64.457" width="22.7799" height="32.5427" fill="url(#paint2_linear_875_2)"/>
<rect x="65.2246" y="64.457" width="39.7744" height="32.5427" fill="url(#paint3_linear_875_2)"/>
<rect x="80.0488" y="64.457" width="10.1244" height="14.4634" fill="#BF7C2D"/>
<rect x="68.4785" y="88.3203" width="10.1244" height="5.42378" fill="#FDEBD6"/>
<rect x="69.9258" y="89.4072" width="0.723171" height="3.25427" fill="#B28A5D"/>
<rect x="73.541" y="89.4072" width="0.723171" height="3.25427" fill="#B28A5D"/>
<rect x="74.9883" y="89.4072" width="0.723171" height="3.25427" fill="#B28A5D"/>
<rect x="76.4336" y="89.4072" width="0.723171" height="3.25427" fill="#B28A5D"/>
<rect x="71.3711" y="89.4072" width="1.44634" height="3.25427" fill="#B28A5D"/>
<rect y="64.457" width="22.7799" height="32.5427" fill="url(#paint4_linear_875_2)"/>
<rect x="22.0566" y="64.457" width="39.7744" height="32.5427" fill="url(#paint5_linear_875_2)"/>
<rect x="36.8809" y="64.457" width="10.1244" height="14.4634" fill="#BF7C2D"/>
<rect x="25.3105" y="88.3203" width="10.1244" height="5.42378" fill="#FDEBD6"/>
<rect x="26.7578" y="89.4072" width="0.723171" height="3.25427" fill="#B28A5D"/>
<rect x="30.373" y="89.4072" width="0.723171" height="3.25427" fill="#B28A5D"/>
<rect x="31.8203" y="89.4072" width="0.723171" height="3.25427" fill="#B28A5D"/>
<rect x="33.2656" y="89.4072" width="0.723171" height="3.25427" fill="#B28A5D"/>
<rect x="28.2031" y="89.4072" width="1.44634" height="3.25427" fill="#B28A5D"/>
<rect x="64" y="31.9141" width="22.7799" height="32.5427" fill="url(#paint6_linear_875_2)"/>
<rect x="86.0566" y="31.9141" width="39.7744" height="32.5427" fill="url(#paint7_linear_875_2)"/>
<rect x="100.881" y="31.9141" width="10.1244" height="14.4634" fill="#BF7C2D"/>
<rect x="89.3105" y="55.7773" width="10.1244" height="5.42378" fill="#FDEBD6"/>
<rect x="90.7578" y="56.8643" width="0.723171" height="3.25427" fill="#B28A5D"/>
<rect x="94.373" y="56.8643" width="0.723171" height="3.25427" fill="#B28A5D"/>
<rect x="95.8203" y="56.8643" width="0.723171" height="3.25427" fill="#B28A5D"/>
<rect x="97.2656" y="56.8643" width="0.723171" height="3.25427" fill="#B28A5D"/>
<rect x="92.2031" y="56.8643" width="1.44634" height="3.25427" fill="#B28A5D"/>
<rect x="44" width="22.7799" height="32.5427" fill="url(#paint8_linear_875_2)"/>
<rect x="66.0566" width="39.7744" height="32.5427" fill="url(#paint9_linear_875_2)"/>
<rect x="80.8809" width="10.1244" height="14.4634" fill="#BF7C2D"/>
<rect x="69.3105" y="23.8633" width="10.1244" height="5.42378" fill="#FDEBD6"/>
<rect x="70.7578" y="24.9502" width="0.723171" height="3.25427" fill="#B28A5D"/>
<rect x="74.373" y="24.9502" width="0.723171" height="3.25427" fill="#B28A5D"/>
<rect x="75.8203" y="24.9502" width="0.723171" height="3.25427" fill="#B28A5D"/>
<rect x="77.2656" y="24.9502" width="0.723171" height="3.25427" fill="#B28A5D"/>
<rect x="72.2031" y="24.9502" width="1.44634" height="3.25427" fill="#B28A5D"/>
<rect x="21.252" y="31.9141" width="22.7799" height="32.5427" fill="url(#paint10_linear_875_2)"/>
<rect x="43.3086" y="31.9141" width="39.7744" height="32.5427" fill="url(#paint11_linear_875_2)"/>
<rect x="58.1328" y="31.9141" width="10.1244" height="14.4634" fill="#BF7C2D"/>
<rect x="46.5625" y="55.7773" width="10.1244" height="5.42378" fill="#FDEBD6"/>
<rect x="48.0098" y="56.8643" width="0.723171" height="3.25427" fill="#B28A5D"/>
<rect x="51.625" y="56.8643" width="0.723171" height="3.25427" fill="#B28A5D"/>
<rect x="53.0723" y="56.8643" width="0.723171" height="3.25427" fill="#B28A5D"/>
<rect x="54.5176" y="56.8643" width="0.723171" height="3.25427" fill="#B28A5D"/>
<rect x="49.4551" y="56.8643" width="1.44634" height="3.25427" fill="#B28A5D"/>
<defs>
<linearGradient id="paint0_linear_875_2" x1="97.3899" y1="64.457" x2="97.3899" y2="96.9997" gradientUnits="userSpaceOnUse">
<stop stop-color="#99561E"/>
<stop offset="0.8" stop-color="#BE8035"/>
</linearGradient>
<linearGradient id="paint1_linear_875_2" x1="127.944" y1="64.457" x2="127.944" y2="96.9997" gradientUnits="userSpaceOnUse">
<stop stop-color="#E09F4D"/>
<stop offset="0.8" stop-color="#E4B264"/>
</linearGradient>
<linearGradient id="paint2_linear_875_2" x1="54.5579" y1="64.457" x2="54.5579" y2="96.9997" gradientUnits="userSpaceOnUse">
<stop stop-color="#99561E"/>
<stop offset="0.8" stop-color="#BE8035"/>
</linearGradient>
<linearGradient id="paint3_linear_875_2" x1="85.1118" y1="64.457" x2="85.1118" y2="96.9997" gradientUnits="userSpaceOnUse">
<stop stop-color="#E09F4D"/>
<stop offset="0.8" stop-color="#E4B264"/>
</linearGradient>
<linearGradient id="paint4_linear_875_2" x1="11.3899" y1="64.457" x2="11.3899" y2="96.9997" gradientUnits="userSpaceOnUse">
<stop stop-color="#99561E"/>
<stop offset="0.8" stop-color="#BE8035"/>
</linearGradient>
<linearGradient id="paint5_linear_875_2" x1="41.9438" y1="64.457" x2="41.9438" y2="96.9997" gradientUnits="userSpaceOnUse">
<stop stop-color="#E09F4D"/>
<stop offset="0.8" stop-color="#E4B264"/>
</linearGradient>
<linearGradient id="paint6_linear_875_2" x1="75.3899" y1="31.9141" x2="75.3899" y2="64.4567" gradientUnits="userSpaceOnUse">
<stop stop-color="#99561E"/>
<stop offset="0.8" stop-color="#BE8035"/>
</linearGradient>
<linearGradient id="paint7_linear_875_2" x1="105.944" y1="31.9141" x2="105.944" y2="64.4567" gradientUnits="userSpaceOnUse">
<stop stop-color="#E09F4D"/>
<stop offset="0.8" stop-color="#E4B264"/>
</linearGradient>
<linearGradient id="paint8_linear_875_2" x1="55.3899" y1="0" x2="55.3899" y2="32.5427" gradientUnits="userSpaceOnUse">
<stop stop-color="#99561E"/>
<stop offset="0.8" stop-color="#BE8035"/>
</linearGradient>
<linearGradient id="paint9_linear_875_2" x1="85.9438" y1="0" x2="85.9438" y2="32.5427" gradientUnits="userSpaceOnUse">
<stop stop-color="#E09F4D"/>
<stop offset="0.8" stop-color="#E4B264"/>
</linearGradient>
<linearGradient id="paint10_linear_875_2" x1="32.6419" y1="31.9141" x2="32.6419" y2="64.4567" gradientUnits="userSpaceOnUse">
<stop stop-color="#99561E"/>
<stop offset="0.8" stop-color="#BE8035"/>
</linearGradient>
<linearGradient id="paint11_linear_875_2" x1="63.1958" y1="31.9141" x2="63.1958" y2="64.4567" gradientUnits="userSpaceOnUse">
<stop stop-color="#E09F4D"/>
<stop offset="0.8" stop-color="#E4B264"/>
</linearGradient>
</defs>
</svg>
