<svg width="56" height="56" viewBox="0 0 56 56" fill="none" xmlns="http://www.w3.org/2000/svg">
<path fill-rule="evenodd" clip-rule="evenodd" d="M52 28C52 41.2548 41.2548 52 28 52C14.7452 52 4 41.2548 4 28C4 14.7452 14.7452 4 28 4C41.2548 4 52 14.7452 52 28ZM56 28C56 43.464 43.464 56 28 56C12.536 56 0 43.464 0 28C0 12.536 12.536 0 28 0C43.464 0 56 12.536 56 28ZM26 17C26 15.8954 26.8954 15 28 15C29.1046 15 30 15.8954 30 17V25H38C39.1046 25 40 25.8954 40 27C40 28.1046 39.1046 29 38 29H30V37C30 38.1046 29.1046 39 28 39C26.8954 39 26 38.1046 26 37V29H18C16.8954 29 16 28.1046 16 27C16 25.8954 16.8954 25 18 25H26V17Z" fill="#066AEB"/>
</svg>
