<svg width="200" height="130" viewBox="0 0 200 130" fill="none" xmlns="http://www.w3.org/2000/svg">
<rect width="200" height="130" rx="20" fill="#F9B000"/>
<path d="M61.665 65.7571L61.3899 65.579C60.4431 64.6322 59.1159 64.2195 57.3518 64.3247C55.879 64.4138 54.7138 64.9964 53.8236 65.5386C53.8236 65.5224 53.8236 65.5143 53.8236 65.4981C53.8236 65.0369 53.8722 64.5351 53.9288 64.0496C53.9774 63.556 54.034 63.0543 54.034 62.5768C54.034 62.0994 53.9774 61.63 53.8155 61.2416C53.7751 61.1445 53.6779 61.0797 53.5647 61.0797C53.0872 61.0878 52.1647 61.4115 51.9381 61.6138L51.8167 61.8809C51.8167 62.4069 51.6953 63.8797 51.574 64.0577L51.5092 64.2357C51.3069 66.3316 51.3069 68.1847 51.493 69.7708C51.5173 69.9327 51.8167 70.1673 52.0514 70.2564C52.3104 70.3535 53.1196 70.135 53.5889 69.957L53.767 69.9327C53.9126 69.9165 54.0016 69.7951 53.9935 69.6252L54.0016 69.172C54.3415 67.8044 55.701 66.1698 57.3114 65.927C58.2258 65.7813 58.9379 66.016 59.5125 66.6391C59.5853 66.7524 59.7552 67.7316 59.1564 68.8645C58.7113 69.698 57.8131 70.4101 56.6397 70.8471C55.523 71.2679 54.3011 71.4378 52.7878 71.3893C52.7231 71.3488 51.3717 70.4344 51.3717 70.4344C50.174 69.5928 48.685 68.5408 47.3336 68.031C47.0989 67.942 46.6701 67.5859 46.4192 67.3755L46.2816 67.2622C45.5048 66.6391 44.0158 65.6519 42.8262 64.8588C42.8262 64.8588 42.2921 64.4947 42.1869 64.4299C42.1869 64.3895 42.1869 64.2924 42.1869 64.2924C42.2193 64.2519 42.9719 63.8068 42.9719 63.8068C44.0158 63.1918 44.5013 62.8924 44.6065 62.7387C44.5823 62.7629 44.7441 62.6577 44.7441 62.6577C44.7522 62.6577 47.3417 61.1849 47.3417 61.1849C49.8341 59.8173 52.6583 58.2636 54.1392 56.7261L54.212 56.4914L54.2444 56.281C54.3415 55.9492 54.3496 55.6984 54.2687 55.4071C54.2444 55.3261 54.1716 55.229 54.0664 55.2129C52.9092 55.0996 51.4121 55.7874 50.0526 57.066C49.7451 57.3492 49.4862 57.4949 49.2191 57.6405L49.0087 57.7538C47.5116 58.6035 44.1291 60.6994 42.365 61.8323C42.4783 59.9306 42.8343 57.2278 43.2632 54.9701L43.2147 54.703L43.0285 54.3632L42.891 54.1204H42.8505C42.4944 53.9343 42.2112 54.0071 42.0008 54.0557L41.6448 54.1851L41.1754 54.3551C41.0864 54.3713 41.0136 54.4279 40.9812 54.5169C40.1396 56.5562 39.4356 59.9145 39.2656 62.6011C37.5824 61.5248 36.0206 60.7561 35.2519 60.3838H35.2276L35.1386 60.3514C34.8634 60.3191 34.5317 60.1168 34.208 59.9145C34.1756 59.8983 33.5687 59.5018 33.5687 59.5018L32.5895 58.8706L32.3306 58.8139C31.9098 58.8867 31.1005 59.4289 30.8578 59.8012C30.8254 59.8497 30.8173 59.8983 30.8173 59.9549C30.8173 60.0358 30.8416 60.1087 30.8578 60.1896L30.8982 60.3919L30.9468 60.5133C31.4161 60.9988 32.6057 61.8 33.7629 62.4231L35.1143 63.1352L37.1778 64.26L37.5258 64.5432L37.7686 64.6808C37.7686 64.6808 37.7928 64.697 37.809 64.7051C37.2588 65.0692 34.0542 67.2137 34.0542 67.2137L32.0797 68.5246C31.8936 68.6541 31.1167 69.0021 30.9387 69.0668C30.5098 69.2448 30.1861 69.5119 30.0566 69.7951L30 69.9084L30.0566 69.9812L30.2104 70.0945L30.4127 70.224L30.6312 70.3697L30.8335 70.402C31.1815 70.4182 31.6913 70.2159 32.6543 69.7951C33.5363 69.4067 35.9316 67.9582 36.9593 67.3432L37.3963 67.0842C37.5744 67.1004 37.7767 66.9466 37.9547 66.8172C38.157 66.6553 38.6102 66.3802 38.8772 66.2588C38.8853 66.2588 39.0391 66.1698 39.1847 66.0888C39.1847 66.1374 39.1847 66.2021 39.1847 66.2021C39.2333 69.3338 39.4113 71.6159 39.7512 73.3719V73.4043L39.7916 73.4771C39.9616 73.7279 40.1477 74.4643 40.3257 75.1198L40.7142 76.4308L40.8274 76.5521C41.0459 76.7059 41.7257 76.9648 42.1788 76.9082L42.2921 76.892L42.365 76.7302C42.4054 76.536 42.4135 76.3417 42.4135 76.1313C42.4135 75.8967 42.3973 75.6296 42.3731 75.3059L42.3407 74.8366C42.195 72.6517 42.0575 69.4876 42.0575 67.3836V67.2137C42.4297 67.4483 44.0563 68.468 44.0563 68.468C46.8238 70.2645 51.0075 72.9754 53.5323 73.6956C53.6618 73.736 53.7993 73.7037 53.8964 73.6147L54.2849 73.3638L54.3577 73.3314C54.5034 73.2667 54.6005 73.0158 54.6167 72.7569C56.7449 72.6517 59.7148 71.8263 61.309 69.8275C61.924 69.0506 62.1991 68.1038 62.1991 67.2946C62.1991 66.631 62.013 66.0565 61.6812 65.7409" fill="white"/>
<path d="M169.979 69.9805H155V71.6637H169.979V69.9805Z" fill="white"/>
<path d="M158.54 59.0816H168.364V57.3984H156.605V66.4294H168.364V64.7462H158.54V59.0816Z" fill="white"/>
<path d="M138.605 57.3984V59.1059H145.597V61.4527H138.605V63.1358H145.597V67.6351H147.572V57.3984H138.605Z" fill="white"/>
<path d="M149.953 72.7163H151.928V62.6738H153.918V60.9744H151.928V57.0254H149.953V72.7163Z" fill="white"/>
<path d="M113.407 63.936V66.3799H119.153V72.7566H117.186V68.0793H105.663V66.3799H111.449V63.936H104.457V62.2367H117.097V58.8541H105.873V57.1709H119.064V62.2286H120.464V63.936H113.407Z" fill="white"/>
<path d="M129.777 63.5324H124.388V59.1059H129.777V63.5324ZM131.727 57.3984H122.438V65.2398H131.727V57.3984Z" fill="white"/>
<path d="M136.535 72.6924H124.211V66.9307H126.169V70.993H136.535V72.6924Z" fill="white"/>
<path d="M136.38 57.0254H134.43V67.3268H136.38V57.0254Z" fill="white"/>
<path d="M86.3945 57.1963H94.0579C97.7075 57.1963 99.6092 58.402 99.6092 61.0563C99.6092 62.9418 98.2982 64.2366 96.5422 64.5845V64.6493C99.0508 64.9487 100.24 66.5914 100.24 68.4526C100.24 70.7832 98.5329 72.7901 94.3007 72.7901H86.3945V57.1963ZM88.8789 63.7672H93.9365C95.8139 63.7672 97.2058 63.0551 97.2058 61.3962C97.2058 59.9477 96.5179 58.9766 93.6533 58.9766H88.8789V63.7672ZM88.8789 71.026H93.7828C96.8255 71.026 97.6347 69.8364 97.6347 68.3231C97.6347 66.5348 96.3966 65.5394 93.6533 65.5394H88.8789V71.026Z" fill="white"/>
<path d="M69.5234 57.1963H72.0159V64.1718L80.3994 57.1963H83.9277L75.0666 64.2366L84.6641 72.7901H81.1358L72.0159 64.4308V72.7901H69.5234V57.1963Z" fill="white"/>
</svg>
