<svg width="45" height="45" viewBox="0 0 45 45" fill="none" xmlns="http://www.w3.org/2000/svg">
<path fill-rule="evenodd" clip-rule="evenodd" d="M44.2498 0.732234C43.2735 -0.244077 41.6906 -0.244078 40.7143 0.732232L22.491 18.9555L4.26777 0.732237C3.29146 -0.244073 1.70854 -0.244073 0.732234 0.732237C-0.244077 1.70855 -0.244078 3.29146 0.732233 4.26777L18.9555 22.491L0.732233 40.7143C-0.244078 41.6906 -0.244078 43.2735 0.732233 44.2498C1.70854 45.2261 3.29146 45.2261 4.26777 44.2498L22.491 26.0266L40.7143 44.2498C41.6906 45.2261 43.2735 45.2261 44.2498 44.2498C45.2261 43.2735 45.2261 41.6906 44.2498 40.7143L26.0266 22.491L44.2498 4.26777C45.2261 3.29146 45.2261 1.70854 44.2498 0.732234Z" fill="#11141B"/>
</svg>
