<svg width="58" height="59" viewBox="0 0 58 59" fill="none" xmlns="http://www.w3.org/2000/svg">
<path fill-rule="evenodd" clip-rule="evenodd" d="M31 54.0061C43.2122 53.0395 52.9545 43.2972 53.9212 31.085H44C42.8954 31.085 42 30.1895 42 29.085C42 27.9804 42.8954 27.085 44 27.085H53.9212C52.9545 14.8727 43.2122 5.13045 31 4.1638V14.085C31 15.1895 30.1046 16.085 29 16.085C27.8954 16.085 27 15.1895 27 14.085V4.1638C14.7878 5.13045 5.04548 14.8727 4.07884 27.085H14C15.1046 27.085 16 27.9804 16 29.085C16 30.1895 15.1046 31.085 14 31.085H4.07884C5.04548 43.2972 14.7878 53.0395 27 54.0061V44.085C27 42.9804 27.8954 42.085 29 42.085C30.1046 42.085 31 42.9804 31 44.085V54.0061ZM0 29.085C0 45.1012 12.9837 58.085 29 58.085C45.0163 58.085 58 45.1012 58 29.085C58 13.0687 45.0163 0.0849609 29 0.0849609C12.9837 0.0849609 0 13.0687 0 29.085Z" fill="#262D39"/>
</svg>
