<svg width="79" height="38" viewBox="0 0 79 38" fill="none" xmlns="http://www.w3.org/2000/svg">
<path d="M0.111015 18.8702C-0.0327746 18.9439 -0.0362817 19.0774 0.0969866 19.1687H0.0934795L12.2805 27.233L15.7665 10.7812L0.111015 18.8702Z" fill="#E72511"/>
<path d="M72.2758 10.7652H69.1931C69.0353 10.7652 68.7898 10.832 68.646 10.9022L53.1904 18.8752C53.0501 18.9455 53.0466 19.0789 53.1799 19.1703L65.1635 27.0695C65.2968 27.1538 65.5423 27.2241 65.7001 27.2241H68.7793C68.9406 27.2241 68.9582 27.1573 68.8319 27.0695L56.5958 19.0052L72.3074 10.8987C72.4477 10.8285 72.4372 10.7617 72.2758 10.7617V10.7652Z" fill="#F08300"/>
<path d="M65.6756 10.7656H44.2019L40.7124 27.228H62.1791C62.3404 27.228 62.358 27.1612 62.2247 27.0734L50.0131 19.0091L65.7037 10.9026C65.8405 10.8324 65.83 10.7656 65.6721 10.7656H65.6756Z" fill="#E72511"/>
<path d="M78.8621 10.7652H75.7829C75.625 10.7652 75.3796 10.832 75.2323 10.9022L59.7802 18.8752C59.6399 18.9455 59.6329 19.0789 59.7696 19.1703L71.7533 27.0695C71.8865 27.1538 72.1285 27.2241 72.2863 27.2241H75.3655C75.5269 27.2241 75.5514 27.1573 75.4146 27.0695L63.1855 19.0052L78.8936 10.8987C79.0374 10.8285 79.0234 10.7617 78.8586 10.7617L78.8621 10.7652Z" fill="#FABE00"/>
<path d="M64.722 0H14.1747C11.3515 0 9.37706 1.77373 8.91413 3.97246C8.66162 5.1807 9.11754 6.25196 10.0434 6.98955L28.2065 18.9982L28.2205 18.9912V18.9982L64.75 0.129957C64.8973 0.0597098 64.8868 0 64.722 0Z" fill="#E72511"/>
<path d="M56.7081 37.8402L28.2237 19H28.2167H28.2062L4.94388 31.0087C3.70589 31.7428 2.79055 32.8211 2.53804 34.0223C2.06809 36.2175 3.28154 38.0018 6.10823 38.0018H56.6625C56.8203 38.0018 56.8413 37.9315 56.7081 37.8402Z" fill="#E72511"/>
</svg>
