<svg width="84" height="84" viewBox="0 0 84 84" fill="none" xmlns="http://www.w3.org/2000/svg">
<circle cx="42" cy="42" r="40.5" fill="white" stroke="#CBD0D8" stroke-width="3"/>
<path fill-rule="evenodd" clip-rule="evenodd" d="M53.6279 27.609C59.4853 28.4035 64 33.4243 64 39.4995V50.6995C64 57.327 58.6274 62.6995 52 62.6995H32C25.3726 62.6995 20 57.327 20 50.6995V39.4995C20 33.4205 24.5203 28.3972 30.3831 27.6076L32.5714 24.6502C32.67 24.504 32.7748 24.3623 32.8856 24.2257C32.9146 24.1867 32.9454 24.1497 32.9776 24.1148C34.0782 22.8209 35.7182 22 37.55 22H46.45C48.2466 22 49.8588 22.7897 50.9584 24.0409C51.0198 24.0979 51.0768 24.1614 51.1285 24.2313L53.6279 27.609Z" fill="#066AEB"/>
<circle cx="41.95" cy="44.45" r="8.45" stroke="white" stroke-width="4"/>
</svg>
