<svg width="14" height="23" viewBox="0 0 14 23" fill="none" xmlns="http://www.w3.org/2000/svg">
<path d="M5.28809 15.6865C5.29785 14.4561 5.41992 13.46 5.6543 12.6982C5.88867 11.9268 6.2207 11.3115 6.65039 10.8525C7.08008 10.3936 7.65625 9.93945 8.37891 9.49023C8.81836 9.22656 9.19922 8.92871 9.52148 8.59668C9.85352 8.25488 10.1074 7.87891 10.2832 7.46875C10.459 7.05859 10.5469 6.60449 10.5469 6.10645C10.5469 5.52051 10.4102 5.00293 10.1367 4.55371C9.86328 4.09473 9.48242 3.74316 8.99414 3.49902C8.50586 3.24512 7.96387 3.12305 7.36816 3.13281C6.83105 3.12305 6.32324 3.23535 5.84473 3.46973C5.37598 3.69434 4.98047 4.0459 4.6582 4.52441C4.3457 4.99316 4.16992 5.5791 4.13086 6.28223H0.966797C1.00586 5.07129 1.30859 4.03125 1.875 3.16211C2.45117 2.2832 3.21777 1.61914 4.1748 1.16992C5.13184 0.720703 6.20117 0.496094 7.38281 0.496094C8.64258 0.496094 9.75586 0.730469 10.7227 1.19922C11.6895 1.66797 12.4365 2.33203 12.9639 3.19141C13.4912 4.04102 13.7549 5.02246 13.7549 6.13574C13.7549 7.26855 13.4961 8.24512 12.9785 9.06543C12.4707 9.88574 11.7285 10.5889 10.752 11.1748C10.1465 11.5459 9.66797 11.9268 9.31641 12.3174C8.97461 12.6982 8.71582 13.1572 8.54004 13.6943C8.36426 14.2314 8.27148 14.8955 8.26172 15.6865V15.9062H5.28809V15.6865ZM6.87012 22.2051C6.48926 22.2051 6.1377 22.1123 5.81543 21.9268C5.50293 21.7314 5.25391 21.4775 5.06836 21.165C4.88281 20.8428 4.79492 20.4912 4.80469 20.1104C4.79492 19.7393 4.88281 19.3975 5.06836 19.085C5.25391 18.7627 5.50293 18.5137 5.81543 18.3379C6.1377 18.1523 6.48926 18.0596 6.87012 18.0596C7.24121 18.0596 7.58301 18.1523 7.89551 18.3379C8.21777 18.5137 8.47168 18.7627 8.65723 19.085C8.84277 19.4072 8.93555 19.749 8.93555 20.1104C8.93555 20.4912 8.84277 20.8428 8.65723 21.165C8.47168 21.4775 8.21777 21.7314 7.89551 21.9268C7.58301 22.1123 7.24121 22.2051 6.87012 22.2051Z" fill="#757B86"/>
</svg>
