<svg width="40" height="51" viewBox="0 0 40 51" fill="none" xmlns="http://www.w3.org/2000/svg">
<path fill-rule="evenodd" clip-rule="evenodd" d="M28 25V11C28 6.58172 24.4183 3 20 3C15.5817 3 12 6.58172 12 11V25C12 29.4183 15.5817 33 20 33C24.4183 33 28 29.4183 28 25ZM20 0C13.9249 0 9 4.92487 9 11V25C9 31.0751 13.9249 36 20 36C26.0751 36 31 31.0751 31 25V11C31 4.92487 26.0751 0 20 0ZM0 21.5V24C0 34.5411 8.1549 43.1775 18.5 43.9446V49.5C18.5 50.3284 19.1716 51 20 51C20.8284 51 21.5 50.3284 21.5 49.5V43.9446C31.8451 43.1775 40 34.5411 40 24V21.5C40 20.6716 39.3284 20 38.5 20C37.6716 20 37 20.6716 37 21.5V24C37 33.3888 29.3888 41 20 41C10.6112 41 3 33.3888 3 24V21.5C3 20.6716 2.32843 20 1.5 20C0.671573 20 0 20.6716 0 21.5Z" fill="#262D39"/>
</svg>
