<svg width="135" height="135" viewBox="0 0 135 135" fill="none" xmlns="http://www.w3.org/2000/svg">
<path d="M50.1795 30C57.8775 16.6667 77.1225 16.6667 84.8205 30L108.636 71.25C116.334 84.5833 106.712 101.25 91.3157 101.25H43.6843C28.2883 101.25 18.6658 84.5833 26.3638 71.25L50.1795 30Z" fill="#FC3227"/>
<path fill-rule="evenodd" clip-rule="evenodd" d="M67.4999 36.3467C64.6323 36.3467 62.3076 38.6714 62.3076 41.539V62.3082C62.3076 65.1758 64.6323 67.5005 67.4999 67.5005C70.3676 67.5005 72.6922 65.1759 72.6922 62.3082V41.539C72.6922 38.6714 70.3676 36.3467 67.4999 36.3467ZM67.4999 72.693C64.6323 72.693 62.3076 75.0177 62.3076 77.8853C62.3076 80.7529 64.6323 83.0776 67.4999 83.0776C70.3676 83.0776 72.6922 80.7529 72.6922 77.8853C72.6922 75.0177 70.3676 72.693 67.4999 72.693Z" fill="white"/>
</svg>
