<svg width="63" height="62" viewBox="0 0 63 62" fill="none" xmlns="http://www.w3.org/2000/svg">
<path fill-rule="evenodd" clip-rule="evenodd" d="M60.3893 40.8C60.474 40.5488 60.52 40.2798 60.52 40C60.52 38.6194 59.4007 37.5 58.02 37.5C56.7907 37.5 55.7687 38.3875 55.5593 39.5564C52.0214 49.7124 42.3618 57 31 57C16.6406 57 5 45.3594 5 31C5 16.6406 16.6406 5 31 5C41.4279 5 50.4219 11.1389 54.5653 20H40.5C39.1193 20 38 21.1194 38 22.5C38 23.8806 39.1193 25 40.5 25H60.5C61.8807 25 63 23.8806 63 22.5V2.5C63 1.11938 61.8807 0 60.5 0C59.1193 0 58 1.11938 58 2.5V15.7573C52.6776 6.34961 42.5803 0 31 0C13.8792 0 0 13.8792 0 31C0 48.1208 13.8792 62 31 62C44.6961 62 56.3177 53.1182 60.4191 40.8H60.3893Z" fill="black"/>
</svg>
