<svg width="86" height="50" viewBox="0 0 86 50" fill="none" xmlns="http://www.w3.org/2000/svg">
<path d="M18.7678 39.6306C18.1516 43.0465 19.893 44.1383 22.9272 44.1383C25.0772 44.1383 27.4885 43.3278 27.9774 41.1711C28.5535 38.6125 24.7557 38.1235 21.0652 36.9447C17.4148 35.7725 13.7376 33.8971 14.9433 28.579C16.3833 22.2427 22.9674 19.7578 28.1114 19.7578C33.5635 19.7578 38.4128 22.5642 36.966 29.1148H29.8261C30.5427 26.4691 28.3927 25.6185 26.2092 25.6185C24.6687 25.6185 22.6258 26.1811 22.1904 28.0967C21.6814 30.3338 25.5461 30.7357 29.2634 31.9212C32.954 33.0934 36.4972 35.0425 35.3117 40.2869C33.6439 47.6413 27.2005 49.9989 21.1723 49.9989C15.1442 49.9989 9.98011 47.0719 11.6211 39.6439H18.7611L18.7678 39.6306Z" fill="#005FA2"/>
<path d="M68.1516 20.3672H75.2849L68.7142 49.3826H61.5742L68.1516 20.3672Z" fill="#005FA2"/>
<path d="M42.1431 20.3661H54.9496C59.6917 20.2857 64.5812 21.5851 63.2081 27.64C62.612 30.2388 60.683 32.3554 58.2717 33.4873C60.9844 34.3781 62.1833 37.0707 61.4332 40.3527C59.8658 47.2716 54.5946 49.3748 48.7205 49.3748H35.5591L42.1364 20.3594L42.1431 20.3661ZM46.6843 31.786H52.2101C53.4358 31.786 55.2845 31.0894 55.7466 29.0198C56.2356 26.9099 54.963 26.2134 53.476 26.2134H47.9502L46.6843 31.786ZM44.0721 43.3266H49.7922C52.0561 43.3266 53.8243 42.4759 54.3668 40.0781C54.9496 37.5128 53.4492 36.6621 51.2992 36.6621H45.5792L44.0721 43.3266Z" fill="#005FA2"/>
<path d="M85.2579 8.71346C81.3128 -1.76209 58.7341 -2.96102 34.8426 6.03429C17.8031 12.4576 4.69524 22.3303 0 31.2721C6.48359 24.4938 16.9591 17.8427 29.5981 13.0805C53.4963 4.0718 76.0683 5.27742 80.0134 15.753C81.1453 18.7603 80.6229 22.1964 78.7341 25.7932C84.5077 19.765 87.1199 13.6431 85.2579 8.70676" fill="#EE323C"/>
</svg>
