<svg width="41" height="63" viewBox="0 0 41 63" fill="none" xmlns="http://www.w3.org/2000/svg">
<path d="M12.3788 60.813C10.7257 61.8023 9.22878 62.388 7.65377 62.388C3.59259 62.388 0.195249 59.0688 0 55.0597L7.9141 50.3477L20.2278 55.8537L12.3788 60.826V60.813Z" fill="#82BAD9"/>
<path d="M17.0905 40.546L11.207 37.9427C8.59066 36.7712 6.10449 35.7819 6.10449 32.8922C6.10449 31.3953 6.56007 30.6013 7.27599 29.8203L19.7199 35.3003L16.6479 37.0836C15.7889 37.6042 15.2031 38.0598 15.2031 38.7237C15.2031 39.4266 16.0101 40.0384 17.1035 40.533" fill="#B1D6A1"/>
<path d="M22.8699 13.3811L16.8432 17.0387C16.2965 17.3642 15.5806 17.8848 15.5806 18.6788C15.5806 19.603 16.9864 20.2929 18.223 20.8786L10.6734 17.5594C8.44752 16.5832 6.22168 15.4637 6.22168 12.7823C6.22168 11.6499 6.54709 10.7387 7.06776 9.95771L23.3906 0C25.3561 1.10641 27.2435 3.34527 27.2435 6.35211C27.2435 9.56721 25.6164 11.728 22.8699 13.3811Z" fill="#82BAD9"/>
<path d="M35.7043 25.174L34.2074 26.0201L21.7505 20.5141L36.238 11.793C38.1905 12.9254 40.1169 15.1513 40.1169 18.1451C40.1169 21.3602 38.5289 23.586 35.7173 25.161" fill="#B1D6A1"/>
<path d="M25.1745 35.7539L32.555 38.995C35.3145 40.2186 36.1606 41.6895 36.1606 43.5118C36.1606 44.5662 35.5748 45.6075 34.7287 46.3234L22.3369 40.8174L24.4326 39.6459C26.2159 38.6696 26.8016 38.0709 26.8016 37.42C26.8016 36.7692 26.3851 36.3006 25.1876 35.7539" fill="#82BAD9"/>
<path d="M38.3208 62.9749C35.1838 60.5669 31.8255 58.9268 27.7513 57.0784L8.9553 48.7608C4.23027 46.6651 1.09326 43.8535 1.09326 39.1285C1.09326 34.4035 3.30609 32.3208 6.20879 30.4985L7.25012 29.8477C6.53421 30.6287 6.07862 31.4097 6.07862 32.9196C6.07862 35.8093 8.5648 36.7855 11.1811 37.97L33.049 47.6153C36.8499 49.2424 40.3383 52.054 40.3383 56.8311C40.3383 59.4735 39.3491 61.8165 38.3078 63.001" fill="#00A539"/>
<path d="M36.0947 45.4794L34.728 46.3254C35.5741 45.6095 36.1598 44.5552 36.1598 43.5139C36.1598 41.6785 35.3137 40.2207 32.5542 38.9971L9.16337 28.701C4.43834 26.6183 1.49658 23.9108 1.49658 19.2118C1.49658 14.8773 3.65734 12.0527 7.06769 9.95703C6.54703 10.738 6.22161 11.6492 6.22161 12.7816C6.22161 15.4631 8.44745 16.5695 10.6733 17.5587L33.4003 27.5945C37.5396 29.4169 40.8848 32.1894 40.8848 37.2268C40.8848 41.1579 39.0495 43.657 36.1077 45.4794" fill="#007DBA"/>
</svg>
