<svg width="42" height="42" viewBox="0 0 42 42" fill="none" xmlns="http://www.w3.org/2000/svg">
<path fill-rule="evenodd" clip-rule="evenodd" d="M31 18C31 25.1797 25.1797 31 18 31C10.8203 31 5 25.1797 5 18C5 10.8203 10.8203 5 18 5C25.1797 5 31 10.8203 31 18ZM28.8375 32.3731C25.8227 34.6498 22.069 36 18 36C8.05888 36 0 27.9411 0 18C0 8.0589 8.05888 0 18 0C27.9411 0 36 8.0589 36 18C36 22.0691 34.6498 25.8228 32.373 28.8376L40.9537 37.4183C41.93 38.3946 41.93 39.9775 40.9537 40.9538C39.9774 41.9301 38.3945 41.9301 37.4182 40.9538L28.8375 32.3731Z" fill="#7E8082"/>
</svg>
