<svg width="51" height="30" viewBox="0 0 51 30" fill="none" xmlns="http://www.w3.org/2000/svg">
<path fill-rule="evenodd" clip-rule="evenodd" d="M33.8721 3.41421C33.0911 2.63316 33.0911 1.36683 33.8721 0.585786C34.6532 -0.195262 35.9195 -0.195262 36.7005 0.585786L49.6069 13.4922C50.0194 13.9047 50.214 14.4525 50.1908 14.9927C50.2137 15.5325 50.019 16.0798 49.6068 16.4919L36.7005 29.3983C35.9194 30.1793 34.6531 30.1793 33.872 29.3983C33.091 28.6172 33.091 27.3509 33.872 26.5699L43.4419 17L1.99988 17C0.895314 17 -0.000118256 16.1046 -0.000118256 15C-0.000118256 13.8954 0.895312 13 1.99988 13L43.4579 13L33.8721 3.41421Z" fill="#ADB1BA"/>
</svg>
