<svg width="52" height="52" viewBox="0 0 52 52" fill="none" xmlns="http://www.w3.org/2000/svg">
<path fill-rule="evenodd" clip-rule="evenodd" d="M28.7826 6.81V9.63871L31.4496 10.5814C31.9953 10.7742 32.5278 10.9953 33.0454 11.243L35.5989 12.4649L37.6004 10.4632L37.6198 10.4438C38.7065 9.35715 40.4683 9.35715 41.555 10.4438C42.6416 11.5305 42.6417 13.2922 41.5552 14.3789L41.555 14.379L41.5361 14.3979L39.5342 16.3997L40.7564 18.9533C41.0043 19.4714 41.2256 20.0043 41.4186 20.5504L42.3613 23.2174H45.19H45.2174C46.7542 23.2174 48 24.4632 48 26C48 27.5368 46.7542 28.7826 45.2174 28.7826H45.19H42.3613L41.4186 31.4496C41.2258 31.9952 41.0047 32.5276 40.757 33.0452L39.5353 35.5986L41.5368 37.6002L41.5564 37.6197C42.643 38.7064 42.643 40.4682 41.5564 41.5549C40.4697 42.6416 38.7078 42.6416 37.6212 41.5549L37.6021 41.5359L35.6004 39.5341L33.0468 40.7563C32.5287 41.0043 31.9958 41.2256 31.4496 41.4186L28.7826 42.3613V45.19V45.2174C28.7826 46.7542 27.5368 48 26 48C24.4632 48 23.2174 46.7542 23.2174 45.2174V45.19V42.3613L20.5504 41.4186C20.0051 41.2259 19.473 41.005 18.9557 40.7575L16.4024 39.536L14.401 41.5374L14.3802 41.5583C13.2935 42.645 11.5316 42.645 10.445 41.5583C9.3583 40.4716 9.35829 38.7098 10.4449 37.6231L10.445 37.6231L10.4647 37.6034L12.4666 35.6015L11.2442 33.0478C10.996 32.5294 10.7745 31.9961 10.5814 31.4496L9.63871 28.7826H6.81H6.78261C5.24582 28.7826 4 27.5368 4 26C4 24.4632 5.24582 23.2174 6.78261 23.2174H6.81H9.63871L10.5814 20.5504C10.7742 20.0047 10.9953 19.4722 11.243 18.9546L12.4649 16.4012L10.4632 14.3996L10.4437 14.38L10.4436 14.38C9.35697 13.2933 9.357 11.5315 10.4436 10.4448C11.5303 9.35819 13.2921 9.35817 14.3788 10.4448L14.3789 10.4448L14.398 10.464L16.3997 12.4658L18.9533 11.2436C19.4714 10.9957 20.0043 10.7744 20.5504 10.5814L23.2174 9.63871V6.81V6.78261C23.2174 5.24582 24.4632 4 26 4C27.5368 4 28.7826 5.24582 28.7826 6.78261V6.81ZM7.63627 34.7749L7.61654 34.7947C7.31288 35.0983 7.04404 35.4236 6.81 35.7656L6.78261 35.8059C6.57439 36.1149 6.39439 36.4372 6.24259 36.7693C5.09871 39.2717 5.55669 42.3269 7.61654 44.3867C9.67556 46.4457 12.729 46.9042 15.2309 45.762C15.5658 45.6092 15.8908 45.4276 16.2022 45.2174L16.2425 45.19C16.5827 44.9567 16.9063 44.689 17.2086 44.3867L17.2295 44.3658C17.8741 44.6742 18.5374 44.9497 19.2174 45.19V45.2174C19.2174 45.645 19.257 46.0634 19.3326 46.469L19.3425 46.5206C19.414 46.8884 19.5153 47.2455 19.6437 47.5894C20.6055 50.1656 23.0885 52 26 52C28.9128 52 31.3967 50.1639 32.3575 47.586C32.4856 47.2423 32.5867 46.8855 32.658 46.518L32.667 46.4711C32.7429 46.0648 32.7826 45.6457 32.7826 45.2174V45.19C33.4637 44.9493 34.1281 44.6733 34.7737 44.3643L34.7927 44.3833C35.0964 44.687 35.4218 44.9559 35.7638 45.19L35.8042 45.2174C36.1137 45.4259 36.4366 45.6062 36.7693 45.7581C39.2714 46.9009 42.3255 46.4427 44.3848 44.3833C46.4437 42.3244 46.9022 39.271 45.7602 36.7692C45.6078 36.4352 45.4268 36.1111 45.2174 35.8005L45.19 35.7602C44.9563 35.419 44.6879 35.0943 44.3848 34.7913L44.3653 34.7717C44.6739 34.1268 44.9495 33.463 45.19 32.7826H45.2174C45.6453 32.7826 46.0639 32.743 46.4698 32.6672L46.518 32.658C46.8862 32.5865 47.2438 32.4852 47.5881 32.3568C50.1649 31.3954 52 28.912 52 26C52 23.0873 50.164 20.6034 47.5862 19.6425C47.2425 19.5144 46.8855 19.4133 46.5179 19.342L46.5177 19.3419L46.4707 19.3329C46.0645 19.2571 45.6456 19.2174 45.2174 19.2174H45.19C44.9493 18.5364 44.6734 17.872 44.3644 17.2265L44.3834 17.2075C44.6871 16.9038 44.956 16.5785 45.19 16.2365L45.2174 16.1962C45.426 15.8866 45.6063 15.5635 45.7583 15.2307C46.901 12.7287 46.4427 9.67468 44.3834 7.6154C42.3245 5.55641 39.271 5.09795 36.7692 6.24001C36.4354 6.39239 36.1114 6.57325 35.8009 6.78261L35.7606 6.81C35.4193 7.04377 35.0945 7.31223 34.7914 7.6154L34.7719 7.63484C34.1269 7.32618 33.4631 7.05051 32.7826 6.81V6.78261C32.7826 6.35473 32.743 5.93611 32.6672 5.53021L32.6581 5.48219L32.658 5.48205C32.5866 5.11391 32.4853 4.75639 32.3568 4.41212C31.3955 1.83519 28.9121 0 26 0C23.0873 0 20.6034 1.83598 19.6425 4.41379C19.5144 4.75743 19.4134 5.11425 19.342 5.48167L19.342 5.4818L19.333 5.52919C19.2571 5.93541 19.2174 6.35437 19.2174 6.78261V6.81C18.5364 7.05071 17.872 7.32664 17.2265 7.6356L17.2073 7.61642C16.9037 7.31281 16.5784 7.04401 16.2366 6.81L16.1962 6.78261C15.8866 6.57395 15.5635 6.39361 15.2307 6.24161C12.7287 5.09881 9.67455 5.55709 7.61522 7.61642C5.5562 9.67544 5.09775 12.7289 6.2399 15.2308C6.3923 15.5647 6.57321 15.8887 6.78261 16.1992L6.81 16.2395C7.04373 16.5808 7.31214 16.9054 7.61522 17.2085L7.63483 17.2281C7.32617 17.8731 7.05051 18.5369 6.81 19.2174H6.78261C6.35474 19.2174 5.93612 19.257 5.53022 19.3328L5.4818 19.342L5.48167 19.342C5.11365 19.4135 4.75625 19.5148 4.41208 19.6432C1.83517 20.6045 0 23.0879 0 26C0 28.9132 1.83665 31.3975 4.41519 32.358C4.7577 32.4856 5.1133 32.5863 5.47941 32.6575L5.47948 32.6575L5.52823 32.6668C5.93475 32.7429 6.35404 32.7826 6.78261 32.7826H6.81C7.05088 33.4641 7.32703 34.129 7.63627 34.7749ZM31 26C31 28.7614 28.7614 31 26 31C23.2386 31 21 28.7614 21 26C21 23.2386 23.2386 21 26 21C28.7614 21 31 23.2386 31 26ZM35 26C35 30.9706 30.9706 35 26 35C21.0294 35 17 30.9706 17 26C17 21.0294 21.0294 17 26 17C30.9706 17 35 21.0294 35 26Z" fill="black"/>
</svg>
