<svg width="72" height="63" viewBox="0 0 72 63" fill="none" xmlns="http://www.w3.org/2000/svg">
<path d="M64.8364 37.0638C61.6667 44.9377 56.3587 47.1682 56.3587 47.1682C71.9725 31.3365 62.4382 13.1065 62.4382 13.1065C60.1322 9.01438 63.0671 7.23666 63.0671 7.23666C56.3587 8.91375 58.4551 14.4649 58.4551 14.4649C61.826 22.4898 61.1468 29.0137 60.0064 33.0471L57.7926 31.8061L57.8262 31.7558C57.8262 31.7558 63.0671 11.1191 41.7009 3.88247L41.6841 0H37.1728V25.5757L58.1364 37.525C57.7507 38.2964 57.3482 39.0343 56.9289 39.722L35.873 27.5211L14.7249 39.722C14.3056 39.0343 13.8947 38.3048 13.5174 37.525L34.481 25.5757V0H29.9697L29.9529 3.88247C8.5951 11.1191 13.836 31.7641 13.836 31.7641L13.8696 31.8145L11.6558 33.0555C10.507 29.0221 9.83615 22.4982 13.2071 14.4733C13.2071 14.4733 15.3035 8.92214 8.5951 7.24504C8.5951 7.24504 11.53 9.02276 9.22401 13.1149C9.22401 13.1149 -0.318647 31.3533 15.3035 47.1766C15.3035 47.1766 9.99547 44.9461 6.82577 37.0721C6.82577 37.0721 5.03128 33.2316 0 34.0701C0 34.0701 1.89512 34.9339 3.01038 38.4138C3.01038 38.4138 7.54692 52.8368 25.0474 55.0338V63H33.6425V51.2604C33.6425 51.2604 24.5275 51.1849 17.5592 43.529L19.7226 42.2711C20.1251 42.6485 26.7412 48.7783 35.7724 48.9376C35.7724 48.9376 35.8059 48.9376 35.8227 48.9376C35.8395 48.9376 35.8562 48.9376 35.873 48.9376C44.9042 48.7699 51.5203 42.6485 51.9228 42.2711L54.0863 43.529C47.1263 51.1849 38.0029 51.2604 38.0029 51.2604V63H46.598V55.0338C64.1069 52.8368 68.635 38.4138 68.635 38.4138C69.7503 34.9339 71.6454 34.0701 71.6454 34.0701C66.6141 33.2316 64.8196 37.0721 64.8196 37.0721L64.8364 37.0638ZM53.6334 29.4498L53.6167 29.4665L41.7848 22.842L41.7177 8.68734H41.7848C41.7848 8.68734 56.0401 12.5614 53.625 29.4414L53.6334 29.4498ZM29.869 8.70411H29.9361L29.869 22.8588L18.0455 29.4833L18.0287 29.4665C15.6137 12.595 29.869 8.7125 29.869 8.7125V8.70411ZM35.8646 32.871L47.6546 39.7639V39.7806L47.554 39.722C43.3361 43.051 39.3111 44.1579 35.8311 44.1579C32.3511 44.1579 28.3261 43.0594 24.1082 39.722L24.0076 39.7806V39.7639L35.873 32.871H35.8646Z" fill="#0058A5"/>
</svg>
