<svg width="58" height="58" viewBox="0 0 58 58" fill="none" xmlns="http://www.w3.org/2000/svg">
<circle cx="29" cy="29" r="29" fill="#B9BABC"/>
<path fill-rule="evenodd" clip-rule="evenodd" d="M19.2322 19.2322C18.2559 20.2085 18.2559 21.7915 19.2322 22.7678L25.5962 29.1318L19.2323 35.4957C18.256 36.472 18.256 38.0549 19.2323 39.0312C20.2086 40.0075 21.7915 40.0075 22.7678 39.0312L29.1318 32.6673L35.4957 39.0312C36.472 40.0075 38.0549 40.0075 39.0312 39.0312C40.0075 38.0549 40.0075 36.472 39.0312 35.4957L32.6673 29.1318L39.0313 22.7678C40.0076 21.7915 40.0076 20.2086 39.0313 19.2322C38.055 18.2559 36.4721 18.2559 35.4958 19.2322L29.1318 25.5962L22.7678 19.2322C21.7915 18.2559 20.2085 18.2559 19.2322 19.2322Z" fill="white"/>
</svg>
