<svg width="66" height="66" viewBox="0 0 66 66" fill="none" xmlns="http://www.w3.org/2000/svg">
<path d="M65.9773 33C65.9773 51.2174 51.1948 66 33 66C14.8052 66 0 51.2174 0 33C0 14.7825 14.7599 0 33 0C51.2401 0 65.9773 14.7712 65.9773 33Z" fill="white"/>
<path d="M32.9885 64.3349C50.3558 64.3349 64.4241 50.2552 64.4241 32.888C64.4241 15.5207 50.3444 1.42969 32.9659 1.42969C15.5873 1.42969 1.53027 15.5094 1.53027 32.888C1.53027 50.2665 15.6213 64.3349 32.9885 64.3349Z" fill="#007BC7"/>
<mask id="mask0_238_4395" style="mask-type:luminance" maskUnits="userSpaceOnUse" x="1" y="1" width="64" height="64">
<path d="M32.9995 64.3208C50.3554 64.3208 64.4351 50.2411 64.4351 32.8852C64.4351 15.5293 50.3554 1.46094 32.9541 1.46094C15.5529 1.46094 1.51855 15.5293 1.51855 32.8852C1.51855 50.2411 15.5983 64.3208 32.9995 64.3208Z" fill="white"/>
</mask>
<g mask="url(#mask0_238_4395)">
<path d="M33.102 48.0526C46.9323 48.0526 58.7901 51.8956 63.8574 57.3711C65.5579 53.46 66.4761 49.1636 66.4761 44.6404C66.4761 26.593 51.5349 11.9805 33.102 11.9805C14.6692 11.9805 -0.260742 26.6043 -0.260742 44.6517C-0.260742 49.1636 0.668835 53.46 2.38062 57.3711C7.43661 51.8956 19.2944 48.0526 33.102 48.0526Z" fill="#007BC7"/>
<path d="M33.1018 12.2773C14.7483 12.2773 -0.158968 26.7992 -0.181641 44.6992L-0.158968 45.8782C-0.011596 49.9479 0.895309 53.8136 2.43705 57.3392C7.49304 51.9204 19.3281 48.1001 33.1018 48.1001C46.8754 48.1001 58.6992 51.9204 63.7665 57.3392C65.3196 53.8022 66.2265 49.9366 66.3852 45.8782L66.4078 44.6879C66.3852 26.7992 51.4779 12.2773 33.1131 12.2773H33.1018Z" fill="#007DC8"/>
<path d="M33.1019 12.5465C14.8051 12.5465 -0.0681477 26.9889 -0.0908203 44.7076V45.8979C0.0565517 49.9336 0.963456 53.788 2.52787 57.3022C7.56119 51.9062 19.3623 48.1198 33.1019 48.1198C46.8415 48.1198 58.6313 51.9062 63.6873 57.3022C65.2517 53.7766 66.1586 49.9223 66.3059 45.8866L66.3286 44.7076C66.2719 26.9776 51.4214 12.5352 33.1132 12.5352L33.1019 12.5465Z" fill="#007FCA"/>
<path d="M33.1021 12.832C14.862 12.832 0.0341148 27.1725 -0.0112305 44.7551L0.0114421 45.9227C0.147478 49.9471 1.06572 53.7788 2.58478 57.2704C7.61811 51.9196 19.3739 48.1673 33.0908 48.1673C46.8077 48.1673 58.5635 51.9196 63.6081 57.2704C65.1499 53.7788 66.0681 49.9471 66.1928 45.9227L66.2155 44.7437C66.1475 27.1725 51.3423 12.832 33.0908 12.832H33.1021Z" fill="#0080CB"/>
<path d="M33.102 13.1051C14.9185 13.1051 0.158667 27.3662 0.0566406 44.7787L0.0906496 45.9464C0.215349 49.9368 1.13359 53.7344 2.67533 57.2147C7.69731 51.9093 19.4191 48.191 33.102 48.191C46.7849 48.191 58.4953 51.9093 63.5286 57.2147C65.0931 53.7344 65.9886 49.9254 66.1247 45.935V44.7561C66.0453 27.3435 51.2854 13.0938 33.102 13.0938V13.1051Z" fill="#0082CC"/>
<path d="M33.0907 13.375C14.9752 13.375 0.249382 27.5454 0.158691 44.8106V45.9669C0.294727 49.9346 1.1903 53.7209 2.73203 57.1898C7.75402 51.9298 19.4531 48.2342 33.0793 48.2342C46.7056 48.2342 58.416 51.9298 63.4153 57.1898C64.9797 53.7209 65.8753 49.9459 66.0227 45.9669V44.8106C65.9206 27.5454 51.2061 13.3863 33.0793 13.3863L33.0907 13.375Z" fill="#0084CD"/>
<path d="M33.091 13.668C15.0209 13.668 0.35175 27.7363 0.227051 44.8315V45.9991C0.363086 49.9442 1.26999 53.7078 2.82307 57.1427C7.82238 51.928 19.4874 48.2777 33.091 48.2777C46.6946 48.2777 58.371 51.928 63.359 57.1427C64.912 53.7078 65.8303 49.9328 65.9323 45.9878V44.8315C65.8303 27.7363 51.1384 13.668 33.091 13.668Z" fill="#0086CF"/>
<path d="M33.0908 13.9414C15.066 13.9414 0.464861 27.9191 0.306152 44.8669V46.0118C0.442188 49.9455 1.34909 53.6865 2.89083 57.0987C7.85613 51.9294 19.5099 48.3018 33.0794 48.3018C46.649 48.3018 58.28 51.9294 63.2567 57.0987C64.8211 53.6865 65.7167 49.9342 65.83 46.0118V44.8555C65.694 27.9191 51.0588 13.9414 33.0681 13.9414H33.0908Z" fill="#0088D0"/>
<path d="M33.0796 14.2266C15.1455 14.2266 0.567017 28.1135 0.396973 44.9026V46.0476C0.510336 49.9586 1.41724 53.6656 2.97031 57.0665C7.92428 51.9311 19.5327 48.3489 33.0796 48.3489C46.6264 48.3489 58.2235 51.9425 63.2001 57.0665C64.7532 53.6656 65.6374 49.9473 65.7508 46.0362L65.7735 44.8913C65.5921 28.1022 51.0363 14.2266 33.0909 14.2266H33.0796Z" fill="#008AD1"/>
<path d="M33.0793 14.4996C15.2133 14.4996 0.668791 28.2959 0.476074 44.9263V46.0599C0.589437 49.9483 1.48501 53.6439 3.06075 57.0108C7.98071 51.9321 19.5664 48.3725 33.068 48.3725C46.5695 48.3725 58.1439 51.9435 63.0865 57.0108C64.6509 53.6439 65.5578 49.9369 65.6599 46.0599V44.9149C65.4785 28.2959 50.934 14.4883 33.0566 14.4883L33.0793 14.4996Z" fill="#008CD3"/>
<path d="M33.0794 14.7773C15.2588 14.7773 0.759612 28.4829 0.566895 44.9546V46.0882C0.668921 49.9539 1.57583 53.6155 3.1289 56.9824C8.07153 51.9491 19.6232 48.4122 33.0908 48.4122C46.5583 48.4122 58.0873 51.9491 63.0413 56.9824C64.583 53.6155 65.5013 49.9426 65.6033 46.0882V44.9546C65.3879 28.4943 50.9001 14.7773 33.1021 14.7887L33.0794 14.7773Z" fill="#008ED4"/>
<path d="M33.0679 15.0625C15.3153 15.0625 0.872828 28.6661 0.634766 44.979V46.1013C0.748129 49.9443 1.63236 53.5946 3.19677 56.9388C8.10539 51.9395 19.6458 48.4253 33.0679 48.4253C46.4901 48.4253 58.0078 51.9395 62.9391 56.9388C64.5035 53.5946 65.3991 49.9443 65.5011 46.09V44.9677C65.2631 28.6661 50.8206 15.0625 33.0679 15.0625Z" fill="#0090D5"/>
<path d="M33.0453 15.3477C15.372 15.3477 0.963543 28.8605 0.736816 45.0261V46.1371C0.816171 49.9574 1.71174 53.5964 3.27615 56.9066C8.18477 51.9639 19.6798 48.495 33.0566 48.495C46.4335 48.495 57.9512 51.9639 62.8598 56.9066C64.4015 53.5964 65.3198 49.9574 65.3991 46.1371V45.0148C65.1497 28.8605 50.7753 15.359 33.0566 15.359L33.0453 15.3477Z" fill="#0092D7"/>
<path d="M33.0452 15.6211C15.4285 15.6211 1.06542 29.0546 0.804688 45.0615V46.1724C0.895378 49.9588 1.77961 53.5751 3.34402 56.8626C8.22997 51.9653 19.691 48.5191 33.0452 48.5191C46.3993 48.5191 57.8717 51.9653 62.7576 56.8626C64.322 53.5637 65.2176 49.9588 65.3083 46.1724V45.0502C65.0249 29.0546 50.6958 15.6324 33.0452 15.6324V15.6211Z" fill="#0094D8"/>
<path d="M33.0453 15.8906C15.4853 15.8906 1.17892 29.2221 0.895508 45.0816V46.1699C0.974862 49.9449 1.85909 53.5385 3.4235 56.826C8.30945 51.9628 19.7478 48.5505 33.0566 48.5505C46.3654 48.5505 57.8151 51.9628 62.6897 56.826C64.2541 53.5385 65.1384 49.9449 65.2291 46.1699V45.059C64.9343 29.2221 50.6392 15.8906 33.0566 15.8906H33.0453Z" fill="#0097D9"/>
<path d="M33.0456 16.1754C15.5424 16.1754 1.28128 29.4162 0.963867 45.117V46.2053C1.05456 49.9576 1.93879 53.5285 3.5032 56.7821C8.35514 51.9641 19.7708 48.5859 33.0456 48.5859C46.3204 48.5859 57.7134 51.9641 62.5994 56.7821C64.1638 53.5172 65.0594 49.9463 65.1274 46.2053V45.0943C64.7986 29.4162 50.5602 16.1641 33.0456 16.1641V16.1754Z" fill="#0099DB"/>
<path d="M33.0452 16.4492C15.5986 16.4492 1.38285 29.6107 1.06543 45.1414V46.2184C1.13345 49.948 2.00634 53.4963 3.58209 56.7385C8.4227 51.9545 19.8043 48.6103 33.0565 48.6103C46.3086 48.6103 57.679 51.9545 62.5309 56.7385C64.084 53.4963 64.9909 49.948 65.0476 46.207V45.1187C64.7075 29.588 50.5144 16.4492 33.0452 16.4492Z" fill="#009BDC"/>
<path d="M33.0456 16.7422C15.6557 16.7422 1.48532 29.7903 1.12256 45.1737V46.2393C1.20191 49.9462 2.06347 53.4945 3.63922 56.7027C8.47982 51.9754 19.8161 48.6539 33.0343 48.6539C46.2524 48.6539 57.5887 51.9754 62.4293 56.7027C63.9937 53.4832 64.8666 49.9462 64.946 46.2393V45.151C64.5719 29.7903 50.4355 16.7309 33.0343 16.7422H33.0456Z" fill="#009DDD"/>
<path d="M33.0456 17.0039C15.7011 17.0039 1.59871 29.984 1.22461 45.2086V46.2629C1.28129 49.9472 2.16552 53.4615 3.7186 56.6583C8.5592 51.9651 19.8615 48.6889 33.0456 48.6889C46.2298 48.6889 57.5434 51.9764 62.3613 56.6583C63.9371 53.4615 64.8213 49.9472 64.878 46.2629V45.186C64.4812 29.9726 50.4015 17.0039 33.057 17.0039H33.0456Z" fill="#009FDF"/>
<path d="M33.0227 17.2852C15.7575 17.2852 1.70048 30.1745 1.30371 45.2292V46.2948C1.34906 49.9451 2.23329 53.448 3.7977 56.6222C8.61563 51.9856 19.9066 48.7094 33.0227 48.7094C46.1388 48.7094 57.4638 51.9743 62.2704 56.6222C63.8348 53.448 64.7304 49.9451 64.787 46.2948L64.7644 45.2178C64.3676 30.1632 50.3106 17.2852 33.0227 17.2852Z" fill="#00A2E0"/>
<path d="M33.0229 17.582C15.8144 17.582 1.80274 30.3581 1.3833 45.2766V46.3309C1.41731 49.9585 2.30154 53.4388 3.86595 56.5903C8.66121 51.9991 19.9408 48.7682 33.0229 48.7682C46.105 48.7682 57.3847 51.9877 62.2026 56.5903C63.767 53.4388 64.6286 49.9585 64.6966 46.3196V45.254C64.2545 30.3694 50.2428 17.5707 33.0229 17.582Z" fill="#00A4E1"/>
<path d="M33.0227 17.8438C15.8709 17.8438 1.91585 30.5518 1.4624 45.3003V46.3432C1.50775 49.9595 2.38064 53.4058 3.94505 56.5346C8.72898 51.9887 19.9519 48.8032 33.0227 48.8032C46.0935 48.8032 57.3164 51.9887 62.1117 56.5346C63.6874 53.4058 64.5603 49.9595 64.5943 46.3432V45.2776C64.1409 30.5404 50.1972 17.8438 33.0227 17.8438Z" fill="#00A6E3"/>
<path d="M33.0225 18.125C15.9274 18.125 1.99506 30.7423 1.55295 45.3321L1.53027 46.3751C1.58695 49.9574 2.43718 53.3923 4.01293 56.4984C8.79685 51.9866 19.9858 48.8351 33.0225 48.8351C46.0593 48.8351 57.2482 51.9979 62.0208 56.4984C63.5966 53.3923 64.4581 49.9574 64.5035 46.3751V45.3208C64.0273 30.7423 50.1064 18.1363 33.0225 18.1477V18.125Z" fill="#00A9E4"/>
<path d="M33.0112 18.4102C15.9954 18.4102 2.08578 30.9254 1.63232 45.3566V46.3882C1.63232 49.9478 2.52789 53.3713 4.0923 56.4548C8.83088 51.9883 20.0085 48.8595 33.0112 48.8595C46.014 48.8595 57.1916 51.9883 61.9302 56.4548C63.5059 53.36 64.3901 49.9478 64.4015 46.3882V45.3339C63.9254 30.9254 50.0497 18.4102 33.0112 18.4102Z" fill="#00ABE5"/>
<path d="M33.0115 18.6797C16.0297 18.6797 2.21071 31.1043 1.71191 45.388V46.4196C1.73459 49.9566 2.59615 53.3461 4.17189 56.4183C8.91047 51.9971 20.0541 48.9023 33.0115 48.9023C45.9689 48.9023 57.1125 51.9971 61.8737 56.4183C63.4154 53.3461 64.2883 49.9566 64.3224 46.4196V45.3654C63.8122 31.1156 49.9933 18.691 33.0115 18.691V18.6797Z" fill="#00ADE7"/>
<path d="M33.0113 18.9648C16.0975 18.9648 2.30126 31.2988 1.77979 45.4125V46.4441C1.80246 49.9583 2.67535 53.3252 4.23976 56.386C8.96701 52.0102 20.0766 48.938 33.0113 48.938C45.946 48.938 57.033 52.0102 61.7715 56.386C63.3473 53.3252 64.2315 49.9583 64.2315 46.4441V45.4011C63.676 31.2987 49.9138 18.9648 33.0113 18.9648Z" fill="#00B0E8"/>
<path d="M33.0112 19.2344C16.1541 19.2344 2.41447 31.4889 1.88167 45.4439L1.84766 46.4642C1.88167 49.9558 2.74322 53.3227 4.30764 56.3381C9.03488 52.0077 20.0991 48.9695 33.0112 48.9695C45.9232 48.9695 56.9535 51.9963 61.7034 56.3381C63.2564 53.3113 64.1293 49.9558 64.152 46.4642L64.1293 45.4326C63.5965 31.4889 49.8683 19.2457 33.0112 19.2457V19.2344Z" fill="#00B2EA"/>
<path d="M33.0003 19.5156C16.2226 19.5156 2.52835 31.6795 1.9502 45.4758V46.4847C1.9502 49.965 2.82309 53.2865 4.39884 56.2906C9.11474 51.9942 20.145 49.0014 33.0003 49.0014C45.8557 49.0014 56.886 51.9942 61.6019 56.2906C63.1889 53.2752 64.0392 49.9536 64.0618 46.4847L64.0392 45.4644C63.4837 31.6795 49.8008 19.5156 33.0003 19.5156Z" fill="#11B5EB"/>
<path d="M33.0004 19.8043C16.2567 19.8043 2.60777 31.8661 2.02961 45.5037L1.99561 46.5013C2.02961 49.9589 2.89117 53.2691 4.45558 56.2505C9.13748 51.9994 20.1677 49.0293 32.9891 49.0293C45.8104 49.0293 56.818 51.9994 61.4999 56.2505C63.087 53.2578 63.9485 49.9589 63.9599 46.5013V45.481C63.3477 31.8435 49.7215 19.793 32.9891 19.793L33.0004 19.8043Z" fill="#1EB7EC"/>
<path d="M32.9996 20.0742C16.3125 20.0742 2.72028 32.0454 2.11946 45.5356L2.08545 46.5332C2.08545 49.9681 2.96968 53.2556 4.54543 56.2144C9.22732 52.0086 20.2009 49.0725 32.9996 49.0725C45.7983 49.0725 56.7605 52.0086 61.4424 56.2144C62.9954 53.2556 63.857 49.9681 63.8683 46.5332L63.8457 45.5129C63.2335 32.034 49.6526 20.0742 32.9882 20.0742H32.9996Z" fill="#27BAEE"/>
<path d="M32.9886 20.3438C16.3923 20.3438 2.82272 32.2355 2.22189 45.5444L2.19922 46.542C2.19922 49.9542 3.08345 53.2191 4.62519 56.1778C9.29575 52.0061 20.258 49.104 33 49.104C45.742 49.104 56.7042 52.0174 61.3748 56.1778C62.9618 53.2191 63.7781 49.9655 63.8121 46.542L63.7894 45.533C63.1546 32.2242 49.6303 20.3438 33.0113 20.3438H32.9886Z" fill="#2FBCEF"/>
<path d="M32.9664 49.1401C45.6971 49.1401 56.6366 52.0195 61.2845 56.146C62.8489 53.1985 63.6991 49.9677 63.6991 46.5781C63.6991 33.0199 49.9595 20.6406 32.9664 20.6406C15.9733 20.6406 2.25635 33.0199 2.25635 46.5668C2.25635 49.9677 3.11791 53.1985 4.68232 56.146C9.35288 52.0082 20.2471 49.1401 32.9664 49.1401Z" fill="#37BEF0"/>
<path d="M32.9655 49.2314C45.6735 49.2314 56.6017 52.0655 61.2269 56.1692C62.814 53.2558 63.6756 50.0363 63.6756 46.6807C63.6756 33.2019 49.936 20.8906 32.9655 20.8906C15.995 20.8906 2.30078 33.2019 2.30078 46.6807C2.30078 50.0476 3.16234 53.2671 4.72675 56.1692C9.37464 52.0655 20.3028 49.2314 32.9655 49.2314Z" fill="#45C0F0"/>
<path d="M32.9656 49.2961C45.6622 49.2961 56.5451 52.1302 61.193 56.1999C62.7574 53.3092 63.6189 50.101 63.6189 46.7568C63.6189 33.3799 49.902 21.1367 32.9542 21.1367C16.0064 21.1367 2.34619 33.3799 2.34619 46.7681C2.34619 50.1123 3.20775 53.3092 4.76083 56.2113C9.42005 52.1415 20.3029 49.3074 32.9656 49.3074V49.2961Z" fill="#51C2F1"/>
<path d="M32.9662 49.3807C45.6402 49.3807 56.5231 52.2035 61.1596 56.2392C62.724 53.3598 63.5969 50.197 63.5969 46.8754C63.5969 33.5779 49.9027 21.4141 32.9662 21.4141C16.0298 21.4141 2.38086 33.5779 2.38086 46.8754C2.38086 50.1856 3.25376 53.3711 4.80683 56.2505C9.44338 52.2035 20.3262 49.3807 32.9662 49.3807Z" fill="#5BC4F1"/>
<path d="M32.9659 49.4568C45.6286 49.4568 56.4887 52.2682 61.114 56.2812C62.6784 53.4132 63.5399 50.2617 63.5399 46.9741C63.5399 33.7673 49.8683 21.6602 32.9659 21.6602C16.0635 21.6602 2.41455 33.756 2.41455 46.9628C2.41455 50.2503 3.28745 53.4245 4.82918 56.2699C9.4544 52.2569 20.3259 49.4455 32.9546 49.4455L32.9659 49.4568Z" fill="#64C7F2"/>
<path d="M32.9664 49.5371C45.595 49.5371 56.4665 52.3145 61.0917 56.3049C62.6448 53.4708 63.495 50.3307 63.495 47.0658C63.495 33.9384 49.8461 21.9219 32.9664 21.9219C16.0866 21.9219 2.47168 33.9384 2.47168 47.0658C2.47168 50.3307 3.31057 53.4822 4.86364 56.3162C9.51153 52.3259 20.349 49.5485 32.9664 49.5485V49.5371Z" fill="#6DC9F3"/>
<path d="M32.966 49.6175C45.5947 49.6175 56.4435 52.3835 61.0461 56.3512C62.5992 53.5285 63.4607 50.411 63.4607 47.1688C63.4607 34.1321 49.8118 22.1836 32.966 22.1836C16.1203 22.1836 2.50537 34.1207 2.50537 47.1575C2.50537 50.411 3.37827 53.5285 4.90867 56.3399C9.54522 52.3722 20.3827 49.6061 32.9774 49.6061L32.966 49.6175Z" fill="#75CBF3"/>
<path d="M32.9661 49.6857C45.5834 49.6857 56.3983 52.4404 61.0121 56.3741C62.5539 53.5741 63.4154 50.4906 63.4154 47.2484C63.4154 34.3137 49.8005 22.4219 32.9661 22.4219C16.1317 22.4219 2.55078 34.3137 2.55078 47.2484C2.55078 50.4906 3.41234 53.5854 4.95408 56.3741C9.56796 52.4404 20.3828 49.697 32.9661 49.6857Z" fill="#7DCDF4"/>
<path d="M32.9658 49.7887C45.5718 49.7887 56.3639 52.5208 60.9665 56.4091C62.5195 53.6317 63.3698 50.5709 63.3698 47.3514C63.3698 34.496 49.7662 22.6836 32.9771 22.6836C16.188 22.6836 2.58447 34.496 2.58447 47.3514C2.58447 50.5709 3.4347 53.6431 4.98777 56.4205C9.60165 52.5094 20.4052 49.7887 32.9658 49.7887Z" fill="#84D0F4"/>
<path d="M32.9662 49.8577C45.5382 49.8577 56.3304 52.5671 60.9216 56.4554C62.4633 53.7007 63.3249 50.6399 63.3249 47.4544C63.3249 34.6897 49.744 22.9453 32.9549 22.9453C16.1658 22.9453 2.6416 34.6897 2.6416 47.4431C2.6416 50.6513 3.48049 53.6894 5.02223 56.4441C9.61343 52.5671 20.4169 49.8464 32.9662 49.8464V49.8577Z" fill="#8BD2F5"/>
<path d="M32.9659 49.9338C45.5265 49.9338 56.3074 52.6318 60.8759 56.4748C62.429 53.7314 63.3019 50.7046 63.3019 47.5418C63.3019 34.8678 49.721 23.1914 32.9659 23.1914C16.2108 23.1914 2.67529 34.8678 2.67529 47.5531C2.67529 50.716 3.52552 53.7428 5.07859 56.4862C9.68113 52.6318 20.4506 49.9564 32.9772 49.9451L32.9659 49.9338Z" fill="#92D4F5"/>
<path d="M32.9661 50.0145C45.5267 50.0145 56.2509 52.7012 60.8647 56.5102C62.3951 53.7895 63.2567 50.7967 63.2567 47.6452C63.2567 35.0506 49.6985 23.4648 32.9774 23.4648C16.2564 23.4648 2.70947 35.0506 2.70947 47.6452C2.70947 50.7854 3.57103 53.8008 5.11277 56.5215C9.70398 52.6899 20.4848 50.0258 32.9661 50.0145Z" fill="#99D7F6"/>
<path d="M32.9658 50.1054C45.4924 50.1054 56.2279 52.7581 60.8191 56.5558C62.3608 53.8464 63.1997 50.8649 63.1997 47.7361C63.1997 35.2435 49.6868 23.7031 32.9771 23.7031C16.2674 23.7031 2.74316 35.2548 2.74316 47.7361C2.74316 50.8649 3.59339 53.8577 5.14646 56.5558C9.73767 52.7581 20.4845 50.1054 32.9658 50.1054Z" fill="#9FD9F7"/>
<path d="M32.9661 50.1744C45.4701 50.1744 56.1942 52.8158 60.7741 56.5907C62.3158 53.904 63.166 50.9453 63.166 47.8278C63.166 35.4259 49.6532 23.9648 32.9661 23.9648C16.2791 23.9648 2.81152 35.4259 2.81152 47.8391C2.81152 50.9453 3.65041 53.9154 5.19215 56.6021C9.76068 52.8271 20.4848 50.1857 32.9661 50.1857V50.1744Z" fill="#A5DBF7"/>
<path d="M32.9663 50.2622C45.4476 50.2622 56.1717 52.8808 60.7289 56.6218C62.2706 53.9465 63.1209 51.0217 63.1209 47.9269C63.1209 35.6043 49.642 24.2227 32.9663 24.2227C16.2906 24.2227 2.8457 35.6156 2.8457 47.9269C2.8457 51.0104 3.69593 53.9465 5.21499 56.6218C9.8062 52.8808 20.5077 50.2622 32.9663 50.2622Z" fill="#ABDDF8"/>
<path d="M32.9656 50.3343C45.4355 50.3343 56.1257 52.9417 60.7055 56.66C62.2246 54.0073 63.0862 51.0938 63.0862 48.0217C63.0862 35.8012 49.6073 24.4648 32.9656 24.4648C16.3239 24.4648 2.86768 35.8012 2.86768 48.033C2.86768 51.1052 3.72924 54.0186 5.25964 56.6713C9.82817 52.953 20.5296 50.3456 32.9656 50.3456V50.3343Z" fill="#B1DFF8"/>
<path d="M32.9659 50.4225C45.4132 50.4225 56.092 53.0071 60.6719 56.6914C62.2023 54.0614 63.0298 51.1707 63.0298 48.1212C63.0298 35.98 49.5849 24.7344 32.9659 24.7344C16.3469 24.7344 2.93604 35.98 2.93604 48.1212C2.93604 51.1707 3.78626 54.0727 5.29399 56.6914C9.86252 53.0071 20.5527 50.4225 32.9659 50.4225Z" fill="#B7E1F9"/>
<path d="M32.9884 50.5028C45.413 50.5028 56.0804 53.0648 60.6263 56.7264C62.168 54.1191 63.0069 51.2397 63.0069 48.2242C63.0069 36.1624 49.5734 24.9961 32.9997 24.9961C16.426 24.9961 2.9585 36.1737 2.9585 48.2242C2.9585 51.2283 3.80872 54.1191 5.32778 56.7264C9.88498 53.0648 20.5524 50.5028 32.977 50.5028H32.9884Z" fill="#BCE4F9"/>
<path d="M32.9888 50.5831C45.3908 50.5831 56.0582 53.1225 60.5927 56.7614C62.1118 54.1767 62.962 51.3087 62.962 48.3272C62.962 36.3561 49.5285 25.2578 32.9888 25.2578C16.4492 25.2578 3.01562 36.3561 3.01562 48.3159C3.01562 51.32 3.84318 54.1767 5.36224 56.7614C9.93077 53.1111 20.5756 50.5831 32.9888 50.5831Z" fill="#C1E6FA"/>
<path d="M32.9889 50.6592C45.3681 50.6592 56.0016 53.1758 60.5588 56.7921C62.0779 54.2301 62.9168 51.396 62.9168 48.4146C62.9168 36.5341 49.5172 25.5039 32.9889 25.5039C16.4606 25.5039 3.06104 36.5341 3.06104 48.4146C3.06104 51.396 3.88859 54.2301 5.39631 56.7921C9.96485 53.1872 20.6096 50.6592 32.9776 50.6592H32.9889Z" fill="#C7E8FA"/>
<path d="M32.9888 50.7391C45.3567 50.7391 55.9788 53.2445 60.5134 56.8267C62.0324 54.2761 62.8713 51.4647 62.8713 48.5059C62.8713 36.7048 49.4945 25.7539 32.9774 25.7539C16.4604 25.7539 3.07227 36.7161 3.07227 48.5172C3.07227 51.4647 3.93383 54.2761 5.44155 56.8381C9.97608 53.2558 20.6095 50.7505 32.9774 50.7505L32.9888 50.7391Z" fill="#CCEAFB"/>
<path d="M32.9889 50.8042C45.3454 50.8042 55.9335 53.3096 60.4681 56.8578C61.9985 54.3298 62.8374 51.5298 62.8374 48.605C62.8374 36.8946 49.4718 26.0117 32.9889 26.0117C16.5059 26.0117 3.11768 36.9059 3.11768 48.6163C3.11768 51.5524 3.95656 54.3412 5.46429 56.8692C10.0102 53.3209 20.6209 50.8156 32.9775 50.8156L32.9889 50.8042Z" fill="#D1ECFB"/>
<path d="M32.9883 50.8994C45.3336 50.8994 55.9217 53.3707 60.4335 56.8963C61.9299 54.3797 62.7915 51.6136 62.7915 48.7115C62.7915 37.0918 49.4373 26.2656 32.9883 26.2656C16.5393 26.2656 3.17383 37.0918 3.17383 48.7115C3.17383 51.6136 4.01272 54.391 5.50911 56.8963C10.0323 53.3707 20.6544 50.8994 32.9883 50.8994Z" fill="#D6EEFB"/>
<path d="M32.9884 50.9794C45.2996 50.9794 55.8877 53.4394 60.3996 56.9309C61.9073 54.437 62.7575 51.6936 62.7575 48.8028C62.7575 37.2738 49.426 26.5156 32.9884 26.5156C16.5507 26.5156 3.21924 37.2851 3.21924 48.8141C3.21924 51.7049 4.05813 54.4483 5.56585 56.9423C10.089 53.4394 20.6772 50.9907 32.9884 50.9907V50.9794Z" fill="#DBF0FC"/>
<path d="M32.9885 51.0562C45.277 51.0562 55.8538 53.4935 60.3543 56.9737C61.8847 54.5138 62.7123 51.7704 62.7123 48.9023C62.7123 37.464 49.3921 26.7852 32.9885 26.7852C16.5848 26.7852 3.26465 37.464 3.26465 48.9023C3.26465 51.7704 4.10354 54.5024 5.59993 56.9737C10.1118 53.4822 20.6999 51.0562 32.9885 51.0562Z" fill="#E0F2FC"/>
<path d="M32.9886 51.1362C45.2772 51.1362 55.8086 53.5394 60.3318 56.997C61.8169 54.537 62.6671 51.839 62.6671 48.9936C62.6671 37.6346 49.3809 27.0352 32.9886 27.0352C16.5963 27.0352 3.29883 37.6459 3.29883 48.9936C3.29883 51.8503 4.13772 54.5484 5.62277 57.0084C10.1346 53.5508 20.6887 51.1475 32.9886 51.1475V51.1362Z" fill="#E5F4FD"/>
<path d="M32.9887 51.2165C45.2546 51.2165 55.7633 53.6085 60.2979 57.032C61.7829 54.606 62.6331 51.908 62.6331 49.0966C62.6331 37.8396 49.3697 27.2969 33 27.2969C16.6304 27.2969 3.34424 37.8396 3.34424 49.0966C3.34424 51.9193 4.17179 54.606 5.65685 57.0434C10.1687 53.6198 20.7001 51.2278 32.9774 51.2278L32.9887 51.2165Z" fill="#E9F6FD"/>
<path d="M32.9888 51.2929C45.2433 51.2929 55.7634 53.6735 60.2412 57.0631C61.7376 54.6485 62.5879 51.9844 62.5879 49.1844C62.5879 38.0068 49.3244 27.5547 32.9888 27.5547C16.6531 27.5547 3.38965 38.0294 3.38965 49.1844C3.38965 51.9958 4.20586 54.6598 5.71359 57.0744C10.2254 53.6735 20.7455 51.3043 32.9888 51.3043V51.2929Z" fill="#EEF8FE"/>
<path d="M32.9884 51.3846C45.2203 51.3846 55.7064 53.7425 60.2069 57.1094C61.7033 54.7061 62.5422 52.0648 62.5422 49.276C62.5422 38.2005 49.3127 27.8164 32.9884 27.8164C16.6642 27.8164 3.42334 38.2118 3.42334 49.276C3.42334 52.0648 4.26223 54.7061 5.74728 57.1094C10.2478 53.7425 20.7566 51.3846 32.9884 51.3846Z" fill="#F2FAFE"/>
<path d="M32.9887 51.4528C45.2206 51.4528 55.684 53.7994 60.1618 57.1323C61.6582 54.7517 62.5085 52.133 62.5085 49.3783C62.5085 38.3821 49.2903 28.0547 32.9887 28.0547C16.6871 28.0547 3.44629 38.3934 3.44629 49.3896C3.44629 52.1443 4.28518 54.763 5.78157 57.1437C10.2707 53.7994 20.7795 51.4528 32.9887 51.4528Z" fill="#F7FCFE"/>
<path d="M32.9887 51.5453C45.2092 51.5453 55.65 53.8692 60.1391 57.1908C61.6242 54.8215 62.4744 52.2141 62.4744 49.4934C62.4744 38.5765 49.2676 28.3398 33 28.3398C16.7324 28.3398 3.50293 38.5765 3.50293 49.4821C3.50293 52.2141 4.34182 54.8101 5.81554 57.1794C10.2934 53.8579 20.7795 51.5453 32.9773 51.5339L32.9887 51.5453Z" fill="#FBFDFF"/>
<path d="M32.9887 51.61C45.1639 51.61 55.616 53.9226 60.0939 57.2101C61.5789 54.8635 62.4065 52.2902 62.4065 49.5808C62.4065 38.7546 49.2337 28.5859 32.9887 28.5859C16.7438 28.5859 3.54834 38.7546 3.54834 49.5808C3.54834 52.3015 4.37589 54.8748 5.84961 57.2101C10.3275 53.9226 20.8022 51.6213 32.9774 51.61H32.9887Z" fill="white"/>
</g>
<path d="M32.9662 40.8242C22.3214 40.8242 12.4362 42.6267 4.2627 45.6875C9.14864 56.6837 20.1789 64.3471 32.9776 64.3471C45.7763 64.3471 56.7952 56.6837 61.7151 45.6875C53.5416 42.6267 43.6337 40.8242 32.9549 40.8242H32.9662Z" fill="#007BC7"/>
</svg>
