<svg width="53" height="64" viewBox="0 0 53 64" fill="none" xmlns="http://www.w3.org/2000/svg">
<path fill-rule="evenodd" clip-rule="evenodd" d="M14 12.5C14 5.59644 19.5964 0 26.5 0C33.4036 0 39 5.59644 39 12.5V21.5C39 28.4036 33.4036 34 26.5 34C19.5964 34 14 28.4036 14 21.5V12.5ZM0 21V21.5C0 36.1355 11.8645 48 26.5 48C41.1355 48 53 36.1355 53 21.5V21C53 19.3431 51.6569 18 50 18C48.3431 18 47 19.3431 47 21V21.5C47 32.8218 37.8218 42 26.5 42C15.1782 42 6 32.8218 6 21.5V21C6 19.3431 4.65685 18 3 18C1.34315 18 0 19.3431 0 21ZM26.5 64C29.5376 64 32 61.5376 32 58.5C32 55.4624 29.5376 53 26.5 53C23.4624 53 21 55.4624 21 58.5C21 61.5376 23.4624 64 26.5 64Z" fill="#066AEB"/>
<path fill-rule="evenodd" clip-rule="evenodd" d="M53 21V21.5C53 36.1355 41.1355 48 26.5 48C26.3751 48 26.2503 47.9991 26.1258 47.9974C26.0841 47.9991 26.0421 48 26 48C24.3431 48 23 46.6569 23 45C23 43.3431 24.3431 42 26 42V41.994C26.1662 41.998 26.3329 42 26.5 42C37.8218 42 47 32.8218 47 21.5V21C47 19.3431 48.3431 18 50 18C51.6569 18 53 19.3431 53 21Z" fill="#49BDFF"/>
</svg>
